<?xml version="1.0" standalone="no"?>
<!DOCTYPE svg PUBLIC "-//W3C//DTD SVG 1.1//EN" "http://www.w3.org/Graphics/SVG/1.1/DTD/svg11.dtd" >
<svg xmlns="http://www.w3.org/2000/svg" xmlns:xlink="http://www.w3.org/1999/xlink" version="1.1">
<metadata>
Created by FontForge 20170731 at Thu Jun 27 23:52:57 2013
 By Aleksey,,,
Copyright (c) The Font Bureau, Inc., 2008. All rights reserved.
</metadata>
<defs>
<font id="BentonSans-Black" horiz-adv-x="1331" >
  <font-face 
    font-family="BentonSans Black"
    font-weight="800"
    font-stretch="normal"
    units-per-em="2048"
    panose-1="2 0 8 4 3 0 0 2 0 4"
    ascent="1612"
    descent="-436"
    x-height="1098"
    cap-height="1516"
    bbox="-180 -649 3258 2060"
    underline-thickness="0"
    underline-position="0"
    unicode-range="U+0020-FB04"
  />
<missing-glyph horiz-adv-x="1024" 
d="M0 0v1434h1024v-1434h-1024zM102 1331v-1229h820v1229h-820z" />
    <glyph glyph-name="f_f" unicode="ff" horiz-adv-x="1591" 
d="M621 0h-406v807h-178v291h178v41q0 77 14.5 143.5t52.5 122t109.5 88.5t179.5 33q32 0 68.5 -2t70 -5t57.5 -6.5t32 -5.5v-272q-7 2 -17.5 3.5t-22.5 2.5t-24 1.5t-22 0.5q-26 0 -44 -8.5t-28.5 -24t-15 -37.5t-4.5 -51v-24h274v41q0 82 13 146.5t54.5 119.5t124.5 88
t216 33q28 0 67 -2t77.5 -5t67 -6.5t35.5 -5.5v-276q-7 2 -19 4.5t-27.5 4t-31 2.5t-28.5 1q-34 0 -57.5 -3t-43.5 -14.5t-31.5 -36.5t-11.5 -67v-24h238v-291h-238v-807h-405v807h-274v-807z" />
    <glyph glyph-name="f_i" unicode="fi" horiz-adv-x="1432" 
d="M1300 1182h-405v334h405v-334zM621 0h-406v807h-178v291h178v41q0 77 14.5 143.5t52.5 122t109.5 88.5t179.5 33q28 0 64 -2t70.5 -5t60 -6.5t33.5 -5.5v-272q-7 2 -17.5 3.5t-22.5 2.5t-24 1.5t-22 0.5q-26 0 -44 -8.5t-28.5 -24t-15 -37.5t-4.5 -51v-24h186v-291h-186
v-807zM1300 0h-405v1098h405v-1098z" />
    <glyph glyph-name="f_l" unicode="fl" horiz-adv-x="1421" 
d="M1300 0h-405v1516h405v-1516zM621 0h-406v807h-178v291h178v41q0 77 14.5 143.5t52.5 122t109.5 88.5t179.5 33q28 0 64 -2t70.5 -5t60 -6.5t33.5 -5.5v-272q-7 2 -17.5 3.5t-22.5 2.5t-24 1.5t-22 0.5q-26 0 -44 -8.5t-28.5 -24t-15 -37.5t-4.5 -51v-24h186v-291h-186
v-807z" />
    <glyph glyph-name="f_f_i" unicode="ffi" horiz-adv-x="2101" 
d="M1980 1182h-405v334h405v-334zM1980 0h-405v1098h405v-1098zM621 0h-406v807h-178v291h178v41q0 77 14.5 143.5t52.5 122t109.5 88.5t179.5 33q32 0 68.5 -2t70 -5t57.5 -6.5t32 -5.5v-272q-7 2 -17.5 3.5t-22.5 2.5t-24 1.5t-22 0.5q-26 0 -44 -8.5t-28.5 -24t-15 -37.5
t-4.5 -51v-24h274v41q0 77 14.5 143.5t52.5 122t109.5 88.5t179.5 33q28 0 64 -2t70.5 -5t60 -6.5t33.5 -5.5v-272q-7 2 -17.5 3.5t-22.5 2.5t-24 1.5t-22 0.5q-26 0 -44.5 -8.5t-29 -24t-15 -37.5t-4.5 -51v-24h187v-291h-187v-807h-405v807h-274v-807z" />
    <glyph glyph-name="f_f_l" unicode="ffl" horiz-adv-x="2101" 
d="M1980 0h-405v1516h405v-1516zM621 0h-406v807h-178v291h178v41q0 77 14.5 143.5t52.5 122t109.5 88.5t179.5 33q32 0 68.5 -2t70 -5t57.5 -6.5t32 -5.5v-272q-7 2 -17.5 3.5t-22.5 2.5t-24 1.5t-22 0.5q-26 0 -44 -8.5t-28.5 -24t-15 -37.5t-4.5 -51v-24h274v41
q0 77 14.5 143.5t52.5 122t109.5 88.5t179.5 33q28 0 64 -2t70.5 -5t60 -6.5t33.5 -5.5v-272q-7 2 -17.5 3.5t-22.5 2.5t-24 1.5t-22 0.5q-26 0 -44.5 -8.5t-29 -24t-15 -37.5t-4.5 -51v-24h187v-291h-187v-807h-405v807h-274v-807z" />
    <glyph glyph-name="f_j" unicode="fj" horiz-adv-x="1421" 
d="M1300 1182h-405v334h405v-334zM621 0h-406v807h-178v291h178v41q0 77 14.5 143.5t52.5 122t109.5 88.5t179.5 33q28 0 64 -2t70.5 -5t60 -6.5t33.5 -5.5v-272q-7 2 -17.5 3.5t-22.5 2.5t-24 1.5t-22 0.5q-26 0 -44 -8.5t-28.5 -24t-15 -37.5t-4.5 -51v-24h186v-291h-186
v-807zM893 -418q-29 0 -68 2t-77.5 5t-66.5 6t-36 6v266q7 -2 19.5 -4.5t28 -4t31 -2.5t28.5 -1q38 0 65 9t44 28t25.5 49.5t8.5 74.5v1082h405v-1172q0 -70 -13 -127t-54 -106.5t-124 -80t-216 -30.5z" />
    <glyph glyph-name=".notdef" horiz-adv-x="1024" 
d="M0 0v1434h1024v-1434h-1024zM102 1331v-1229h820v1229h-820z" />
    <glyph glyph-name=".null" horiz-adv-x="0" 
 />
    <glyph glyph-name="nonmarkingreturn" horiz-adv-x="682" 
 />
    <glyph glyph-name="space" unicode=" " horiz-adv-x="586" 
 />
    <glyph glyph-name="space" unicode="&#xa0;" horiz-adv-x="586" 
 />
    <glyph glyph-name="exclam" unicode="!" horiz-adv-x="768" 
d="M551 506h-313l-99 1010h510zM606 0h-424v348h424v-348z" />
    <glyph glyph-name="quotedbl" unicode="&#x22;" horiz-adv-x="987" 
d="M416 948h-266l-35 402v166h336v-166zM838 948h-267l-34 402v166h335v-166z" />
    <glyph glyph-name="numbersign" unicode="#" horiz-adv-x="1608" 
d="M725 866l-47 -217h164l45 217h-162zM543 0h-361l74 356h-219v293h280l45 217h-237v293h299l76 357h360l-74 -357h162l76 357h360l-75 -357h262v-293h-324l-45 -217h281v-293h-342l-74 -356h-360l73 356h-162z" />
    <glyph glyph-name="dollar" unicode="$" horiz-adv-x="1427" 
d="M612 958v295q-32 -7 -56.5 -20.5t-40.5 -33t-24 -43.5t-8 -52q0 -29 7.5 -51t23 -39t39.5 -30.5t59 -25.5zM825 557v-303q37 7 63.5 20.5t43 33t24 44.5t7.5 56q0 27 -7 48.5t-23.5 39.5t-42.5 33t-65 28zM600 -190v170q-96 10 -174.5 38.5t-141.5 72.5t-114 100.5
t-96 127.5l270 173q43 -56 68 -86.5t55.5 -60t66.5 -51.5t78 -34v352q-110 26 -195 58t-153.5 83t-108.5 128.5t-40 185.5q0 102 34 185.5t98 144t153.5 96.5t199.5 45v139h234v-145q83 -12 150.5 -37.5t120.5 -61.5t95.5 -80t81.5 -98l-266 -194q-21 30 -41 54.5t-43 46.5
t-50 40t-57 31v-326q121 -27 212 -62.5t157 -88t101.5 -129t35.5 -181.5q0 -88 -27 -165.5t-86.5 -140.5t-155 -105t-228.5 -55v-170h-234z" />
    <glyph glyph-name="percent" unicode="%" horiz-adv-x="2386" 
d="M512 516q-101 0 -182.5 36t-138.5 104t-87 163t-30 211q0 115 30 209.5t87 162.5t138.5 104t182.5 36q100 0 181 -36t138 -104t87 -162.5t30 -209.5q0 -116 -30 -211t-87 -163t-138 -104t-181 -36zM911 0h-344l906 1516h344zM512 764q31 0 52 17t33.5 50.5t18 82.5
t5.5 116q0 66 -5.5 114t-18.5 80.5t-34 49t-51 16.5q-32 0 -53.5 -16.5t-35 -49t-19 -80.5t-5.5 -114t6 -115.5t19 -83t35 -50.5t53 -17zM1876 -20q-101 0 -182.5 36t-138.5 104t-87 163t-30 211q0 115 30 209.5t87 162.5t138.5 104t182.5 36q100 0 181 -36t138 -104
t87 -162.5t30 -209.5q0 -116 -30 -211t-87 -163t-138 -104t-181 -36zM1876 227q31 0 52 17.5t33.5 51t18 82.5t5.5 116q0 66 -5.5 114t-18.5 80.5t-34 49t-51 16.5q-32 0 -53.5 -16.5t-35 -49t-19 -80.5t-5.5 -114t6 -115.5t19 -83t35 -51t53 -17.5z" />
    <glyph glyph-name="ampersand" unicode="&#x26;" horiz-adv-x="1540" 
d="M690 973q30 19 53.5 40.5t40.5 47t26 55.5t9 66q0 19 -4.5 37.5t-14 34t-26 25t-39.5 9.5q-19 0 -36.5 -6t-32 -19t-23 -35t-8.5 -54q0 -23 3.5 -47.5t10.5 -50t17.5 -51.5t23.5 -52zM612 246q20 0 39 2t38 6t38 10t37 15q-22 20 -43.5 42.5t-42.5 46.5t-42.5 49.5
t-43.5 53.5q-11 14 -23 29t-23.5 30.5t-23 30.5t-22.5 31q-18 -16 -32 -33t-24 -36t-15 -41t-5 -46q0 -45 14.5 -80.5t40.5 -60t60 -37t73 -12.5zM610 -29q-145 0 -256.5 28t-187.5 81t-114 127.5t-38 167.5q0 92 27 163t74.5 123t106.5 89.5t136 72.5q-21 43 -38 84.5
t-29 83t-18.5 82t-6.5 78.5q0 78 27.5 148.5t84 126t144.5 87t203 31.5q110 0 191.5 -29t133 -78.5t75.5 -111.5t24 -129q0 -84 -27 -150t-73 -116.5t-103 -88.5t-131 -75q9 -12 17.5 -23t17.5 -22.5t18.5 -22.5t18.5 -22q18 -21 33.5 -39t31 -35t31 -33.5t31.5 -31.5
q12 27 23 56t19.5 60.5t15.5 65t11 69.5h340q-8 -56 -19.5 -111.5t-28.5 -112t-40 -111t-51 -105.5q29 -11 59.5 -19.5t64 -14t69.5 -8.5t75 -3v-323q-81 0 -153 6.5t-135.5 19t-120.5 31t-109 43.5q-42 -26 -88.5 -46t-99.5 -34t-112 -21.5t-124 -7.5z" />
    <glyph glyph-name="quotesingle" unicode="'" horiz-adv-x="565" 
d="M416 948h-266l-35 402v166h336v-166z" />
    <glyph glyph-name="parenleft" unicode="(" horiz-adv-x="831" 
d="M805 -238l-201 -182q-129 108 -226 220.5t-164.5 236t-102.5 262.5t-35 295t35 295t102.5 262.5t164.5 236t226 220.5l189 -197q-69 -82 -123 -174t-93 -194.5t-60 -215t-21 -233.5q0 -123 21.5 -238t62 -219.5t97 -198t128.5 -176.5z" />
    <glyph glyph-name="parenright" unicode=")" horiz-adv-x="831" 
d="M227 -420l-200 182q71 83 128 176.5t97.5 198t62 219.5t21.5 238q0 121 -21 233.5t-60 215t-93.5 194t-122.5 174.5l188 197q129 -108 226.5 -220.5t165 -236t102.5 -262.5t35 -295t-35 -295t-102.5 -262.5t-165 -236t-226.5 -220.5z" />
    <glyph glyph-name="asterisk" unicode="*" horiz-adv-x="1040" 
d="M520 868l-139 -290l-201 118l182 265l-321 -23v225l324 -22l-185 266l201 119l139 -293l139 293l203 -119l-184 -266l321 22v-225l-321 23l184 -265l-200 -118z" />
    <glyph glyph-name="plus" unicode="+" 
d="M825 188h-319v390h-367v315h367v389h319v-389h367v-315h-367v-390z" />
    <glyph glyph-name="comma" unicode="," horiz-adv-x="588" 
d="M330 -260h-189l103 260h-162v369h424v-314z" />
    <glyph glyph-name="hyphen" unicode="-" horiz-adv-x="731" 
d="M649 512h-567v262h567v-262z" />
    <glyph glyph-name="hyphen" unicode="&#xad;" horiz-adv-x="731" 
d="M649 512h-567v262h567v-262z" />
    <glyph glyph-name="period" unicode="." horiz-adv-x="588" 
d="M506 0h-424v369h424v-369z" />
    <glyph glyph-name="slash" unicode="/" horiz-adv-x="1389" 
d="M461 0h-414l881 1516h413z" />
    <glyph glyph-name="zero" unicode="0" horiz-adv-x="1460" 
d="M731 -29q-154 0 -277 55.5t-209 160t-130.5 249.5t-44.5 322t44.5 322t130.5 249t209 159.5t277 55.5t277 -55.5t208.5 -159.5t130 -249t44.5 -322t-44.5 -322t-130 -249.5t-208.5 -160t-277 -55.5zM731 289q64 0 111 29t78.5 87.5t47 146.5t15.5 206q0 117 -16 204
t-47.5 144t-78.5 85t-110 28q-65 0 -112.5 -28t-79 -85t-47 -143.5t-15.5 -204.5q0 -117 16.5 -205.5t48.5 -147t79.5 -87.5t109.5 -29z" />
    <glyph glyph-name="one" unicode="1" horiz-adv-x="961" 
d="M940 0h-897v315h268v838q-28 -15 -60 -27.5t-67 -22t-70 -15t-67 -5.5v334q44 2 82.5 8.5t72.5 18.5t63 30t54 42h390v-1201h231v-315z" />
    <glyph glyph-name="two" unicode="2" horiz-adv-x="1280" 
d="M1204 0h-1169v33q0 98 13 176t55.5 162t130.5 173t231 181q237 152 229.5 147t29.5 28.5t55 72t18 92.5q0 33 -10.5 59t-30.5 43.5t-48.5 27t-64.5 9.5q-37 0 -78.5 -13.5t-83.5 -39.5t-81.5 -63t-71.5 -82l-285 208q55 77 117 136.5t136.5 103t164 67t194.5 23.5
q128 0 228.5 -31t170 -89.5t105 -142t35.5 -187.5q0 -68 -9.5 -123t-40.5 -113.5t-95 -121.5t-168 -130q-92 -58 -148.5 -95.5t-103 -73t-73.5 -66.5t-30 -56h678v-315z" />
    <glyph glyph-name="three" unicode="3" horiz-adv-x="1303" 
d="M625 -29q-102 0 -190 15.5t-163.5 46.5t-140.5 77.5t-123 110.5l246 230q35 -38 78.5 -68t90.5 -50t93.5 -30t87.5 -10q56 0 97 10.5t69 31.5t41.5 52.5t13.5 73.5q0 54 -21.5 89t-62 54.5t-96.5 27t-133 7.5h-84v295h86q93 0 150.5 14t85.5 36t36.5 46.5t8.5 54.5t-9 53
t-29.5 39t-55 24.5t-85.5 8.5q-39 0 -78.5 -5t-82.5 -18.5t-87.5 -38t-86.5 -61.5l-215 259q54 47 123.5 84t149 62t162.5 37.5t165 12.5q126 0 224.5 -24t167 -73t104.5 -122.5t36 -171.5q0 -63 -18.5 -119.5t-55 -102t-91.5 -78t-126 -48.5q84 -13 149 -46.5t109 -83
t66 -110.5t22 -129q0 -111 -45 -198t-128.5 -146t-199 -89t-255.5 -30z" />
    <glyph glyph-name="four" unicode="4" horiz-adv-x="1442" 
d="M1169 0h-395v266h-737v297l690 953h442v-932h256v-318h-256v-266zM770 1024l-315 -440h319v440h-4z" />
    <glyph glyph-name="five" unicode="5" horiz-adv-x="1270" 
d="M608 -29q-96 0 -180 11.5t-157 34t-136.5 54t-122.5 72.5l197 275q38 -27 83.5 -50t94 -40t98 -26t95.5 -9q65 0 113.5 14t79.5 41.5t46 67.5t15 92q0 54 -13.5 96t-42 72t-72 45.5t-102.5 15.5q-31 0 -63 -7.5t-64.5 -22.5t-64.5 -39t-60 -56l-256 78l62 826h968
l-20 -304h-639l-23 -256q16 14 43 27.5t64 24.5t84.5 17.5t101.5 6.5q126 0 221.5 -38t158 -107t93.5 -162t31 -205q0 -123 -43.5 -224.5t-126 -174t-200 -111.5t-263.5 -39z" />
    <glyph glyph-name="six" unicode="6" horiz-adv-x="1374" 
d="M721 -29q-146 0 -266.5 50.5t-206.5 148.5t-132 240t-46 321q0 224 62 383.5t164.5 253.5t224 135t247.5 41q90 0 163 -11t128.5 -29.5t97.5 -40.5t82 -50l-170 -274q-35 22 -67 37.5t-65 26t-69.5 15.5t-79.5 5q-61 0 -114 -20.5t-95 -63t-69.5 -108t-38.5 -152.5
q42 27 84.5 47t86.5 33.5t90 20.5t95 7q98 0 186 -25.5t158 -82t111 -150.5t41 -225q0 -121 -43.5 -220t-124 -169t-191 -107t-243.5 -37zM737 276q51 0 90 18.5t64 49t37 67.5t12 74q0 40 -9 75.5t-31 65t-62 47t-99 17.5q-41 0 -79 -6t-72 -17t-63.5 -26t-55.5 -35
q3 -81 20.5 -142.5t50.5 -103.5t82 -63t115 -21z" />
    <glyph glyph-name="seven" unicode="7" horiz-adv-x="1096" 
d="M547 0h-414l557 1192h-698v324h1114v-297z" />
    <glyph glyph-name="eight" unicode="8" 
d="M666 -29q-149 0 -267 28t-201 83t-126 135.5t-43 183.5q0 66 25 126t68.5 109t99 87t116.5 63q-60 33 -103.5 66.5t-74 76t-46.5 97.5t-16 127q0 75 35.5 145t107 125.5t179.5 88t246 32.5q143 0 251 -32.5t178 -88t104 -125.5t34 -145q0 -56 -16 -109.5t-46.5 -100.5
t-74 -84.5t-97.5 -61.5q72 -32 125 -65t93.5 -78t63 -107.5t22.5 -145.5q0 -103 -43.5 -183.5t-126 -135.5t-200.5 -83t-267 -28zM696 928q37 20 64 40.5t44 43t25.5 48t8.5 54.5q0 25 -8.5 51t-28.5 48t-53 35.5t-80 13.5t-81 -12t-54.5 -32.5t-29.5 -46t-9 -53.5
q0 -36 14.5 -65t41 -51t62.5 -39.5t84 -34.5zM666 244q55 0 97.5 14.5t71 39.5t42.5 57.5t14 68.5t-14 64t-44 53.5t-78 49.5t-120 52q-43 -22 -78.5 -46.5t-61.5 -52t-40.5 -58t-14.5 -62.5q0 -36 14 -68.5t42.5 -57.5t71.5 -39.5t98 -14.5z" />
    <glyph glyph-name="nine" unicode="9" horiz-adv-x="1374" 
d="M635 825q42 0 80 6t71.5 17t63 26.5t55.5 34.5q-3 81 -20.5 141t-50.5 99.5t-82 59.5t-115 20q-51 0 -89.5 -17t-64 -45.5t-37.5 -64t-12 -72.5q0 -40 9 -75.5t31 -65t62 -47t99 -17.5zM606 -29q-90 0 -163 11t-128.5 29.5t-97 40.5t-82.5 50l170 265q35 -22 67 -38
t65 -26t69.5 -15t79.5 -5q61 0 114 22t95 66.5t69.5 111t38.5 154.5q-42 -27 -84 -47.5t-86 -34t-90.5 -20.5t-95.5 -7q-98 0 -186 25.5t-158 82.5t-111 151t-41 225q0 121 43.5 219.5t124 168.5t191 107t243.5 37q146 0 266.5 -50.5t207 -148t132.5 -239.5t46 -322
q0 -224 -62.5 -383t-165 -253t-224.5 -135.5t-247 -41.5z" />
    <glyph glyph-name="colon" unicode=":" horiz-adv-x="625" 
d="M524 729h-424v369h424v-369zM524 0h-424v369h424v-369z" />
    <glyph glyph-name="semicolon" unicode=";" horiz-adv-x="625" 
d="M524 729h-424v369h424v-369zM342 -260h-188l102 260h-156v369h424v-303z" />
    <glyph glyph-name="less" unicode="&#x3c;" 
d="M1214 403v-325l-1083 481v209l1083 481v-325l-655 -260z" />
    <glyph glyph-name="equal" unicode="=" 
d="M1182 768h-1035v279h1035v-279zM1182 301h-1035v279h1035v-279z" />
    <glyph glyph-name="greater" unicode="&#x3e;" 
d="M1214 559l-1083 -481v325l655 261l-655 260v325l1083 -481v-209z" />
    <glyph glyph-name="question" unicode="?" horiz-adv-x="1264" 
d="M764 500h-334q-3 22 -4.5 41.5t-2.5 37t-1 33v41.5q0 58 18.5 106t50.5 86t72 67.5t88 54.5q36 18 60.5 35.5t40.5 36.5t24 42t8 52q0 20 -9 37t-27.5 30t-46 20t-62.5 7q-43 0 -92 -14t-96 -38t-88 -53.5t-70 -60.5l-238 229q50 53 114.5 99t143.5 81t173 54.5t198 19.5
q121 0 215 -28t157 -78.5t94.5 -119.5t31.5 -151q0 -68 -17.5 -122t-49.5 -94.5t-73 -71t-94 -56.5q-74 -36 -111 -63.5t-52.5 -59t-18 -69t-2.5 -131.5zM809 0h-424v348h424v-348z" />
    <glyph glyph-name="at" unicode="@" horiz-adv-x="1778" 
d="M864 -29q-180 0 -326 58.5t-248 164.5t-155 249.5t-53 310.5q0 166 57 310.5t164.5 252.5t258 167.5t331.5 59.5t330 -56t255 -159.5t162 -244t56 -306.5q0 -102 -27 -188t-81 -149t-134.5 -97.5t-183.5 -34.5q-64 0 -111.5 13t-81 38t-55.5 59.5t-37 80.5
q-27 -32 -57 -58.5t-68 -49t-86 -35.5t-104 -13q-60 0 -108.5 21t-82.5 61t-51.5 97.5t-17.5 129.5q0 127 30 229t83 173t121 108t142 37q48 0 84.5 -8t62.5 -21.5t44.5 -31.5t34.5 -41l14 86h303l-106 -613q-6 -30 -4 -50t12.5 -33t31.5 -19t54 -6q47 0 86 21t67 61
t43 96.5t15 126.5q0 135 -44 247.5t-127 194.5t-201.5 126t-264.5 44q-145 0 -262.5 -46t-199.5 -130t-124.5 -199t-42.5 -251q0 -138 41 -254.5t120 -202.5t194.5 -133t261.5 -47q56 0 107 6t97.5 18.5t88.5 32.5t79 47l82 -115q-43 -33 -95.5 -58t-112.5 -42.5t-126 -26
t-135 -8.5zM815 571q15 0 31 5.5t31.5 14t29 19t23.5 21.5l47 270q-14 15 -25 24.5t-23 15t-25.5 8.5t-31.5 3q-41 0 -71 -22.5t-49 -61t-28 -85.5t-9 -97q0 -29 3.5 -49t13.5 -35t30 -23t53 -8z" />
    <glyph glyph-name="A" unicode="A" horiz-adv-x="1495" 
d="M733 993l-145 -420h289l-140 420h-4zM393 0h-373l537 1522h381l537 -1522h-414l-92 283h-477z" />
    <glyph glyph-name="B" unicode="B" horiz-adv-x="1483" 
d="M803 0h-662v1516h637q112 0 204.5 -13t171.5 -51.5t127 -114t48 -194.5q0 -79 -22.5 -140t-62.5 -103t-91 -67t-111 -36v-4q74 -13 132 -38t101 -68t67 -109t24 -158q0 -118 -49.5 -200.5t-131 -130.5t-180 -68.5t-202.5 -20.5zM543 1202v-291h194q54 0 93 10t63.5 29.5
t35.5 46t11 60.5q0 35 -11 61.5t-35 45t-62 28.5t-91 10h-198zM543 629v-322h205q57 0 98.5 11t68 32t39.5 51t13 70q0 39 -13 68.5t-40.5 49.5t-70 30t-100.5 10h-200z" />
    <glyph glyph-name="C" unicode="C" horiz-adv-x="1518" 
d="M780 -29q-153 0 -282 46t-225 142t-149.5 246t-53.5 353q0 202 55 352t152.5 246t226 142t276.5 46q150 0 262 -36t187 -101.5t121 -152t71 -193.5l-387 -115q-17 61 -37 106.5t-49 80t-71 54t-99 19.5q-75 0 -131.5 -30t-93.5 -87.5t-55.5 -140.5t-18.5 -190
q0 -105 19 -190t57 -145t95 -92t132 -32q59 0 103 18.5t75 54.5t53.5 89t41.5 127l387 -86q-29 -121 -78.5 -217t-127.5 -166.5t-191.5 -109t-264.5 -38.5z" />
    <glyph glyph-name="D" unicode="D" horiz-adv-x="1542" 
d="M639 0h-498v1516h498q179 0 328 -38t263 -124t178.5 -232t64.5 -354q0 -216 -65.5 -365.5t-180 -238t-263 -126.5t-325.5 -38zM549 1176v-846h113q116 0 193 24.5t122.5 76.5t65.5 133t20 200q0 109 -20 185t-66.5 126.5t-125 75.5t-194.5 25h-108z" />
    <glyph glyph-name="E" unicode="E" horiz-adv-x="1321" 
d="M1257 0h-1116v1516h1082v-340h-672v-246h479v-320h-479v-280h706v-330z" />
    <glyph glyph-name="F" unicode="F" horiz-adv-x="1219" 
d="M551 0h-410v1516h1047v-340h-637v-304h444v-319h-444v-553z" />
    <glyph glyph-name="G" unicode="G" horiz-adv-x="1589" 
d="M748 -29q-177 0 -306.5 58t-211.5 164.5t-121 250.5t-39 320q0 177 48 321.5t140 247t224.5 157t299.5 54.5q115 0 212 -22.5t179.5 -77.5t146 -152t101.5 -241l-374 -105q-22 72 -50 122t-61 80.5t-71.5 44t-84.5 13.5q-60 0 -112.5 -22t-95 -72t-67 -135t-24.5 -207
q0 -149 32 -245t81.5 -144.5t101.5 -65t103 -16.5q48 0 90 13t75.5 36.5t59 57t41.5 75.5h-221v299h610v-780h-321v201h-5q-8 -30 -37.5 -69.5t-78.5 -76t-116.5 -60.5t-147.5 -24z" />
    <glyph glyph-name="H" unicode="H" horiz-adv-x="1606" 
d="M141 0v1516h410v-564h504v564h409v-1516h-409v612h-504v-612h-410z" />
    <glyph glyph-name="I" unicode="I" horiz-adv-x="717" 
d="M563 0h-409v1516h409v-1516z" />
    <glyph glyph-name="J" unicode="J" horiz-adv-x="1126" 
d="M475 -29q-83 0 -151 11t-121.5 30.5t-97.5 45t-89 59.5l207 276q24 -20 49 -36.5t53.5 -30.5t60.5 -22.5t65 -8.5q40 0 70 13.5t49.5 42.5t29.5 74t10 107v984h410v-1055q0 -109 -29 -198t-93 -154.5t-169.5 -101.5t-253.5 -36z" />
    <glyph glyph-name="K" unicode="K" horiz-adv-x="1511" 
d="M551 0h-410v1516h410v-549l418 549h475l-510 -598l555 -918h-463l-358 606l-117 -135v-471z" />
    <glyph glyph-name="L" unicode="L" horiz-adv-x="1219" 
d="M1188 0h-1047v1516h410v-1186h637v-330z" />
    <glyph glyph-name="M" unicode="M" horiz-adv-x="1890" 
d="M506 0h-365v1516h543l266 -1029h4l240 1029h555v-1516h-391v938h-4q-9 -57 -18.5 -105.5t-19 -91.5t-20 -83.5t-24.5 -88.5l-160 -569h-360l-156 569q-15 53 -25 90t-19.5 78.5t-19.5 94.5t-22 126h-4v-958z" />
    <glyph glyph-name="N" unicode="N" horiz-adv-x="1620" 
d="M516 0h-375v1516h404l555 -850h4v850h375v-1516h-379l-580 848h-4v-848z" />
    <glyph glyph-name="O" unicode="O" horiz-adv-x="1628" 
d="M815 -29q-142 0 -275 46.5t-239 143t-168.5 247t-62.5 350.5t62 350.5t168.5 247t239.5 142.5t275 46t274.5 -46t239 -142.5t168.5 -247t62 -350.5t-62 -350.5t-168.5 -247t-239 -143t-274.5 -46.5zM815 299q79 0 141.5 32t105.5 92.5t65 145.5t22 189t-22 187t-65 141.5
t-105.5 89t-141.5 30.5q-80 0 -142.5 -30.5t-106 -89t-65.5 -141.5t-22 -187t22 -189t65.5 -145.5t106 -92.5t142.5 -32z" />
    <glyph glyph-name="P" unicode="P" horiz-adv-x="1413" 
d="M547 0h-406v1516h568q138 0 250.5 -19.5t204.5 -74t146 -158.5t54 -265q0 -160 -57 -263.5t-152 -158t-206.5 -74.5t-239.5 -20h-162v-483zM547 1184v-389h176q69 0 116.5 14t75 39t39 60.5t11.5 80.5q0 46 -11.5 81t-39 60.5t-75 39.5t-116.5 14h-176z" />
    <glyph glyph-name="Q" unicode="Q" horiz-adv-x="1628" 
d="M1407 -416h-311q-114 0 -208 31t-161.5 87.5t-105 134t-41.5 167.5q-108 31 -200.5 91.5t-163.5 154t-110.5 221.5t-39.5 287q0 200 62 350.5t168.5 247t239 142.5t275.5 46q142 0 274 -46t238.5 -142.5t168.5 -247t62 -350.5q0 -167 -44 -300t-121.5 -227.5t-178 -153.5
t-215.5 -85q19 -35 48.5 -54t67 -26t63.5 -7.5t129 -0.5h104v-320zM811 299q79 0 141.5 32t105.5 92.5t65 145.5t22 189t-22 187t-65 141.5t-105.5 89t-141.5 30.5q-80 0 -142.5 -30.5t-106 -89t-65.5 -141.5t-22 -187t22 -189t65.5 -145.5t106 -92.5t142.5 -32z" />
    <glyph glyph-name="R" unicode="R" horiz-adv-x="1473" 
d="M543 1184v-346h176q64 0 109.5 9.5t75 30t43.5 53.5t14 81t-14 80.5t-43.5 53t-75 29.5t-109.5 9h-176zM543 0h-402v1516h592q150 0 265 -26.5t196 -85t123.5 -153.5t42.5 -229q0 -89 -18.5 -160t-56 -125t-93.5 -93t-131 -64l321 -580h-434l-293 526h-112v-526z" />
    <glyph glyph-name="S" unicode="S" horiz-adv-x="1452" 
d="M737 -29q-126 0 -231 27t-188.5 75.5t-147.5 114t-115 146.5l303 188q34 -54 78 -96.5t95.5 -72t108.5 -45t116 -15.5q48 0 88 7.5t69.5 23t45.5 41t16 59.5q0 35 -20.5 61t-56.5 45t-81.5 33.5t-111.5 30.5q-152 39 -230 63t-161 73t-135 131t-52 204q0 114 41 203.5
t118 151t183.5 93t235.5 31.5q115 0 212.5 -24.5t175 -66t137.5 -93.5t109 -113l-274 -225q-32 38 -74 72.5t-90.5 61t-99.5 41.5t-99 15q-43 0 -76 -7t-55.5 -21t-33.5 -34.5t-11 -47.5q0 -36 20 -63t55.5 -46.5t81 -33.5t112.5 -31q134 -32 220.5 -59.5t170.5 -78
t136 -134t52 -203.5q0 -95 -35 -181t-111.5 -154t-199.5 -107.5t-291 -39.5z" />
    <glyph glyph-name="T" unicode="T" horiz-adv-x="1352" 
d="M881 0h-410v1176h-436v340h1282v-340h-436v-1176z" />
    <glyph glyph-name="U" unicode="U" horiz-adv-x="1493" 
d="M748 -23q-164 0 -285 41.5t-199 122.5t-115.5 198t-37.5 269v908h409v-906q0 -79 13.5 -136t41.5 -94t71.5 -55t105.5 -18q61 0 104.5 18t71 55t40.5 94t13 136v906h401v-908q0 -152 -37.5 -269t-115 -198t-197.5 -122.5t-284 -41.5z" />
    <glyph glyph-name="V" unicode="V" horiz-adv-x="1462" 
d="M926 -6h-389l-517 1522h414l303 -986h4l320 986h381z" />
    <glyph glyph-name="W" unicode="W" horiz-adv-x="1985" 
d="M780 0h-348l-403 1516h411l129 -596q14 -56 20.5 -83t14.5 -62.5t15.5 -77t15.5 -91.5h4q6 48 13.5 89t14.5 75t18.5 84t14.5 64l125 598h371l135 -601q2 -7 16 -61.5t21.5 -85.5t15 -70.5t15.5 -91.5h4q6 51 12.5 89t12 64.5t15.5 72.5t17 79l121 605h375l-393 -1516
h-342l-207 948h-4z" />
    <glyph glyph-name="X" unicode="X" horiz-adv-x="1540" 
d="M498 0h-432l469 797l-437 719h467l228 -400l208 400h420l-422 -723l476 -793h-457l-268 463z" />
    <glyph glyph-name="Y" unicode="Y" horiz-adv-x="1477" 
d="M942 0h-410v633l-528 883h422l313 -537l316 537h418l-531 -883v-633z" />
    <glyph glyph-name="Z" unicode="Z" horiz-adv-x="1382" 
d="M1313 0h-1262v281l742 895h-693v340h1213v-291l-721 -895h721v-330z" />
    <glyph glyph-name="bracketleft" unicode="[" horiz-adv-x="954" 
d="M911 -410h-784v1926h784v-279h-376v-1368h376v-279z" />
    <glyph glyph-name="backslash" unicode="\" horiz-adv-x="1307" 
d="M1300 0h-413l-881 1516h414z" />
    <glyph glyph-name="bracketright" unicode="]" horiz-adv-x="954" 
d="M827 -410h-784v279h377v1368h-377v279h784v-1926z" />
    <glyph glyph-name="asciicircum" unicode="^" 
d="M86 657l481 859h209l481 -859h-325l-260 449l-260 -449h-326z" />
    <glyph glyph-name="underscore" unicode="_" horiz-adv-x="1024" 
d="M1024 -350h-1024v274h1024v-274z" />
    <glyph glyph-name="grave" unicode="`" horiz-adv-x="1024" 
d="M471 1212l-311 371h389l190 -371h-268z" />
    <glyph glyph-name="a" unicode="a" horiz-adv-x="1206" 
d="M520 285q36 0 66.5 5t53.5 13.5t41 20t32 24.5v156q-73 -2 -126.5 -12.5t-88.5 -29t-51.5 -43.5t-16.5 -57q0 -19 6.5 -34t19 -24.5t29 -14t35.5 -4.5zM348 -16q-61 0 -117 19t-100.5 57.5t-70 97.5t-25.5 137q0 92 42.5 166t127.5 127t212.5 84t295.5 39v14
q0 21 -6 37.5t-20 29t-37.5 19t-57.5 6.5q-46 0 -92 -9t-89 -25t-82 -37.5t-75 -47.5l-166 230q42 37 94 70t121 60.5t157.5 43.5t194.5 16q121 0 207 -28.5t140.5 -85.5t80 -143t25.5 -204v-391q0 -50 1.5 -90t5.5 -72t9.5 -57.5t14.5 -46.5h-402q-5 18 -9.5 36t-8 38
t-5 41.5t-1.5 44.5q-34 -43 -72.5 -75.5t-83.5 -55t-97 -34t-112 -11.5z" />
    <glyph glyph-name="b" unicode="b" horiz-adv-x="1303" 
d="M838 -16q-55 0 -101.5 8.5t-86 25.5t-72.5 42t-62 59v-119h-405v1516h405v-588q27 40 58.5 73.5t71 60t89 41.5t107.5 15q93 0 168.5 -36t129.5 -108t82.5 -179t28.5 -246t-29 -245.5t-83.5 -177.5t-130.5 -106.5t-170 -35.5zM684 285q44 0 75.5 18.5t50.5 53t27.5 82
t8.5 108.5q0 54 -7.5 97t-26 75t-51 49.5t-81.5 17.5q-23 0 -46.5 -7t-45.5 -19t-40.5 -25.5t-31.5 -27.5v-353q21 -19 40 -32t38.5 -21t41.5 -12t48 -4z" />
    <glyph glyph-name="c" unicode="c" horiz-adv-x="1155" 
d="M614 -23q-105 0 -203.5 27.5t-180 92.5t-130.5 177t-49 273q0 162 53 275t139 177.5t185.5 91.5t200.5 27q116 0 201.5 -27.5t143 -75t94 -108.5t62.5 -137l-339 -106q-13 49 -30 81t-37.5 50t-44.5 25t-54 7q-45 0 -77 -19.5t-52 -56t-29.5 -88.5t-9.5 -118
q0 -65 7 -116t25 -89.5t50.5 -60t81.5 -21.5q27 0 52 8t49 27.5t44 54.5t33 86l336 -112q-27 -68 -67 -128t-102 -109t-150 -78.5t-202 -29.5z" />
    <glyph glyph-name="d" unicode="d" horiz-adv-x="1303" 
d="M623 285q23 0 46.5 7t45.5 19t40 26t31 28v352q-21 19 -40 32t-38.5 21t-41.5 12t-48 4q-44 0 -75 -16.5t-50 -48t-27.5 -77t-8.5 -105.5q0 -55 7.5 -100t25.5 -80t51 -54.5t82 -19.5zM461 -16q-94 0 -169.5 33.5t-129.5 102.5t-82.5 173.5t-28.5 243.5t29 248t83.5 183
t131 112t170.5 38q56 0 102.5 -8.5t85.5 -26.5t72 -47t61 -69v549h406v-1250q0 -51 1.5 -90.5t5.5 -71.5t10.5 -57.5t15.5 -46.5h-414q-6 8 -10.5 26.5t-8 42.5t-5 49t-1.5 46q-26 -39 -57 -71t-70.5 -56.5t-89 -38.5t-108.5 -14z" />
    <glyph glyph-name="e" unicode="e" horiz-adv-x="1206" 
d="M643 -23q-121 0 -225.5 28t-187.5 93.5t-131 177t-48 271.5q0 156 55.5 267.5t143.5 178t187.5 96t191.5 29.5q96 0 185 -23.5t167 -89t127 -191.5t49 -320v-62h-702q7 -52 25.5 -87t46 -55t64 -28t83.5 -8q41 0 85 9t86 24t78.5 32.5t65.5 34.5l146 -245
q-52 -34 -109.5 -59t-120 -41t-128 -24t-134.5 -8zM459 664h340q-6 48 -20 81.5t-35.5 53.5t-50.5 28.5t-66 8.5q-31 0 -57.5 -9.5t-48 -30.5t-37.5 -54t-25 -78z" />
    <glyph glyph-name="f" unicode="f" horiz-adv-x="891" 
d="M621 0h-406v807h-178v291h178v41q0 82 13 146.5t54.5 119.5t124.5 88t216 33q28 0 67 -2t77.5 -5t67 -6.5t35.5 -5.5v-276q-7 2 -19 4.5t-27.5 4t-31 2.5t-28.5 1q-34 0 -57 -3t-43 -14.5t-31.5 -36.5t-11.5 -67v-24h237v-291h-237v-807z" />
    <glyph glyph-name="g" unicode="g" horiz-adv-x="1300" 
d="M592 551q35 0 62 12.5t45 34t27 51t9 62.5t-9 62t-27 51t-45 34t-62 12t-62 -12t-45 -34t-27 -51t-9 -62t9 -62.5t27 -51t45 -34t62 -12.5zM553 -410q-158 0 -268 16t-177 47t-97.5 74.5t-30.5 100.5q0 37 14.5 69t39 57.5t54 45.5t64.5 37q-16 12 -28 25.5t-20.5 29.5
t-13 34t-4.5 38q0 37 13.5 72t37 66.5t53.5 58.5t66 51q-46 26 -81 60.5t-58.5 75t-35 85.5t-11.5 94q0 82 32.5 153t98 124.5t162.5 83.5t223 30q65 0 122.5 -8.5t106.5 -24t89 -38t71 -50.5q28 26 65 47t77 37t79 24.5t74 10.5v-301q-17 0 -33 -0.5t-38.5 -2t-50.5 -5.5
t-58 -10q1 -8 1.5 -16t1 -16.5t1 -18t0.5 -19.5q0 -82 -31.5 -153t-95 -124.5t-160 -83.5t-221.5 -30q-22 0 -43.5 1t-42 3t-40 4.5t-38.5 5.5q-4 -6 -7 -11.5t-5 -10.5t-3 -9.5t-1 -9.5q0 -14 7.5 -22.5t21.5 -12.5t31 -5.5t46 -2.5l135 -4q160 -5 270.5 -25t179 -59
t100.5 -98t32 -143q0 -87 -50.5 -153t-142.5 -109t-215 -64t-268 -21zM623 -215q56 0 103 5t81 15t53 25.5t19 36.5q0 23 -8 36t-35 22.5t-85.5 15.5t-160.5 10l-156 6q-10 0 -19.5 0.5l-19 1t-19 1.5t-18.5 3q-3 -8 -5.5 -16t-4 -15t-2 -14t-0.5 -14q0 -33 15 -55.5
t48 -36.5t85.5 -20.5t128.5 -6.5z" />
    <glyph glyph-name="h" unicode="h" horiz-adv-x="1296" 
d="M516 0h-405v1516h405v-588q20 32 51 64.5t76.5 61t105.5 46.5t132 18q67 0 124 -17t100 -54.5t67 -99t24 -146.5v-801h-405v668q0 29 -5 50.5t-16 36.5t-29 23t-43 8t-49 -6t-47 -16t-44 -24t-42 -31v-709z" />
    <glyph glyph-name="i" unicode="i" horiz-adv-x="647" 
d="M526 1204h-405v312h405v-312zM526 0h-405v1098h405v-1098z" />
    <glyph glyph-name="j" unicode="j" horiz-adv-x="647" 
d="M526 1204h-405v312h405v-312zM119 -418q-29 0 -68 2t-78 5t-67 6t-35 6v266q7 -2 19.5 -4.5t27.5 -4t31 -2.5t28 -1q38 0 65.5 9t44.5 28t25.5 49.5t8.5 74.5v1082h405v-1172q0 -70 -13 -127t-54 -106.5t-124 -80t-216 -30.5z" />
    <glyph glyph-name="k" unicode="k" horiz-adv-x="1245" 
d="M516 0h-405v1516h405v-760l268 342h430l-356 -418l369 -680h-416l-203 385l-92 -109v-276z" />
    <glyph glyph-name="l" unicode="l" horiz-adv-x="647" 
d="M526 0h-405v1516h405v-1516z" />
    <glyph glyph-name="m" unicode="m" horiz-adv-x="1923" 
d="M516 0h-405v1098h405v-170q19 31 50.5 64t75 61.5t99 46.5t117.5 18q67 0 118 -12.5t87 -37t59 -59.5t35 -81q19 31 50.5 64t75 61.5t99 46.5t117.5 18q81 0 142.5 -25t101.5 -70t60 -107t20 -136v-780h-406v668q0 31 -3 52t-11.5 36t-25.5 22.5t-44 7.5q-23 0 -44 -5.5
t-40 -16t-37.5 -23.5t-42.5 -32v-709h-405v668q0 31 -3 52t-11.5 36t-25.5 22.5t-44 7.5q-23 0 -44 -5.5t-40.5 -16t-38 -23.5t-41.5 -32v-709z" />
    <glyph glyph-name="n" unicode="n" horiz-adv-x="1296" 
d="M113 0v1098h405v-170q20 32 51 64.5t76.5 61t105.5 46.5t132 18q67 0 124 -17t100 -54.5t67 -99t24 -146.5v-801h-405v668q0 29 -5 50.5t-16 36.5t-29 23t-43 8t-49 -6t-47 -16t-44 -24t-42 -31v-709h-405z" />
    <glyph glyph-name="o" unicode="o" horiz-adv-x="1274" 
d="M637 -23q-108 0 -210 27.5t-187.5 92.5t-137 177t-51.5 273q0 163 51.5 275.5t136.5 177t187 91.5t211 27t210.5 -27t187 -91.5t137 -177t51.5 -275.5q0 -161 -51.5 -273t-137 -177t-187.5 -92.5t-210 -27.5zM637 258q49 0 83.5 20t56 57.5t31 90t9.5 119.5q0 63 -9 114
t-29.5 88.5t-55.5 58.5t-86 21q-49 0 -83.5 -19.5t-56 -56t-31 -88.5t-9.5 -118q0 -64 9 -115t29 -90t55.5 -60.5t86.5 -21.5z" />
    <glyph glyph-name="p" unicode="p" horiz-adv-x="1303" 
d="M684 283q44 0 75.5 18.5t50.5 53t27.5 82t8.5 108.5q0 54 -7.5 97t-26 75t-51 49.5t-81.5 17.5q-23 0 -46.5 -7t-45.5 -19t-40.5 -25.5t-31.5 -27.5v-353q21 -19 40 -32t38.5 -21t41.5 -12t48 -4zM516 -412h-405v1508h405v-170q27 40 58.5 73.5t71 60t89 41.5t107.5 15
q93 0 168.5 -36t129.5 -108t82.5 -179t28.5 -246t-29 -245.5t-83.5 -177.5t-130.5 -106.5t-170 -35.5q-55 0 -101.5 8.5t-86 25.5t-72.5 42t-62 59v-529z" />
    <glyph glyph-name="q" unicode="q" horiz-adv-x="1303" 
d="M1192 -410h-406v564q-26 -36 -57.5 -66t-71 -53.5t-89 -37t-107.5 -13.5q-94 0 -169.5 33.5t-129.5 102.5t-82.5 173.5t-28.5 243.5t29 248t83.5 183t131 112t170.5 38q56 0 102.5 -8.5t85.5 -26.5t72 -47t61 -69v131h406v-1508zM623 285q23 0 46.5 7t45.5 19t40 26
t31 28v352q-21 19 -40 32t-38.5 21t-41.5 12t-48 4q-44 0 -75 -16.5t-50 -48t-27.5 -77t-8.5 -105.5q0 -55 7.5 -100t25.5 -80t51 -54.5t82 -19.5z" />
    <glyph glyph-name="r" unicode="r" horiz-adv-x="891" 
d="M516 0h-405v1098h405v-170h2q21 35 48.5 66.5t68.5 59.5t97.5 46t127.5 18h4v-358q-7 1 -20 2.5t-28 2.5t-29.5 2t-24.5 1q-41 0 -77 -9t-66.5 -23.5t-54 -31t-48.5 -36.5v-668z" />
    <glyph glyph-name="s" unicode="s" horiz-adv-x="1116" 
d="M573 -23q-93 0 -173 12t-146.5 33t-121.5 49.5t-103 63.5l149 227q38 -30 86.5 -54.5t101.5 -42t105.5 -27t99.5 -9.5q27 0 50.5 4t41.5 13t28.5 22.5t10.5 32.5q0 21 -10 36t-30 25t-51.5 17.5t-78.5 13.5q-95 14 -165 31t-136 53.5t-107.5 103t-41.5 167.5
q0 89 34.5 159t96 117t142.5 70.5t175 23.5q88 0 161 -10t133.5 -29t113 -46.5t104.5 -65.5l-149 -224q-45 26 -88.5 46.5t-85 35t-79.5 22t-71 7.5q-26 0 -46.5 -4t-35 -12.5t-22.5 -22t-8 -31.5q0 -19 10.5 -32.5t31 -23t51.5 -16t75 -12.5q94 -12 165 -28t137.5 -50.5
t108 -96.5t41.5 -156q0 -105 -41 -181t-112.5 -122.5t-161 -67.5t-189.5 -21z" />
    <glyph glyph-name="t" unicode="t" horiz-adv-x="926" 
d="M610 -14q-136 0 -218 23t-122.5 66.5t-53.5 103.5t-13 151v477h-178v291h178v368h405v-368h281v-291h-281v-387q0 -45 6.5 -73t22.5 -44t43 -22.5t72 -6.5q12 0 27.5 1t31 3t28 4.5t19.5 4.5v-283q-7 -2 -35.5 -5t-67 -6t-77.5 -5t-68 -2z" />
    <glyph glyph-name="u" unicode="u" horiz-adv-x="1296" 
d="M416 -23q-67 0 -124 17t-100 54.5t-67.5 99t-24.5 147.5v803h406v-680q0 -29 5 -51t16 -37t28.5 -23t42.5 -8t49.5 6t47 16.5t43.5 24.5t42 31v721h406v-1098h-406v168q-20 -32 -51 -64.5t-76 -61.5t-105 -47t-132 -18z" />
    <glyph glyph-name="v" unicode="v" horiz-adv-x="1130" 
d="M770 0h-410l-387 1098h416l193 -654h4l194 654h377z" />
    <glyph glyph-name="w" unicode="w" horiz-adv-x="1610" 
d="M672 0h-375l-313 1098h405l72 -334q10 -43 17.5 -77.5t14 -70.5t13.5 -78t14 -94h4q8 51 16 94t16 80.5t16.5 74t19.5 81.5l74 324h307l80 -328q11 -41 19.5 -77t16.5 -73.5t16 -80t17 -95.5h4l16.5 93.5t15.5 79.5t16.5 72.5t19.5 76.5l78 332h354l-313 -1098h-375
l-133 575h-4z" />
    <glyph glyph-name="x" unicode="x" horiz-adv-x="1153" 
d="M412 0h-406l369 565l-342 533h422l151 -254l135 254h406l-348 -535l362 -563h-422l-168 281z" />
    <glyph glyph-name="y" unicode="y" horiz-adv-x="1176" 
d="M336 -420q-69 0 -126.5 4t-101 11t-75 14t-62.5 16l84 312q16 -5 37.5 -10t52 -10.5t67 -9t75.5 -3.5q20 0 36 3t29 10t22.5 19.5t16.5 30.5l10 27l-417 1104h415l203 -627h4l203 627h391l-459 -1209q-28 -74 -63 -130t-83 -96t-112.5 -61.5t-146.5 -21.5z" />
    <glyph glyph-name="z" unicode="z" horiz-adv-x="1106" 
d="M1071 0h-1022v203l475 604h-442v291h944v-211l-477 -604h522v-283z" />
    <glyph glyph-name="braceleft" unicode="{" horiz-adv-x="954" 
d="M928 -410h-357q-69 0 -125 23.5t-95.5 66t-60 100t-20.5 124.5v262q0 75 -13.5 123t-41.5 74.5t-69.5 37.5t-102.5 11v282q61 0 102.5 11t69.5 37.5t41.5 74.5t13.5 123v262q0 67 20.5 124.5t60 100t95.5 66t125 23.5h357v-279h-90q-41 0 -71.5 -11t-50 -31.5t-29 -51
t-9.5 -70.5v-192q0 -74 -11.5 -129.5t-33.5 -94t-54 -63.5t-75 -39v-4q43 -14 75 -39t54 -63.5t33.5 -94t11.5 -129.5v-192q0 -40 9.5 -70.5t29 -51t50 -31.5t71.5 -11h90v-279z" />
    <glyph glyph-name="bar" unicode="|" horiz-adv-x="864" 
d="M633 -410h-402v1926h402v-1926z" />
    <glyph glyph-name="braceright" unicode="}" horiz-adv-x="954" 
d="M424 -410h-397v279h90q41 0 71 11t49.5 31.5t29 51t9.5 70.5v233q0 74 11.5 123t33.5 79.5t53 49t77 33.5v4q-46 15 -77 33.5t-53 49t-33.5 79.5t-11.5 123v233q0 40 -9.5 70.5t-29 51t-49.5 31.5t-71 11h-90v279h397q70 0 119.5 -17.5t80.5 -52t45.5 -85t14.5 -118.5
v-303q0 -75 14 -123t41.5 -74.5t69 -37.5t102.5 -11v-282q-61 0 -102.5 -11t-69 -37.5t-41.5 -74.5t-14 -123v-303q0 -68 -14.5 -118.5t-45.5 -85t-80.5 -52t-119.5 -17.5z" />
    <glyph glyph-name="asciitilde" unicode="~" 
d="M932 518q-69 0 -139.5 17t-171.5 52.5t-136.5 46.5t-70.5 11q-16 0 -28.5 -4t-22.5 -13.5t-16.5 -27.5t-10.5 -45l-232 41q12 94 38 162t63.5 110t85.5 62t106 20q73 0 145.5 -17.5t175 -54.5t134 -47t66.5 -10q16 0 28.5 4.5t22.5 14.5t17 28t11 45l230 -30
q-12 -95 -38 -164.5t-64.5 -114t-86.5 -65.5t-106 -21z" />
    <glyph glyph-name="exclamdown" unicode="&#xa1;" horiz-adv-x="768" 
d="M586 1167h-424v349h424v-349zM629 0h-510l98 1010h313z" />
    <glyph glyph-name="cent" unicode="&#xa2;" horiz-adv-x="1169" 
d="M449 360l145 471q-40 -5 -71.5 -26t-54 -57t-34.5 -87t-12 -116q0 -30 1.5 -56t5 -49t8.5 -43t12 -37zM250 -264l92 299q-63 30 -115.5 74.5t-92 107.5t-61.5 146t-22 184q0 154 53 265.5t139 178.5t186 97t198 30h11.5h10t11 -0.5t10.5 -1.5l57 191h197l-70 -224
q58 -21 103.5 -53t79.5 -73t58.5 -87.5t43.5 -99.5l-310 -106q-5 21 -13 39.5t-17.5 34t-20 28t-22.5 22.5l-164 -536q3 -1 6 -1.5t6.5 -0.5h6.5h7q27 0 58.5 9.5t62.5 30.5t57.5 57t41.5 87l305 -112q-26 -67 -68 -127.5t-106 -109.5t-153.5 -78.5t-203.5 -29.5
q-11 0 -22 0.5t-22 1.5l-22 2t-24 3l-76 -248h-196z" />
    <glyph glyph-name="sterling" unicode="&#xa3;" horiz-adv-x="1479" 
d="M477 659h-291v205h164q-16 29 -29 57.5t-22.5 58.5t-14.5 62t-5 66q0 90 34.5 169.5t99.5 139.5t155 93.5t198 33.5q139 0 234.5 -34t154.5 -92t92.5 -128t59.5 -162l-349 -79q-10 41 -21.5 72.5t-30.5 57.5t-48.5 41t-71.5 15q-26 0 -47.5 -8.5t-37.5 -24.5t-24.5 -39.5
t-8.5 -52.5q0 -32 7.5 -62.5t20.5 -59.5t23.5 -47t44.5 -77h369v-205h-271q7 -22 12.5 -44.5t9 -46.5t5.5 -50.5t2 -54.5q0 -24 -3.5 -48.5t-9.5 -49t-15 -48t-21 -47.5q12 -5 24.5 -8.5t25 -6t25.5 -4t27 -1.5q38 0 65 7.5t47 28t31.5 58.5t12.5 98h342q-5 -98 -23.5 -178
t-62.5 -147t-126 -106.5t-208 -39.5q-57 0 -108.5 7.5t-96 21.5t-82.5 32.5t-73 41.5q-36 -24 -75 -43t-81 -32.5t-86 -20.5t-90 -7q-65 0 -122 14.5t-102 45.5t-70.5 80t-25.5 116q0 70 26.5 123.5t72 89t101 53t114.5 17.5q31 0 60 -4.5t56.5 -13t53.5 -20t53 -26.5
q-1 28 -7 56t-15 54.5t-21 51.5t-27 51zM477 227q-24 21 -41 34t-34 23.5t-34.5 16.5t-35.5 6q-17 0 -31.5 -5t-24.5 -14t-15 -22t-5 -28q0 -16 5 -29t15 -23.5t25.5 -16t34.5 -5.5q23 0 42.5 4.5t37 12.5t33 19.5t28.5 26.5z" />
    <glyph glyph-name="currency" unicode="&#xa4;" 
d="M666 537q42 0 77 14.5t60 42.5t38 67.5t13 88.5q0 48 -13 86.5t-38 65.5t-60 41.5t-77 14.5q-43 0 -78 -14.5t-60 -41.5t-38 -65.5t-13 -86.5q0 -49 13 -88.5t38 -67.5t60 -42.5t78 -14.5zM666 322q-22 0 -43.5 2t-42.5 5.5t-40 8.5t-38 12l-191 -190l-235 235l188 189
q-8 18 -13.5 37.5t-9.5 40.5t-6 42.5t-2 43.5t2 43t5.5 41.5t9 40t12.5 38.5l-186 185l235 235l191 -186q19 7 38.5 12.5t40 9t42 5.5t43.5 2q21 0 42 -2t41 -5.5t39.5 -8.5t38.5 -11l185 184l235 -235l-180 -181q8 -18 13.5 -37.5t9.5 -40t6 -42t2 -43.5t-2 -44t-6 -43
t-9.5 -41t-13.5 -38l186 -185l-235 -235l-187 186q-19 -7 -39 -13t-40.5 -9.5t-42 -5.5t-43.5 -2z" />
    <glyph glyph-name="yen" unicode="&#xa5;" horiz-adv-x="1456" 
d="M932 0h-410v158h-356v207h356v112h-356v205h350l-498 834h422l289 -496l291 496h418l-502 -834h356v-205h-360v-112h360v-207h-360v-158z" />
    <glyph glyph-name="brokenbar" unicode="&#xa6;" horiz-adv-x="864" 
d="M633 678h-402v838h402v-838zM633 -410h-402v838h402v-838z" />
    <glyph glyph-name="section" unicode="&#xa7;" horiz-adv-x="1237" 
d="M770 371q9 10 15.5 21.5t11.5 23t7.5 23t2.5 22.5q0 37 -9 63.5t-33.5 51.5t-68 53.5t-118.5 70.5q-13 8 -25.5 15t-31.5 17.5t-31.5 17.5t-24.5 14q-9 -11 -15.5 -22.5t-11.5 -23t-7.5 -23t-2.5 -21.5q0 -37 9 -63.5t33.5 -51.5t68 -54t118.5 -71q15 -8 29.5 -16
t28.5 -15.5t27 -15t28 -16.5zM612 -410q-120 0 -207 25t-142.5 66.5t-87 90.5t-52.5 105l280 133q15 -34 33.5 -62.5t42.5 -50.5t53 -34.5t62 -12.5t54.5 8.5t33 23.5t16 33.5t4.5 41.5q0 30 -19.5 57t-53 51.5t-66.5 43t-114 61.5q-71 38 -122.5 71t-103 82t-84.5 115
t-33 148q0 51 14 98t38 87t54 71t62 55q-27 26 -47 54t-34 59.5t-21.5 68t-7.5 78.5q0 82 30.5 152.5t90 123t145.5 82t193 29.5q120 0 208.5 -25t146 -67t91 -91t53.5 -104l-280 -133q-14 33 -34.5 62t-46 51t-56.5 34.5t-64 12.5t-56.5 -8.5t-37 -23t-19.5 -33.5t-6 -41
q0 -30 21 -57t56.5 -51.5t53 -34t133.5 -70.5q66 -34 120.5 -68t105.5 -83.5t83.5 -116t32.5 -148.5q0 -52 -14.5 -99.5t-38.5 -87.5t-54 -71t-63 -55q25 -26 44 -54t32.5 -60t20 -68t6.5 -77q0 -82 -29 -152.5t-86.5 -123.5t-142 -82t-191.5 -29z" />
    <glyph glyph-name="dieresis" unicode="&#xa8;" horiz-adv-x="1106" 
d="M616 1198v358h328v-358h-328zM152 1198v358h327v-358h-327z" />
    <glyph glyph-name="copyright" unicode="&#xa9;" horiz-adv-x="1778" 
d="M885 -29q-165 0 -308.5 58.5t-250.5 165.5t-165.5 250.5t-58.5 308.5t60 309.5t168 252.5t253 168t310 60t308.5 -58.5t250 -165t165 -250t58.5 -308.5t-60 -310t-168 -253t-252.5 -168t-309.5 -60zM893 139q129 0 239.5 45t191 128t124 196t43.5 246q0 132 -44.5 246.5
t-126.5 199t-193.5 130.5t-241.5 46q-129 0 -239.5 -45t-191 -127.5t-124 -195.5t-43.5 -246t44.5 -247.5t126.5 -199t193.5 -130.5t241.5 -46zM881 317q-82 0 -149.5 28t-116 84t-75 139t-26.5 190q0 108 25.5 191t74.5 139t118.5 84t156.5 28q74 0 133.5 -19.5
t102.5 -55.5t70 -85.5t38 -109.5l-219 -58q-8 30 -17 51t-22.5 37t-33.5 24.5t-48 8.5q-33 0 -58 -16t-41.5 -46.5t-25 -74t-8.5 -98.5t8 -97.5t24.5 -72t41 -45t57.5 -15.5q28 0 48.5 8.5t35 26t24.5 43.5t17 62l225 -62q-19 -67 -46 -119t-69 -90t-102.5 -59t-142.5 -21z
" />
    <glyph glyph-name="ordfeminine" unicode="&#xaa;" horiz-adv-x="942" 
d="M412 940q25 0 45.5 4.5t37 11.5t28.5 15.5t22 17.5v109q-51 -1 -88 -9t-61.5 -21.5t-36 -31.5t-11.5 -41q0 -14 4.5 -24t13.5 -17t20.5 -10.5t25.5 -3.5zM291 731q-43 0 -82 12.5t-70 38t-49 64t-18 88.5q0 70 30 125t89 94t148 62t206 28v10q0 15 -4 26.5t-14 20t-26 13
t-40 4.5q-32 0 -64 -6.5t-62 -17.5t-57.5 -25.5t-52.5 -32.5l-116 160q29 26 65 49t84.5 42t111 30.5t136.5 11.5q84 0 144 -20t98.5 -59.5t56.5 -100t18 -142.5v-274q0 -36 1 -64t3 -50t6.5 -40.5t10.5 -32.5h-281q-4 13 -7 26t-5.5 27t-4 29t-1.5 31q-24 -31 -51 -54
t-58 -39.5t-67.5 -25t-77.5 -8.5z" />
    <glyph glyph-name="guillemotleft" unicode="&#xab;" horiz-adv-x="1391" 
d="M768 0h-381l-356 549l356 549h381l-338 -549zM1354 0h-381l-357 549l357 549h381l-338 -549z" />
    <glyph glyph-name="logicalnot" unicode="&#xac;" 
d="M1192 893v-705h-320v390h-733v315h1053z" />
    <glyph glyph-name="registered" unicode="&#xae;" horiz-adv-x="1067" 
d="M530 602q-99 0 -185 35t-150 99t-99 150t-35 185t36 185.5t101 151.5t152.5 100.5t186.5 35.5q98 0 184 -35t150 -99t99.5 -150t35.5 -185t-36 -185.5t-101 -151.5t-152.5 -100.5t-186.5 -35.5zM537 702q77 0 143 27t114 77t74.5 118t26.5 147t-27 148t-76.5 119.5
t-116.5 78t-145 27.5q-77 0 -143 -27t-114 -77t-74.5 -118t-26.5 -147q0 -80 26.5 -148.5t76 -119t116.5 -78t146 -27.5zM487 1096h52q18 0 31.5 3.5t22.5 10.5t13 17.5t4 25.5q0 14 -4 24.5t-13 18t-22.5 11t-31.5 3.5h-52v-114zM340 829v510h209q48 0 86 -10.5t64.5 -32.5
t40.5 -56t14 -79q0 -29 -6 -52.5t-16.5 -42t-26 -32t-35.5 -24.5l90 -181h-152l-78 162h-43v-162h-147z" />
    <glyph glyph-name="macron" unicode="&#xaf;" horiz-adv-x="1024" 
d="M152 1198v279h720v-279h-720z" />
    <glyph glyph-name="degree" unicode="&#xb0;" horiz-adv-x="860" 
d="M430 850q-74 0 -138.5 25t-112 71.5t-73.5 110t-26 137.5t26 138t73.5 110.5t112 72t138.5 25.5t138.5 -25t112 -71t73.5 -109t26 -137t-26 -138t-73.5 -111t-112 -73t-138.5 -26zM430 1032q33 0 59.5 11.5t46 33t29.5 52t10 67.5t-10 67t-29.5 51.5t-46 32.5t-59.5 11
t-59.5 -11t-46 -32.5t-29.5 -51.5t-10 -67t10 -67.5t29.5 -52t46 -33t59.5 -11.5z" />
    <glyph glyph-name="plusminus" unicode="&#xb1;" 
d="M139 0v291h371v291h-371v307h371v393h311v-393h371v-307h-371v-291h371v-291h-1053z" />
    <glyph glyph-name="two.sups" unicode="&#xb2;" horiz-adv-x="1006" 
d="M104 528v60q0 66 7.5 117.5t34 107t84 112.5t151.5 113q138 82 158 98t28 34t8 47q0 14 -4.5 24.5t-12.5 17t-20 10t-28 3.5q-19 0 -44 -8t-52.5 -25t-54.5 -43.5t-50 -62.5l-211 157q42 62 86 107.5t94.5 76t110 46.5t129.5 16q92 0 161 -21.5t114.5 -62t67.5 -98
t22 -129.5q0 -43 -10 -83t-37 -82t-76 -83.5t-123 -79.5q-41 -21 -69 -38.5t-45 -31.5t-26.5 -25.5t-17.5 -23.5h410v-250h-785z" />
    <glyph glyph-name="three.sups" unicode="&#xb3;" horiz-adv-x="1006" 
d="M494 512q-66 0 -127.5 13.5t-115.5 39t-99.5 63.5t-79.5 87l186 168q27 -33 54.5 -56t54 -36.5t51 -19t45.5 -5.5q35 0 59 6t37.5 17.5t19 26t5.5 32.5q0 24 -9.5 40.5t-28.5 26.5t-48.5 14.5t-71.5 4.5h-90v217h92q41 0 68 5.5t42 15t21 22t6 29.5q0 13 -5 22.5
t-15 16.5t-24 10.5t-32 3.5q-22 0 -45.5 -3t-52 -12.5t-60.5 -28t-65 -46.5l-162 198q45 40 95.5 69t104 47.5t107 27t107.5 8.5q86 0 153.5 -17.5t113.5 -52t70 -86t24 -118.5q0 -32 -7.5 -62t-24 -57t-43.5 -49t-65 -35q46 -14 79.5 -37t54.5 -52t30.5 -62.5t9.5 -69.5
q0 -82 -29.5 -144t-85 -102.5t-132.5 -60t-172 -19.5z" />
    <glyph glyph-name="acute" unicode="&#xb4;" horiz-adv-x="1024" 
d="M285 1212l190 371h389l-311 -371h-268z" />
    <glyph glyph-name="uni00B5" unicode="&#xb5;" horiz-adv-x="1307" 
d="M791 168q-17 -27 -41.5 -54t-58.5 -53t-78 -46t-97 -29v-398h-405v1510h405v-680q0 -29 5 -51t16 -37t28.5 -23t42.5 -8t49.5 6t47 16.5t43.5 24.5t43 31v721h405v-1098h-405v168z" />
    <glyph glyph-name="paragraph" unicode="&#xb6;" horiz-adv-x="1321" 
d="M834 -410h-263v1031q-120 2 -212.5 32.5t-156 87.5t-96 138.5t-32.5 185.5q0 94 31 176t91 144t148 96.5t199 34.5h712v-1926h-262v1629h-159v-1629z" />
    <glyph glyph-name="periodcentered" unicode="&#xb7;" horiz-adv-x="608" 
d="M526 520h-444v369h444v-369z" />
    <glyph glyph-name="cedilla" unicode="&#xb8;" horiz-adv-x="1024" 
d="M549 -420q-50 0 -97 5.5t-88.5 16t-76.5 24.5t-62 32l68 113q22 -15 50 -26.5t57.5 -19.5t59 -12t56.5 -4q18 0 33 3.5t26 11t17 18.5t6 25q0 13 -5 22.5t-13 15.5t-18 8.5t-21 2.5t-20.5 -2t-18.5 -5.5t-18.5 -9t-20.5 -14.5l-92 45l53 170h156l-21 -86q11 7 25.5 12.5
t32 9.5t38.5 6.5t45 2.5q30 0 57 -9.5t48 -28.5t33 -46t12 -62q0 -48 -23 -88.5t-64.5 -70t-96 -45t-117.5 -15.5z" />
    <glyph glyph-name="one.sups" unicode="&#xb9;" horiz-adv-x="821" 
d="M117 522v248h176v508q-19 -9 -40.5 -17.5t-44 -14.5t-45.5 -9.5t-44 -3.5v219q29 1 54.5 5t47.5 12t41 20t35 27h317v-746h152v-248h-649z" />
    <glyph glyph-name="ordmasculine" unicode="&#xba;" horiz-adv-x="985" 
d="M494 731q-76 0 -148 19.5t-132 65t-96 123.5t-36 191q0 114 36 193t96 124t131.5 64t148.5 19q76 0 147 -19t130.5 -64t95.5 -124t36 -193q0 -112 -36 -190.5t-95.5 -124t-131 -65t-146.5 -19.5zM494 928q34 0 58 14t38.5 40.5t21 62.5t6.5 83q0 45 -6 80.5t-20.5 62.5
t-38.5 41.5t-59 14.5t-59.5 -14t-39.5 -39.5t-21.5 -62t-6.5 -83.5q0 -44 6 -79.5t20.5 -63t39 -42.5t61.5 -15z" />
    <glyph glyph-name="guillemotright" unicode="&#xbb;" horiz-adv-x="1391" 
d="M418 0h-381l338 549l-338 549h381l356 -549zM1004 0h-381l338 549l-338 549h381l356 -549z" />
    <glyph glyph-name="onequarter" unicode="&#xbc;" horiz-adv-x="2271" 
d="M522 0l905 1516h345l-906 -1516h-344zM131 522v250h162v442q-16 -5 -34 -9t-37.5 -7t-42 -4.5t-46.5 -1.5v260q38 2 65 5.5t48.5 10.5t39 18t33.5 27h293v-741h140v-250h-621zM1729 0v193h-443v198l434 600h326v-559h154v-239h-154v-193h-317zM1573 412h176v254z" />
    <glyph glyph-name="onehalf" unicode="&#xbd;" horiz-adv-x="2333" 
d="M522 0l905 1516h345l-906 -1516h-344zM131 522v250h162v442q-16 -5 -34 -9t-37.5 -7t-42 -4.5t-46.5 -1.5v260q38 2 65 5.5t48.5 10.5t39 18t33.5 27h293v-741h140v-250h-621zM1438 0v59q0 65 8 116t35 105.5t83.5 112t149.5 117.5q122 76 144 93.5t33.5 38t11.5 48.5
q0 14 -5 24.5t-14 16.5t-21 9t-26 3q-17 0 -40.5 -8t-50.5 -24.5t-54 -43.5t-50 -63l-210 158q42 62 85.5 107.5t94 76t110 46.5t129.5 16q87 0 155.5 -21.5t115 -62.5t70.5 -98.5t24 -129.5q0 -42 -10 -82.5t-36 -82t-73 -83t-119 -79.5q-35 -19 -62 -36t-46 -32t-31 -27.5
t-18 -23.5h401v-250h-784z" />
    <glyph glyph-name="threequarters" unicode="&#xbe;" horiz-adv-x="2361" 
d="M612 0l906 1516h344l-906 -1516h-344zM1819 0v193h-443v198l434 600h326v-559h154v-239h-154v-193h-317zM494 512q-66 0 -127.5 13.5t-115.5 39t-99.5 63.5t-79.5 87l186 168q27 -33 54.5 -56t54 -36.5t51 -19t45.5 -5.5q35 0 59 6t37.5 17.5t19 26t5.5 32.5
q0 24 -9.5 40.5t-28.5 26.5t-48.5 14.5t-71.5 4.5h-90v217h92q41 0 68 5.5t42 15t21 22t6 29.5q0 13 -5 22.5t-15 16.5t-24 10.5t-32 3.5q-22 0 -45.5 -3t-52 -12.5t-60.5 -28t-65 -46.5l-162 198q45 40 95.5 69t104 47.5t107 27t107.5 8.5q86 0 153.5 -17.5t113.5 -52
t70 -86t24 -118.5q0 -32 -7.5 -62t-24 -57t-43.5 -49t-65 -35q46 -14 79.5 -37t54.5 -52t30.5 -62.5t9.5 -69.5q0 -82 -29.5 -144t-85 -102.5t-132.5 -60t-172 -19.5zM1663 412h176v254z" />
    <glyph glyph-name="questiondown" unicode="&#xbf;" horiz-adv-x="1264" 
d="M879 1167h-424v349h424v-349zM580 -29q-121 0 -215 28t-157 78.5t-94.5 119.5t-31.5 151q0 68 17.5 122.5t49 95t73 70.5t93.5 56q74 36 111.5 63.5t53 59t18 69t2.5 132.5h334q3 -22 4.5 -41.5t2.5 -37.5t1 -33.5v-41.5q0 -58 -18.5 -106t-50.5 -86t-72.5 -67.5
t-88.5 -53.5q-36 -18 -60.5 -35.5t-40.5 -36.5t-24 -42t-8 -52q0 -20 9.5 -37t27.5 -30t46 -20t63 -7q43 0 91.5 14t96 38t88.5 53.5t70 60.5l237 -230q-50 -53 -114.5 -99t-143.5 -81t-172.5 -54.5t-197.5 -19.5z" />
    <glyph glyph-name="Agrave" unicode="&#xc0;" horiz-adv-x="1495" 
d="M733 993l-145 -420h289l-140 420h-4zM393 0h-373l537 1522h381l537 -1522h-414l-92 283h-477zM645 1601l-311 371h389l190 -371h-268z" />
    <glyph glyph-name="Aacute" unicode="&#xc1;" horiz-adv-x="1495" 
d="M733 993l-145 -420h289l-140 420h-4zM393 0h-373l537 1522h381l537 -1522h-414l-92 283h-477zM582 1601l190 371h389l-311 -371h-268z" />
    <glyph glyph-name="Acircumflex" unicode="&#xc2;" horiz-adv-x="1495" 
d="M733 993l-145 -420h289l-140 420h-4zM393 0h-373l537 1522h381l537 -1522h-414l-92 283h-477zM350 1612l265 360h266l264 -360h-227l-172 131l-168 -131h-228z" />
    <glyph glyph-name="Atilde" unicode="&#xc3;" horiz-adv-x="1495" 
d="M733 993l-145 -420h289l-140 420h-4zM393 0h-373l537 1522h381l537 -1522h-414l-92 283h-477zM907 1577q-55 0 -94.5 15.5t-84 46.5t-64 42t-49.5 11q-20 0 -35.5 -6t-26.5 -19.5t-16.5 -34.5t-5.5 -51h-213q0 96 19 166t54.5 114.5t85 65.5t111.5 21q55 0 95 -15.5
t85 -46.5t64 -42t49 -11q20 0 35 6t26 19.5t17 34.5t6 50h213q0 -96 -19 -166t-55 -114t-85.5 -65t-111.5 -21z" />
    <glyph glyph-name="Adieresis" unicode="&#xc4;" horiz-adv-x="1495" 
d="M733 993l-145 -420h289l-140 420h-4zM393 0h-373l537 1522h381l537 -1522h-414l-92 283h-477zM811 1587v358h328v-358h-328zM347 1587v358h327v-358h-327z" />
    <glyph glyph-name="Aring" unicode="&#xc5;" horiz-adv-x="1495" 
d="M748 1526q19 0 35 6.5t28 19t18.5 29.5t6.5 37q0 19 -6.5 35.5t-18.5 28.5t-28 19t-35 7t-35.5 -7t-28.5 -19t-18.5 -28.5t-6.5 -35.5q0 -20 6.5 -37t18.5 -29.5t28.5 -19t35.5 -6.5zM588 573h289l-140 420h-4zM20 0l525 1487q-9 14 -15.5 29.5t-11.5 32t-7.5 34
t-2.5 35.5q0 50 18 93.5t50.5 75.5t76.5 50t95 18t94.5 -18t76 -50t50.5 -75.5t18 -93.5q0 -18 -2.5 -36t-7 -34.5t-11.5 -31.5t-16 -29l525 -1487h-414l-92 283h-477l-99 -283h-373z" />
    <glyph glyph-name="AE" unicode="&#xc6;" horiz-adv-x="2265" 
d="M1083 1169l-260 -467h262v467h-2zM432 0h-412l863 1516h1280v-340h-672v-246h479v-320h-479v-280h707v-330h-1113v406h-428z" />
    <glyph glyph-name="Ccedilla" unicode="&#xc7;" horiz-adv-x="1518" 
d="M795 -420q-50 0 -97 5.5t-88.5 16t-76.5 24.5t-62 32l68 113q22 -15 50 -26.5t57.5 -19.5t59 -12t56.5 -4q18 0 33 3.5t26 11t17 18.5t6 25q0 13 -5 22.5t-13 15.5t-18.5 8.5t-21.5 2.5t-20 -2t-18.5 -5.5t-18.5 -9.5t-20 -14l-93 45l48 147q-131 17 -239.5 71.5
t-188 150t-123 236t-43.5 323.5q0 202 55 352t152.5 246t226 142t276.5 46q150 0 262 -36t187 -101.5t121 -152t71 -193.5l-387 -115q-17 61 -37 106.5t-49 80t-71 54t-99 19.5q-75 0 -131.5 -30t-93.5 -87.5t-55.5 -140.5t-18.5 -190q0 -105 19 -190t57 -145t95 -92
t132 -32q59 0 103 18.5t75 54.5t53.5 89t41.5 127l387 -86q-28 -117 -75.5 -210.5t-121.5 -163.5t-180 -111t-246 -46l-14 -57q11 7 25.5 12.5t32 9.5t38.5 6.5t45 2.5q30 0 57 -9.5t48 -28.5t33 -46t12 -62q0 -48 -23 -88.5t-64.5 -70t-96 -45t-117.5 -15.5z" />
    <glyph glyph-name="Egrave" unicode="&#xc8;" horiz-adv-x="1321" 
d="M1257 0h-1116v1516h1082v-340h-672v-246h479v-320h-479v-280h706v-330zM618 1601l-311 371h389l190 -371h-268z" />
    <glyph glyph-name="Eacute" unicode="&#xc9;" horiz-adv-x="1321" 
d="M1257 0h-1116v1516h1082v-340h-672v-246h479v-320h-479v-280h706v-330zM453 1601l190 371h389l-311 -371h-268z" />
    <glyph glyph-name="Ecircumflex" unicode="&#xca;" horiz-adv-x="1321" 
d="M1257 0h-1116v1516h1082v-340h-672v-246h479v-320h-479v-280h706v-330zM282 1612l265 360h266l264 -360h-227l-172 131l-168 -131h-228z" />
    <glyph glyph-name="Edieresis" unicode="&#xcb;" horiz-adv-x="1321" 
d="M1257 0h-1116v1516h1082v-340h-672v-246h479v-320h-479v-280h706v-330zM751 1587v358h328v-358h-328zM287 1587v358h327v-358h-327z" />
    <glyph glyph-name="Igrave" unicode="&#xcc;" horiz-adv-x="717" 
d="M563 0h-409v1516h409v-1516zM256 1601l-311 371h389l190 -371h-268z" />
    <glyph glyph-name="Iacute" unicode="&#xcd;" horiz-adv-x="717" 
d="M563 0h-409v1516h409v-1516zM193 1601l190 371h389l-311 -371h-268z" />
    <glyph glyph-name="Icircumflex" unicode="&#xce;" horiz-adv-x="717" 
d="M563 0h-409v1516h409v-1516zM-39 1612l265 360h266l264 -360h-227l-172 131l-168 -131h-228z" />
    <glyph glyph-name="Idieresis" unicode="&#xcf;" horiz-adv-x="717" 
d="M563 0h-409v1516h409v-1516zM421 1587v358h328v-358h-328zM-43 1587v358h327v-358h-327z" />
    <glyph glyph-name="Eth" unicode="&#xd0;" horiz-adv-x="1542" 
d="M639 0h-498v614h-121v299h121v603h498q179 0 328 -38t263 -125.5t178.5 -235t64.5 -359.5q0 -210 -65.5 -357.5t-180 -235.5t-263.5 -126.5t-325 -38.5zM547 614v-284h115q116 0 193 24.5t122.5 76.5t65.5 133t20 200q0 109 -20 185t-66.5 126.5t-125 75.5t-194.5 25
h-110v-263h301v-299h-301z" />
    <glyph glyph-name="Ntilde" unicode="&#xd1;" horiz-adv-x="1620" 
d="M516 0h-375v1516h404l555 -850h4v850h375v-1516h-379l-580 848h-4v-848zM972 1577q-55 0 -94.5 15.5t-84 46.5t-64 42t-49.5 11q-20 0 -35.5 -6t-26.5 -19.5t-16.5 -34.5t-5.5 -51h-213q0 96 19 166t54.5 114.5t85 65.5t111.5 21q55 0 95 -15.5t85 -46.5t64 -42t49 -11
q20 0 35 6t26 19.5t17 34.5t6 50h213q0 -96 -19 -166t-55 -114t-85.5 -65t-111.5 -21z" />
    <glyph glyph-name="Ograve" unicode="&#xd2;" horiz-adv-x="1628" 
d="M815 -29q-142 0 -275 46.5t-239 143t-168.5 247t-62.5 350.5t62 350.5t168.5 247t239.5 142.5t275 46t274.5 -46t239 -142.5t168.5 -247t62 -350.5t-62 -350.5t-168.5 -247t-239 -143t-274.5 -46.5zM815 299q79 0 141.5 32t105.5 92.5t65 145.5t22 189t-22 187t-65 141.5
t-105.5 89t-141.5 30.5q-80 0 -142.5 -30.5t-106 -89t-65.5 -141.5t-22 -187t22 -189t65.5 -145.5t106 -92.5t142.5 -32zM752 1601l-311 371h389l190 -371h-268z" />
    <glyph glyph-name="Oacute" unicode="&#xd3;" horiz-adv-x="1628" 
d="M815 -29q-142 0 -275 46.5t-239 143t-168.5 247t-62.5 350.5t62 350.5t168.5 247t239.5 142.5t275 46t274.5 -46t239 -142.5t168.5 -247t62 -350.5t-62 -350.5t-168.5 -247t-239 -143t-274.5 -46.5zM815 299q79 0 141.5 32t105.5 92.5t65 145.5t22 189t-22 187t-65 141.5
t-105.5 89t-141.5 30.5q-80 0 -142.5 -30.5t-106 -89t-65.5 -141.5t-22 -187t22 -189t65.5 -145.5t106 -92.5t142.5 -32zM607 1601l190 371h389l-311 -371h-268z" />
    <glyph glyph-name="Ocircumflex" unicode="&#xd4;" horiz-adv-x="1628" 
d="M815 -29q-142 0 -275 46.5t-239 143t-168.5 247t-62.5 350.5t62 350.5t168.5 247t239.5 142.5t275 46t274.5 -46t239 -142.5t168.5 -247t62 -350.5t-62 -350.5t-168.5 -247t-239 -143t-274.5 -46.5zM815 299q79 0 141.5 32t105.5 92.5t65 145.5t22 189t-22 187t-65 141.5
t-105.5 89t-141.5 30.5q-80 0 -142.5 -30.5t-106 -89t-65.5 -141.5t-22 -187t22 -189t65.5 -145.5t106 -92.5t142.5 -32zM415 1612l265 360h266l264 -360h-227l-172 131l-168 -131h-228z" />
    <glyph glyph-name="Otilde" unicode="&#xd5;" horiz-adv-x="1628" 
d="M815 -29q-142 0 -275 46.5t-239 143t-168.5 247t-62.5 350.5t62 350.5t168.5 247t239.5 142.5t275 46t274.5 -46t239 -142.5t168.5 -247t62 -350.5t-62 -350.5t-168.5 -247t-239 -143t-274.5 -46.5zM815 299q79 0 141.5 32t105.5 92.5t65 145.5t22 189t-22 187t-65 141.5
t-105.5 89t-141.5 30.5q-80 0 -142.5 -30.5t-106 -89t-65.5 -141.5t-22 -187t22 -189t65.5 -145.5t106 -92.5t142.5 -32zM972 1577q-55 0 -94.5 15.5t-84 46.5t-64 42t-49.5 11q-20 0 -35.5 -6t-26.5 -19.5t-16.5 -34.5t-5.5 -51h-213q0 96 19 166t54.5 114.5t85 65.5
t111.5 21q55 0 95 -15.5t85 -46.5t64 -42t49 -11q20 0 35 6t26 19.5t17 34.5t6 50h213q0 -96 -19 -166t-55 -114t-85.5 -65t-111.5 -21z" />
    <glyph glyph-name="Odieresis" unicode="&#xd6;" horiz-adv-x="1628" 
d="M815 -29q-142 0 -275 46.5t-239 143t-168.5 247t-62.5 350.5t62 350.5t168.5 247t239.5 142.5t275 46t274.5 -46t239 -142.5t168.5 -247t62 -350.5t-62 -350.5t-168.5 -247t-239 -143t-274.5 -46.5zM815 299q79 0 141.5 32t105.5 92.5t65 145.5t22 189t-22 187t-65 141.5
t-105.5 89t-141.5 30.5q-80 0 -142.5 -30.5t-106 -89t-65.5 -141.5t-22 -187t22 -189t65.5 -145.5t106 -92.5t142.5 -32zM876 1587v358h328v-358h-328zM412 1587v358h327v-358h-327z" />
    <glyph glyph-name="multiply" unicode="&#xd7;" 
d="M666 432l-314 -313l-235 235l311 312l-311 307l235 235l312 -307l307 307l235 -235l-305 -305l311 -308l-235 -235z" />
    <glyph glyph-name="Oslash" unicode="&#xd8;" horiz-adv-x="1628" 
d="M492 565l520 584q-20 15 -42.5 27t-47 20t-51.5 12t-56 4q-81 0 -145.5 -31t-109.5 -90t-68 -143.5t-23 -189.5q0 -26 1.5 -51.5t4.5 -49.5t7 -47t10 -45zM1137 948l-523 -588q20 -16 43 -28.5t48 -21t52.5 -13t57.5 -4.5q80 0 144.5 32.5t109 93.5t67.5 147t23 192
q0 26 -1.5 51t-4.5 49t-7 46.5t-9 43.5zM1579 1434l-162 -183q34 -46 60 -99.5t44.5 -115t28 -131.5t9.5 -147q0 -200 -62 -350.5t-168.5 -247t-239 -143t-274.5 -46.5q-56 0 -112.5 7.5t-111.5 22.5t-107 38.5t-99 54.5l-147 -166l-189 154l162 180q-33 46 -59.5 99.5
t-44.5 115.5t-27.5 132.5t-9.5 148.5q0 200 62 350.5t168.5 247t239.5 142.5t275 46q57 0 113 -7.5t110.5 -22.5t106 -38.5t98.5 -54.5l148 166z" />
    <glyph glyph-name="Ugrave" unicode="&#xd9;" horiz-adv-x="1493" 
d="M748 -23q-164 0 -285 41.5t-199 122.5t-115.5 198t-37.5 269v908h409v-906q0 -79 13.5 -136t41.5 -94t71.5 -55t105.5 -18q61 0 104.5 18t71 55t40.5 94t13 136v906h401v-908q0 -152 -37.5 -269t-115 -198t-197.5 -122.5t-284 -41.5zM684 1601l-311 371h389l190 -371
h-268z" />
    <glyph glyph-name="Uacute" unicode="&#xda;" horiz-adv-x="1493" 
d="M748 -23q-164 0 -285 41.5t-199 122.5t-115.5 198t-37.5 269v908h409v-906q0 -79 13.5 -136t41.5 -94t71.5 -55t105.5 -18q61 0 104.5 18t71 55t40.5 94t13 136v906h401v-908q0 -152 -37.5 -269t-115 -198t-197.5 -122.5t-284 -41.5zM518 1601l190 371h389l-311 -371
h-268z" />
    <glyph glyph-name="Ucircumflex" unicode="&#xdb;" horiz-adv-x="1493" 
d="M748 -23q-164 0 -285 41.5t-199 122.5t-115.5 198t-37.5 269v908h409v-906q0 -79 13.5 -136t41.5 -94t71.5 -55t105.5 -18q61 0 104.5 18t71 55t40.5 94t13 136v906h401v-908q0 -152 -37.5 -269t-115 -198t-197.5 -122.5t-284 -41.5zM348 1612l265 360h266l264 -360h-227
l-172 131l-168 -131h-228z" />
    <glyph glyph-name="Udieresis" unicode="&#xdc;" horiz-adv-x="1493" 
d="M748 -23q-164 0 -285 41.5t-199 122.5t-115.5 198t-37.5 269v908h409v-906q0 -79 13.5 -136t41.5 -94t71.5 -55t105.5 -18q61 0 104.5 18t71 55t40.5 94t13 136v906h401v-908q0 -152 -37.5 -269t-115 -198t-197.5 -122.5t-284 -41.5zM809 1587v358h328v-358h-328z
M345 1587v358h327v-358h-327z" />
    <glyph glyph-name="Yacute" unicode="&#xdd;" horiz-adv-x="1477" 
d="M942 0h-410v633l-528 883h422l313 -537l316 537h418l-531 -883v-633zM531 1601l190 371h389l-311 -371h-268z" />
    <glyph glyph-name="Thorn" unicode="&#xde;" horiz-adv-x="1413" 
d="M551 0h-410v1516h410v-205h149q137 0 251.5 -21t208 -77.5t149 -162t55.5 -266.5q0 -160 -58.5 -265t-155 -161.5t-210 -78t-240.5 -21.5h-149v-258zM551 971v-393h156q69 0 116 14t74.5 40t39 61t11.5 81t-11.5 81.5t-39 61.5t-74.5 40t-116 14h-156z" />
    <glyph glyph-name="germandbls" unicode="&#xdf;" horiz-adv-x="1458" 
d="M969 -23q-84 0 -153.5 14t-121.5 36t-87.5 47.5t-59.5 50.5l172 211q19 -16 42 -29.5t49.5 -23.5t55.5 -15.5t58 -5.5q34 0 59.5 10.5t43 29.5t26 44.5t8.5 54.5q0 67 -34 109.5t-92 64.5t-130 30t-170 11v267q81 0 134 14t81.5 39t39.5 60t11 81q0 26 -10.5 51.5
t-32.5 46.5t-55.5 33.5t-77.5 12.5q-54 0 -93.5 -12.5t-66.5 -40t-41 -73t-14 -110.5v-985h-399v977q0 143 43 246t122.5 167.5t189.5 95t247 30.5q129 0 233 -26.5t177.5 -78.5t112 -127t38.5 -170q0 -65 -21.5 -118t-58 -91.5t-82 -65.5t-96.5 -44q75 -7 149 -34t135 -74
t97.5 -115t36.5 -154q0 -109 -33 -192.5t-95 -138.5t-147 -82.5t-190 -27.5z" />
    <glyph glyph-name="agrave" unicode="&#xe0;" horiz-adv-x="1206" 
d="M520 285q36 0 66.5 5t53.5 13.5t41 20t32 24.5v156q-73 -2 -126.5 -12.5t-88.5 -29t-51.5 -43.5t-16.5 -57q0 -19 6.5 -34t19 -24.5t29 -14t35.5 -4.5zM348 -16q-61 0 -117 19t-100.5 57.5t-70 97.5t-25.5 137q0 92 42.5 166t127.5 127t212.5 84t295.5 39v14
q0 21 -6 37.5t-20 29t-37.5 19t-57.5 6.5q-46 0 -92 -9t-89 -25t-82 -37.5t-75 -47.5l-166 230q42 37 94 70t121 60.5t157.5 43.5t194.5 16q121 0 207 -28.5t140.5 -85.5t80 -143t25.5 -204v-391q0 -50 1.5 -90t5.5 -72t9.5 -57.5t14.5 -46.5h-402q-5 18 -9.5 36t-8 38
t-5 41.5t-1.5 44.5q-34 -43 -72.5 -75.5t-83.5 -55t-97 -34t-112 -11.5zM541 1212l-311 371h389l190 -371h-268z" />
    <glyph glyph-name="aacute" unicode="&#xe1;" horiz-adv-x="1206" 
d="M520 285q36 0 66.5 5t53.5 13.5t41 20t32 24.5v156q-73 -2 -126.5 -12.5t-88.5 -29t-51.5 -43.5t-16.5 -57q0 -19 6.5 -34t19 -24.5t29 -14t35.5 -4.5zM348 -16q-61 0 -117 19t-100.5 57.5t-70 97.5t-25.5 137q0 92 42.5 166t127.5 127t212.5 84t295.5 39v14
q0 21 -6 37.5t-20 29t-37.5 19t-57.5 6.5q-46 0 -92 -9t-89 -25t-82 -37.5t-75 -47.5l-166 230q42 37 94 70t121 60.5t157.5 43.5t194.5 16q121 0 207 -28.5t140.5 -85.5t80 -143t25.5 -204v-391q0 -50 1.5 -90t5.5 -72t9.5 -57.5t14.5 -46.5h-402q-5 18 -9.5 36t-8 38
t-5 41.5t-1.5 44.5q-34 -43 -72.5 -75.5t-83.5 -55t-97 -34t-112 -11.5zM396 1212l190 371h389l-311 -371h-268z" />
    <glyph glyph-name="acircumflex" unicode="&#xe2;" horiz-adv-x="1206" 
d="M520 285q36 0 66.5 5t53.5 13.5t41 20t32 24.5v156q-73 -2 -126.5 -12.5t-88.5 -29t-51.5 -43.5t-16.5 -57q0 -19 6.5 -34t19 -24.5t29 -14t35.5 -4.5zM348 -16q-61 0 -117 19t-100.5 57.5t-70 97.5t-25.5 137q0 92 42.5 166t127.5 127t212.5 84t295.5 39v14
q0 21 -6 37.5t-20 29t-37.5 19t-57.5 6.5q-46 0 -92 -9t-89 -25t-82 -37.5t-75 -47.5l-166 230q42 37 94 70t121 60.5t157.5 43.5t194.5 16q121 0 207 -28.5t140.5 -85.5t80 -143t25.5 -204v-391q0 -50 1.5 -90t5.5 -72t9.5 -57.5t14.5 -46.5h-402q-5 18 -9.5 36t-8 38
t-5 41.5t-1.5 44.5q-34 -43 -72.5 -75.5t-83.5 -55t-97 -34t-112 -11.5zM204 1223l265 360h266l264 -360h-227l-172 131l-168 -131h-228z" />
    <glyph glyph-name="atilde" unicode="&#xe3;" horiz-adv-x="1206" 
d="M520 285q36 0 66.5 5t53.5 13.5t41 20t32 24.5v156q-73 -2 -126.5 -12.5t-88.5 -29t-51.5 -43.5t-16.5 -57q0 -19 6.5 -34t19 -24.5t29 -14t35.5 -4.5zM348 -16q-61 0 -117 19t-100.5 57.5t-70 97.5t-25.5 137q0 92 42.5 166t127.5 127t212.5 84t295.5 39v14
q0 21 -6 37.5t-20 29t-37.5 19t-57.5 6.5q-46 0 -92 -9t-89 -25t-82 -37.5t-75 -47.5l-166 230q42 37 94 70t121 60.5t157.5 43.5t194.5 16q121 0 207 -28.5t140.5 -85.5t80 -143t25.5 -204v-391q0 -50 1.5 -90t5.5 -72t9.5 -57.5t14.5 -46.5h-402q-5 18 -9.5 36t-8 38
t-5 41.5t-1.5 44.5q-34 -43 -72.5 -75.5t-83.5 -55t-97 -34t-112 -11.5zM761 1188q-55 0 -94.5 15.5t-84 46.5t-64 42t-49.5 11q-20 0 -35.5 -6t-26.5 -19.5t-16.5 -34.5t-5.5 -51h-213q0 96 19 166t54.5 114.5t85 65.5t111.5 21q55 0 95 -15.5t85 -46.5t64 -42t49 -11
q20 0 35 6t26 19.5t17 34.5t6 50h213q0 -96 -19 -166t-55 -114t-85.5 -65t-111.5 -21z" />
    <glyph glyph-name="adieresis" unicode="&#xe4;" horiz-adv-x="1206" 
d="M520 285q36 0 66.5 5t53.5 13.5t41 20t32 24.5v156q-73 -2 -126.5 -12.5t-88.5 -29t-51.5 -43.5t-16.5 -57q0 -19 6.5 -34t19 -24.5t29 -14t35.5 -4.5zM348 -16q-61 0 -117 19t-100.5 57.5t-70 97.5t-25.5 137q0 92 42.5 166t127.5 127t212.5 84t295.5 39v14
q0 21 -6 37.5t-20 29t-37.5 19t-57.5 6.5q-46 0 -92 -9t-89 -25t-82 -37.5t-75 -47.5l-166 230q42 37 94 70t121 60.5t157.5 43.5t194.5 16q121 0 207 -28.5t140.5 -85.5t80 -143t25.5 -204v-391q0 -50 1.5 -90t5.5 -72t9.5 -57.5t14.5 -46.5h-402q-5 18 -9.5 36t-8 38
t-5 41.5t-1.5 44.5q-34 -43 -72.5 -75.5t-83.5 -55t-97 -34t-112 -11.5zM665 1198v358h328v-358h-328zM201 1198v358h327v-358h-327z" />
    <glyph glyph-name="aring" unicode="&#xe5;" horiz-adv-x="1206" 
d="M520 285q36 0 66.5 5t53.5 13.5t41 20t32 24.5v156q-73 -2 -126.5 -12.5t-88.5 -29t-51.5 -43.5t-16.5 -57q0 -19 6.5 -34t19 -24.5t29 -14t35.5 -4.5zM348 -16q-61 0 -117 19t-100.5 57.5t-70 97.5t-25.5 137q0 92 42.5 166t127.5 127t212.5 84t295.5 39v14
q0 21 -6 37.5t-20 29t-37.5 19t-57.5 6.5q-46 0 -92 -9t-89 -25t-82 -37.5t-75 -47.5l-166 230q42 37 94 70t121 60.5t157.5 43.5t194.5 16q121 0 207 -28.5t140.5 -85.5t80 -143t25.5 -204v-391q0 -50 1.5 -90t5.5 -72t9.5 -57.5t14.5 -46.5h-402q-5 18 -9.5 36t-8 38
t-5 41.5t-1.5 44.5q-34 -43 -72.5 -75.5t-83.5 -55t-97 -34t-112 -11.5zM602 1194q-51 0 -95 18t-76.5 50.5t-50.5 76.5t-18 95q0 50 18 93.5t50.5 75.5t76.5 50t95 18t95 -18t76.5 -50t50.5 -75.5t18 -93.5q0 -51 -18 -95t-50.5 -76.5t-76.5 -50.5t-95 -18zM602 1341
q19 0 35 6.5t28 19t18.5 29.5t6.5 38q0 19 -6.5 35.5t-18.5 28.5t-28 19t-35 7t-35 -7t-28 -19t-18.5 -28.5t-6.5 -35.5q0 -21 6.5 -38t18.5 -29.5t28 -19t35 -6.5z" />
    <glyph glyph-name="ae" unicode="&#xe6;" horiz-adv-x="1837" 
d="M348 -18q-61 0 -117 19t-100.5 57.5t-70 97.5t-25.5 137q0 92 42.5 166t127.5 127.5t212.5 85t295.5 39.5v14q0 21 -6 37.5t-20 29t-37.5 19t-57.5 6.5q-46 0 -92 -9t-89 -25t-82 -37.5t-75 -47.5l-166 230q42 37 94 70t121 60.5t157.5 43.5t194.5 16q55 0 103 -7
t87.5 -20.5t70 -32t51.5 -40.5q27 24 62.5 42.5t75 31.5t79.5 19.5t76 6.5q100 0 189.5 -23.5t166.5 -89t124.5 -191.5t47.5 -320v-62h-703q8 -52 26 -86.5t46 -53.5t64 -26.5t84 -7.5q41 0 85 8.5t86 22.5t78.5 31t65.5 34l145 -245q-52 -34 -109.5 -59t-119.5 -41
t-127.5 -24t-134.5 -8q-78 0 -147 11.5t-130.5 37t-112 67.5t-87.5 102q-49 -61 -102.5 -102.5t-109.5 -65.5t-114.5 -34.5t-122.5 -10.5zM1090 664h340q-6 48 -20 80.5t-35.5 51.5t-50.5 27t-67 8q-31 0 -57 -9t-47.5 -28.5t-37.5 -52t-25 -77.5zM520 279q32 0 60 4.5
t53.5 14.5t49.5 25.5t48 38.5q0 1 -3 14.5t-4.5 23.5t-3.5 20.5t-3 21.5l-1.5 18t-1 13.5t-1 15.5t-0.5 15q-74 -2 -128 -13.5t-88 -31.5t-50.5 -46t-16.5 -57q0 -19 6.5 -34t19 -24.5t29 -14t35.5 -4.5z" />
    <glyph glyph-name="ccedilla" unicode="&#xe7;" horiz-adv-x="1176" 
d="M625 -420q-50 0 -97 5.5t-88.5 16t-76.5 24.5t-62 32l68 113q22 -15 50 -26.5t57.5 -19.5t59 -12t56.5 -4q18 0 33 3.5t26 11t17 18.5t6 25q0 13 -5 22.5t-13 15.5t-18.5 8.5t-21.5 2.5t-20 -2t-18.5 -5.5t-18.5 -9.5t-20 -14l-93 45l52 164q-91 13 -170 48.5t-141.5 100
t-99 165.5t-36.5 239q0 162 53 275t139 177.5t185.5 91.5t200.5 27q116 0 201.5 -27.5t143 -75t94 -108.5t62.5 -137l-339 -106q-13 49 -30 81t-37.5 50t-44.5 25t-54 7q-45 0 -77 -19.5t-52 -56t-29.5 -88.5t-9.5 -118q0 -65 7 -116t25 -89.5t50.5 -60t81.5 -21.5
q27 0 52 8t49 27.5t44 54.5t33 86l336 -112q-25 -65 -63.5 -121.5t-96 -103.5t-139 -76.5t-185.5 -34.5l-16 -72q11 7 25.5 12.5t32 9.5t38.5 6.5t45 2.5q30 0 57 -9.5t48 -28.5t33 -46t12 -62q0 -48 -23 -88.5t-64.5 -70t-96 -45t-117.5 -15.5z" />
    <glyph glyph-name="egrave" unicode="&#xe8;" horiz-adv-x="1206" 
d="M643 -23q-121 0 -225.5 28t-187.5 93.5t-131 177t-48 271.5q0 156 55.5 267.5t143.5 178t187.5 96t191.5 29.5q96 0 185 -23.5t167 -89t127 -191.5t49 -320v-62h-702q7 -52 25.5 -87t46 -55t64 -28t83.5 -8q41 0 85 9t86 24t78.5 32.5t65.5 34.5l146 -245
q-52 -34 -109.5 -59t-120 -41t-128 -24t-134.5 -8zM459 664h340q-6 48 -20 81.5t-35.5 53.5t-50.5 28.5t-66 8.5q-31 0 -57.5 -9.5t-48 -30.5t-37.5 -54t-25 -78zM541 1212l-311 371h389l190 -371h-268z" />
    <glyph glyph-name="eacute" unicode="&#xe9;" horiz-adv-x="1206" 
d="M643 -23q-121 0 -225.5 28t-187.5 93.5t-131 177t-48 271.5q0 156 55.5 267.5t143.5 178t187.5 96t191.5 29.5q96 0 185 -23.5t167 -89t127 -191.5t49 -320v-62h-702q7 -52 25.5 -87t46 -55t64 -28t83.5 -8q41 0 85 9t86 24t78.5 32.5t65.5 34.5l146 -245
q-52 -34 -109.5 -59t-120 -41t-128 -24t-134.5 -8zM459 664h340q-6 48 -20 81.5t-35.5 53.5t-50.5 28.5t-66 8.5q-31 0 -57.5 -9.5t-48 -30.5t-37.5 -54t-25 -78zM396 1212l190 371h389l-311 -371h-268z" />
    <glyph glyph-name="ecircumflex" unicode="&#xea;" horiz-adv-x="1206" 
d="M643 -23q-121 0 -225.5 28t-187.5 93.5t-131 177t-48 271.5q0 156 55.5 267.5t143.5 178t187.5 96t191.5 29.5q96 0 185 -23.5t167 -89t127 -191.5t49 -320v-62h-702q7 -52 25.5 -87t46 -55t64 -28t83.5 -8q41 0 85 9t86 24t78.5 32.5t65.5 34.5l146 -245
q-52 -34 -109.5 -59t-120 -41t-128 -24t-134.5 -8zM459 664h340q-6 48 -20 81.5t-35.5 53.5t-50.5 28.5t-66 8.5q-31 0 -57.5 -9.5t-48 -30.5t-37.5 -54t-25 -78zM204 1223l265 360h266l264 -360h-227l-172 131l-168 -131h-228z" />
    <glyph glyph-name="edieresis" unicode="&#xeb;" horiz-adv-x="1206" 
d="M643 -23q-121 0 -225.5 28t-187.5 93.5t-131 177t-48 271.5q0 156 55.5 267.5t143.5 178t187.5 96t191.5 29.5q96 0 185 -23.5t167 -89t127 -191.5t49 -320v-62h-702q7 -52 25.5 -87t46 -55t64 -28t83.5 -8q41 0 85 9t86 24t78.5 32.5t65.5 34.5l146 -245
q-52 -34 -109.5 -59t-120 -41t-128 -24t-134.5 -8zM459 664h340q-6 48 -20 81.5t-35.5 53.5t-50.5 28.5t-66 8.5q-31 0 -57.5 -9.5t-48 -30.5t-37.5 -54t-25 -78zM665 1198v358h328v-358h-328zM201 1198v358h327v-358h-327z" />
    <glyph glyph-name="igrave" unicode="&#xec;" horiz-adv-x="647" 
d="M526 0h-405v1098h405v-1098zM201 1212l-311 371h389l190 -371h-268z" />
    <glyph glyph-name="iacute" unicode="&#xed;" horiz-adv-x="647" 
d="M526 0h-405v1098h405v-1098zM170 1212l190 371h389l-311 -371h-268z" />
    <glyph glyph-name="icircumflex" unicode="&#xee;" horiz-adv-x="647" 
d="M526 0h-405v1098h405v-1098zM-74 1223l265 360h266l264 -360h-227l-172 131l-168 -131h-228z" />
    <glyph glyph-name="idieresis" unicode="&#xef;" horiz-adv-x="647" 
d="M526 0h-405v1098h405v-1098zM387 1198v358h328v-358h-328zM-77 1198v358h327v-358h-327z" />
    <glyph glyph-name="eth" unicode="&#xf0;" horiz-adv-x="1270" 
d="M635 -23q-127 0 -234 33t-184.5 97.5t-119.5 157.5t-42 210q0 122 37.5 216.5t104 157.5t152 94.5t181.5 31.5q29 0 65 -5t76 -17t78.5 -32.5t67.5 -50.5q-6 30 -14.5 59.5t-19.5 57t-23.5 53.5t-26.5 52l-127 -72l-114 199l104 59q-14 15 -27 28l-26 26t-26.5 25.5
t-27.5 24.5l191 211q27 -19 52 -37.5t48.5 -38t45.5 -40t42 -41.5l150 86l115 -199l-119 -70q51 -79 89 -165.5t62.5 -177t36.5 -183.5t12 -188q0 -133 -42 -238t-119.5 -177.5t-183.5 -109.5t-234 -37zM635 258q41 0 73 13t55 40t35.5 69.5t12.5 100.5q0 57 -12.5 100
t-36 71t-55.5 41.5t-72 13.5q-41 0 -73 -13.5t-55.5 -41.5t-35.5 -71.5t-12 -101.5t12.5 -100t35.5 -69t55.5 -39.5t72.5 -12.5z" />
    <glyph glyph-name="ntilde" unicode="&#xf1;" horiz-adv-x="1296" 
d="M170 0v1098h405v-170q20 32 51 64.5t76.5 61t105.5 46.5t132 18q67 0 124 -17t100 -54.5t67 -99t24 -146.5v-801h-405v668q0 29 -5 50.5t-16 36.5t-29 23t-43 8t-49 -6t-47 -16t-44 -24t-42 -31v-709h-405zM806 1188q-55 0 -94.5 15.5t-84 46.5t-64 42t-49.5 11
q-20 0 -35.5 -6t-26.5 -19.5t-16.5 -34.5t-5.5 -51h-213q0 96 19 166t54.5 114.5t85 65.5t111.5 21q55 0 95 -15.5t85 -46.5t64 -42t49 -11q20 0 35 6t26 19.5t17 34.5t6 50h213q0 -96 -19 -166t-55 -114t-85.5 -65t-111.5 -21z" />
    <glyph glyph-name="ograve" unicode="&#xf2;" horiz-adv-x="1274" 
d="M637 -23q-108 0 -210 27.5t-187.5 92.5t-137 177t-51.5 273q0 163 51.5 275.5t136.5 177t187 91.5t211 27t210.5 -27t187 -91.5t137 -177t51.5 -275.5q0 -161 -51.5 -273t-137 -177t-187.5 -92.5t-210 -27.5zM637 258q49 0 83.5 20t56 57.5t31 90t9.5 119.5q0 63 -9 114
t-29.5 88.5t-55.5 58.5t-86 21q-49 0 -83.5 -19.5t-56 -56t-31 -88.5t-9.5 -118q0 -64 9 -115t29 -90t55.5 -60.5t86.5 -21.5zM575 1212l-311 371h389l190 -371h-268z" />
    <glyph glyph-name="oacute" unicode="&#xf3;" horiz-adv-x="1274" 
d="M637 -23q-108 0 -210 27.5t-187.5 92.5t-137 177t-51.5 273q0 163 51.5 275.5t136.5 177t187 91.5t211 27t210.5 -27t187 -91.5t137 -177t51.5 -275.5q0 -161 -51.5 -273t-137 -177t-187.5 -92.5t-210 -27.5zM637 258q49 0 83.5 20t56 57.5t31 90t9.5 119.5q0 63 -9 114
t-29.5 88.5t-55.5 58.5t-86 21q-49 0 -83.5 -19.5t-56 -56t-31 -88.5t-9.5 -118q0 -64 9 -115t29 -90t55.5 -60.5t86.5 -21.5zM430 1212l190 371h389l-311 -371h-268z" />
    <glyph glyph-name="ocircumflex" unicode="&#xf4;" horiz-adv-x="1274" 
d="M637 -23q-108 0 -210 27.5t-187.5 92.5t-137 177t-51.5 273q0 163 51.5 275.5t136.5 177t187 91.5t211 27t210.5 -27t187 -91.5t137 -177t51.5 -275.5q0 -161 -51.5 -273t-137 -177t-187.5 -92.5t-210 -27.5zM637 258q49 0 83.5 20t56 57.5t31 90t9.5 119.5q0 63 -9 114
t-29.5 88.5t-55.5 58.5t-86 21q-49 0 -83.5 -19.5t-56 -56t-31 -88.5t-9.5 -118q0 -64 9 -115t29 -90t55.5 -60.5t86.5 -21.5zM239 1223l265 360h266l264 -360h-227l-172 131l-168 -131h-228z" />
    <glyph glyph-name="otilde" unicode="&#xf5;" horiz-adv-x="1274" 
d="M637 -23q-108 0 -210 27.5t-187.5 92.5t-137 177t-51.5 273q0 163 51.5 275.5t136.5 177t187 91.5t211 27t210.5 -27t187 -91.5t137 -177t51.5 -275.5q0 -161 -51.5 -273t-137 -177t-187.5 -92.5t-210 -27.5zM637 258q49 0 83.5 20t56 57.5t31 90t9.5 119.5q0 63 -9 114
t-29.5 88.5t-55.5 58.5t-86 21q-49 0 -83.5 -19.5t-56 -56t-31 -88.5t-9.5 -118q0 -64 9 -115t29 -90t55.5 -60.5t86.5 -21.5zM796 1188q-55 0 -94.5 15.5t-84 46.5t-64 42t-49.5 11q-20 0 -35.5 -6t-26.5 -19.5t-16.5 -34.5t-5.5 -51h-213q0 96 19 166t54.5 114.5t85 65.5
t111.5 21q55 0 95 -15.5t85 -46.5t64 -42t49 -11q20 0 35 6t26 19.5t17 34.5t6 50h213q0 -96 -19 -166t-55 -114t-85.5 -65t-111.5 -21z" />
    <glyph glyph-name="odieresis" unicode="&#xf6;" horiz-adv-x="1274" 
d="M637 -23q-108 0 -210 27.5t-187.5 92.5t-137 177t-51.5 273q0 163 51.5 275.5t136.5 177t187 91.5t211 27t210.5 -27t187 -91.5t137 -177t51.5 -275.5q0 -161 -51.5 -273t-137 -177t-187.5 -92.5t-210 -27.5zM637 258q49 0 83.5 20t56 57.5t31 90t9.5 119.5q0 63 -9 114
t-29.5 88.5t-55.5 58.5t-86 21q-49 0 -83.5 -19.5t-56 -56t-31 -88.5t-9.5 -118q0 -64 9 -115t29 -90t55.5 -60.5t86.5 -21.5zM700 1198v358h328v-358h-328zM236 1198v358h327v-358h-327z" />
    <glyph glyph-name="divide" unicode="&#xf7;" 
d="M825 1010h-319v270h319v-270zM1192 578h-1053v315h1053v-315zM825 186h-319v271h319v-271z" />
    <glyph glyph-name="oslash" unicode="&#xf8;" horiz-adv-x="1274" 
d="M449 485l303 310q-11 9 -23.5 16.5t-27 12.5t-30.5 7.5t-34 2.5q-50 0 -86.5 -20t-59.5 -57.5t-34 -90.5t-11 -121v-17t0.5 -14.5t1 -14.5t1.5 -14zM825 590l-297 -303q11 -9 23 -15.5t25.5 -11t28.5 -6.5t32 -2q50 0 86.5 20.5t59.5 58.5t33.5 92t10.5 122v12v10.5
t-0.5 11.5t-1.5 11zM1253 1016l-120 -125q21 -32 37.5 -69t28.5 -80t18 -92t6 -103q0 -161 -51.5 -273t-137 -177t-187.5 -92.5t-210 -27.5q-42 0 -83.5 4t-83.5 13t-82 23.5t-77 33.5l-141 -143l-150 149l130 133q-23 33 -41 71t-31 82t-20 95.5t-7 108.5q0 163 51.5 275.5
t136.5 177t187 91.5t211 27q44 0 88 -4.5t87.5 -14t86 -25t80.5 -38.5l125 129z" />
    <glyph glyph-name="ugrave" unicode="&#xf9;" horiz-adv-x="1296" 
d="M416 -23q-67 0 -124 17t-100 54.5t-67.5 99t-24.5 147.5v803h406v-680q0 -29 5 -51t16 -37t28.5 -23t42.5 -8t49.5 6t47 16.5t43.5 24.5t42 31v721h406v-1098h-406v168q-20 -32 -51 -64.5t-76 -61.5t-105 -47t-132 -18zM586 1212l-311 371h389l190 -371h-268z" />
    <glyph glyph-name="uacute" unicode="&#xfa;" horiz-adv-x="1296" 
d="M416 -23q-67 0 -124 17t-100 54.5t-67.5 99t-24.5 147.5v803h406v-680q0 -29 5 -51t16 -37t28.5 -23t42.5 -8t49.5 6t47 16.5t43.5 24.5t42 31v721h406v-1098h-406v168q-20 -32 -51 -64.5t-76 -61.5t-105 -47t-132 -18zM420 1212l190 371h389l-311 -371h-268z" />
    <glyph glyph-name="ucircumflex" unicode="&#xfb;" horiz-adv-x="1296" 
d="M416 -23q-67 0 -124 17t-100 54.5t-67.5 99t-24.5 147.5v803h406v-680q0 -29 5 -51t16 -37t28.5 -23t42.5 -8t49.5 6t47 16.5t43.5 24.5t42 31v721h406v-1098h-406v168q-20 -32 -51 -64.5t-76 -61.5t-105 -47t-132 -18zM243 1223l265 360h266l264 -360h-227l-172 131
l-168 -131h-228z" />
    <glyph glyph-name="udieresis" unicode="&#xfc;" horiz-adv-x="1296" 
d="M416 -23q-67 0 -124 17t-100 54.5t-67.5 99t-24.5 147.5v803h406v-680q0 -29 5 -51t16 -37t28.5 -23t42.5 -8t49.5 6t47 16.5t43.5 24.5t42 31v721h406v-1098h-406v168q-20 -32 -51 -64.5t-76 -61.5t-105 -47t-132 -18zM704 1198v358h328v-358h-328zM240 1198v358h327
v-358h-327z" />
    <glyph glyph-name="yacute" unicode="&#xfd;" horiz-adv-x="1176" 
d="M336 -420q-69 0 -126.5 4t-101 11t-75 14t-62.5 16l84 312q16 -5 37.5 -10t52 -10.5t67 -9t75.5 -3.5q20 0 36 3t29 10t22.5 19.5t16.5 30.5l10 27l-417 1104h415l203 -627h4l203 627h391l-459 -1209q-28 -74 -63 -130t-83 -96t-112.5 -61.5t-146.5 -21.5zM381 1212
l190 371h389l-311 -371h-268z" />
    <glyph glyph-name="thorn" unicode="&#xfe;" horiz-adv-x="1303" 
d="M684 285q44 0 75.5 18.5t50.5 53t27.5 82t8.5 108.5q0 54 -7.5 97t-26 75t-51 49.5t-81.5 17.5q-23 0 -46.5 -7t-45.5 -19t-40.5 -25.5t-31.5 -27.5v-353q21 -19 40 -32t38.5 -21t41.5 -12t48 -4zM516 -410h-405v1926h405v-588q27 40 58.5 73.5t71 60t89 41.5t107.5 15
q93 0 168.5 -36t129.5 -108t82.5 -179t28.5 -246t-29 -245.5t-83.5 -177.5t-130.5 -106.5t-170 -35.5q-55 0 -101.5 8.5t-86 25.5t-72.5 42t-62 59v-529z" />
    <glyph glyph-name="ydieresis" unicode="&#xff;" horiz-adv-x="1176" 
d="M336 -420q-69 0 -126.5 4t-101 11t-75 14t-62.5 16l84 312q16 -5 37.5 -10t52 -10.5t67 -9t75.5 -3.5q20 0 36 3t29 10t22.5 19.5t16.5 30.5l10 27l-417 1104h415l203 -627h4l203 627h391l-459 -1209q-28 -74 -63 -130t-83 -96t-112.5 -61.5t-146.5 -21.5zM667 1198v358
h328v-358h-328zM203 1198v358h327v-358h-327z" />
    <glyph glyph-name="Amacron" unicode="&#x100;" horiz-adv-x="1495" 
d="M733 993l-145 -420h289l-140 420h-4zM393 0h-373l537 1522h381l537 -1522h-414l-92 283h-477zM388 1587v279h720v-279h-720z" />
    <glyph glyph-name="amacron" unicode="&#x101;" horiz-adv-x="1206" 
d="M520 285q36 0 66.5 5t53.5 13.5t41 20t32 24.5v156q-73 -2 -126.5 -12.5t-88.5 -29t-51.5 -43.5t-16.5 -57q0 -19 6.5 -34t19 -24.5t29 -14t35.5 -4.5zM348 -16q-61 0 -117 19t-100.5 57.5t-70 97.5t-25.5 137q0 92 42.5 166t127.5 127t212.5 84t295.5 39v14
q0 21 -6 37.5t-20 29t-37.5 19t-57.5 6.5q-46 0 -92 -9t-89 -25t-82 -37.5t-75 -47.5l-166 230q42 37 94 70t121 60.5t157.5 43.5t194.5 16q121 0 207 -28.5t140.5 -85.5t80 -143t25.5 -204v-391q0 -50 1.5 -90t5.5 -72t9.5 -57.5t14.5 -46.5h-402q-5 18 -9.5 36t-8 38
t-5 41.5t-1.5 44.5q-34 -43 -72.5 -75.5t-83.5 -55t-97 -34t-112 -11.5zM242 1198v279h720v-279h-720z" />
    <glyph glyph-name="Abreve" unicode="&#x102;" horiz-adv-x="1495" 
d="M733 993l-145 -420h289l-140 420h-4zM393 0h-373l537 1522h381l537 -1522h-414l-92 283h-477zM748 1575q-92 0 -163.5 31t-119 85.5t-73 126t-29.5 154.5h211q6 -51 24.5 -82t43.5 -46.5t51 -20t55 -4.5t55 4.5t51 20t43.5 46.5t24.5 82h211q-4 -83 -29.5 -154.5
t-73 -126t-119 -85.5t-163.5 -31z" />
    <glyph glyph-name="abreve" unicode="&#x103;" horiz-adv-x="1206" 
d="M520 285q36 0 66.5 5t53.5 13.5t41 20t32 24.5v156q-73 -2 -126.5 -12.5t-88.5 -29t-51.5 -43.5t-16.5 -57q0 -19 6.5 -34t19 -24.5t29 -14t35.5 -4.5zM348 -16q-61 0 -117 19t-100.5 57.5t-70 97.5t-25.5 137q0 92 42.5 166t127.5 127t212.5 84t295.5 39v14
q0 21 -6 37.5t-20 29t-37.5 19t-57.5 6.5q-46 0 -92 -9t-89 -25t-82 -37.5t-75 -47.5l-166 230q42 37 94 70t121 60.5t157.5 43.5t194.5 16q121 0 207 -28.5t140.5 -85.5t80 -143t25.5 -204v-391q0 -50 1.5 -90t5.5 -72t9.5 -57.5t14.5 -46.5h-402q-5 18 -9.5 36t-8 38
t-5 41.5t-1.5 44.5q-34 -43 -72.5 -75.5t-83.5 -55t-97 -34t-112 -11.5zM602 1186q-92 0 -163.5 31t-119 85.5t-73 126t-29.5 154.5h211q6 -51 24.5 -82t43.5 -46.5t51 -20t55 -4.5t55 4.5t51 20t43.5 46.5t24.5 82h211q-4 -83 -29.5 -154.5t-73 -126t-119 -85.5t-163.5 -31
z" />
    <glyph glyph-name="Aogonek" unicode="&#x104;" horiz-adv-x="1495" 
d="M733 993l-145 -420h289l-140 420h-4zM393 0h-373l537 1522h381l537 -1522h-414l-92 283h-477zM1138 -383q-60 0 -106 10.5t-76.5 31t-46 50t-15.5 66.5q0 33 14 66.5t39.5 64.5t60.5 59t77 51h205q-39 -24 -65.5 -48t-41.5 -46t-21.5 -42t-6.5 -40q0 -14 3.5 -26
t13 -22.5t27 -16.5t44.5 -6q30 0 55 5t43.5 12.5t28 13.5t32.5 20l78 -119q-32 -20 -68.5 -35t-78.5 -26t-91 -17t-104 -6z" />
    <glyph glyph-name="aogonek" unicode="&#x105;" horiz-adv-x="1206" 
d="M520 285q36 0 66.5 5t53.5 13.5t41 20t32 24.5v156q-73 -2 -126.5 -12.5t-88.5 -29t-51.5 -43.5t-16.5 -57q0 -19 6.5 -34t19 -24.5t29 -14t35.5 -4.5zM348 -16q-61 0 -117 19t-100.5 57.5t-70 97.5t-25.5 137q0 92 42.5 166t127.5 127t212.5 84t295.5 39v14
q0 21 -6 37.5t-20 29t-37.5 19t-57.5 6.5q-46 0 -92 -9t-89 -25t-82 -37.5t-75 -47.5l-166 230q42 37 94 70t121 60.5t157.5 43.5t194.5 16q121 0 207 -28.5t140.5 -85.5t80 -143t25.5 -204v-391q0 -50 1.5 -90t5.5 -72t9.5 -57.5t14.5 -46.5h-402q-5 18 -9.5 36t-8 38
t-5 41.5t-1.5 44.5q-34 -43 -72.5 -75.5t-83.5 -55t-97 -34t-112 -11.5zM811 -383q-60 0 -106 10.5t-76.5 31t-46 50t-15.5 66.5q0 33 14 66.5t39.5 64.5t60.5 59t77 51h205q-39 -24 -65.5 -48t-41.5 -46t-21.5 -42t-6.5 -40q0 -14 3.5 -26t13 -22.5t27 -16.5t44.5 -6
q30 0 55 5t43.5 12.5t28 13.5t32.5 20l78 -119q-32 -20 -68.5 -35t-78.5 -26t-91 -17t-104 -6z" />
    <glyph glyph-name="Cacute" unicode="&#x106;" horiz-adv-x="1518" 
d="M780 -29q-153 0 -282 46t-225 142t-149.5 246t-53.5 353q0 202 55 352t152.5 246t226 142t276.5 46q150 0 262 -36t187 -101.5t121 -152t71 -193.5l-387 -115q-17 61 -37 106.5t-49 80t-71 54t-99 19.5q-75 0 -131.5 -30t-93.5 -87.5t-55.5 -140.5t-18.5 -190
q0 -105 19 -190t57 -145t95 -92t132 -32q59 0 103 18.5t75 54.5t53.5 89t41.5 127l387 -86q-29 -121 -78.5 -217t-127.5 -166.5t-191.5 -109t-264.5 -38.5zM572 1601l190 371h389l-311 -371h-268z" />
    <glyph glyph-name="cacute" unicode="&#x107;" horiz-adv-x="1155" 
d="M614 -23q-105 0 -203.5 27.5t-180 92.5t-130.5 177t-49 273q0 162 53 275t139 177.5t185.5 91.5t200.5 27q116 0 201.5 -27.5t143 -75t94 -108.5t62.5 -137l-339 -106q-13 49 -30 81t-37.5 50t-44.5 25t-54 7q-45 0 -77 -19.5t-52 -56t-29.5 -88.5t-9.5 -118
q0 -65 7 -116t25 -89.5t50.5 -60t81.5 -21.5q27 0 52 8t49 27.5t44 54.5t33 86l336 -112q-27 -68 -67 -128t-102 -109t-150 -78.5t-202 -29.5zM412 1212l190 371h389l-311 -371h-268z" />
    <glyph glyph-name="Ccircumflex" unicode="&#x108;" horiz-adv-x="1518" 
d="M780 -29q-153 0 -282 46t-225 142t-149.5 246t-53.5 353q0 202 55 352t152.5 246t226 142t276.5 46q150 0 262 -36t187 -101.5t121 -152t71 -193.5l-387 -115q-17 61 -37 106.5t-49 80t-71 54t-99 19.5q-75 0 -131.5 -30t-93.5 -87.5t-55.5 -140.5t-18.5 -190
q0 -105 19 -190t57 -145t95 -92t132 -32q59 0 103 18.5t75 54.5t53.5 89t41.5 127l387 -86q-29 -121 -78.5 -217t-127.5 -166.5t-191.5 -109t-264.5 -38.5zM376 1612l265 360h266l264 -360h-227l-172 131l-168 -131h-228z" />
    <glyph glyph-name="ccircumflex" unicode="&#x109;" horiz-adv-x="1155" 
d="M614 -23q-105 0 -203.5 27.5t-180 92.5t-130.5 177t-49 273q0 162 53 275t139 177.5t185.5 91.5t200.5 27q116 0 201.5 -27.5t143 -75t94 -108.5t62.5 -137l-339 -106q-13 49 -30 81t-37.5 50t-44.5 25t-54 7q-45 0 -77 -19.5t-52 -56t-29.5 -88.5t-9.5 -118
q0 -65 7 -116t25 -89.5t50.5 -60t81.5 -21.5q27 0 52 8t49 27.5t44 54.5t33 86l336 -112q-27 -68 -67 -128t-102 -109t-150 -78.5t-202 -29.5zM211 1223l265 360h266l264 -360h-227l-172 131l-168 -131h-228z" />
    <glyph glyph-name="Cdotaccent" unicode="&#x10a;" horiz-adv-x="1518" 
d="M780 -29q-153 0 -282 46t-225 142t-149.5 246t-53.5 353q0 202 55 352t152.5 246t226 142t276.5 46q150 0 262 -36t187 -101.5t121 -152t71 -193.5l-387 -115q-17 61 -37 106.5t-49 80t-71 54t-99 19.5q-75 0 -131.5 -30t-93.5 -87.5t-55.5 -140.5t-18.5 -190
q0 -105 19 -190t57 -145t95 -92t132 -32q59 0 103 18.5t75 54.5t53.5 89t41.5 127l387 -86q-29 -121 -78.5 -217t-127.5 -166.5t-191.5 -109t-264.5 -38.5zM565 1634v311h406v-311h-406z" />
    <glyph glyph-name="cdotaccent" unicode="&#x10b;" horiz-adv-x="1155" 
d="M614 -23q-105 0 -203.5 27.5t-180 92.5t-130.5 177t-49 273q0 162 53 275t139 177.5t185.5 91.5t200.5 27q116 0 201.5 -27.5t143 -75t94 -108.5t62.5 -137l-339 -106q-13 49 -30 81t-37.5 50t-44.5 25t-54 7q-45 0 -77 -19.5t-52 -56t-29.5 -88.5t-9.5 -118
q0 -65 7 -116t25 -89.5t50.5 -60t81.5 -21.5q27 0 52 8t49 27.5t44 54.5t33 86l336 -112q-27 -68 -67 -128t-102 -109t-150 -78.5t-202 -29.5zM415 1245v311h406v-311h-406z" />
    <glyph glyph-name="Ccaron" unicode="&#x10c;" horiz-adv-x="1518" 
d="M780 -29q-153 0 -282 46t-225 142t-149.5 246t-53.5 353q0 202 55 352t152.5 246t226 142t276.5 46q150 0 262 -36t187 -101.5t121 -152t71 -193.5l-387 -115q-17 61 -37 106.5t-49 80t-71 54t-99 19.5q-75 0 -131.5 -30t-93.5 -87.5t-55.5 -140.5t-18.5 -190
q0 -105 19 -190t57 -145t95 -92t132 -32q59 0 103 18.5t75 54.5t53.5 89t41.5 127l387 -86q-29 -121 -78.5 -217t-127.5 -166.5t-191.5 -109t-264.5 -38.5zM625 1612l-265 360h228l168 -131l172 131h227l-264 -360h-266z" />
    <glyph glyph-name="ccaron" unicode="&#x10d;" horiz-adv-x="1155" 
d="M614 -23q-105 0 -203.5 27.5t-180 92.5t-130.5 177t-49 273q0 162 53 275t139 177.5t185.5 91.5t200.5 27q116 0 201.5 -27.5t143 -75t94 -108.5t62.5 -137l-339 -106q-13 49 -30 81t-37.5 50t-44.5 25t-54 7q-45 0 -77 -19.5t-52 -56t-29.5 -88.5t-9.5 -118
q0 -65 7 -116t25 -89.5t50.5 -60t81.5 -21.5q27 0 52 8t49 27.5t44 54.5t33 86l336 -112q-27 -68 -67 -128t-102 -109t-150 -78.5t-202 -29.5zM445 1223l-265 360h228l168 -131l172 131h227l-264 -360h-266z" />
    <glyph glyph-name="Dcaron" unicode="&#x10e;" horiz-adv-x="1542" 
d="M639 0h-498v1516h498q179 0 328 -38t263 -124t178.5 -232t64.5 -354q0 -216 -65.5 -365.5t-180 -238t-263 -126.5t-325.5 -38zM549 1176v-846h113q116 0 193 24.5t122.5 76.5t65.5 133t20 200q0 109 -20 185t-66.5 126.5t-125 75.5t-194.5 25h-108zM637 1612l-265 360
h228l168 -131l172 131h227l-264 -360h-266z" />
    <glyph glyph-name="dcaron" unicode="&#x10f;" horiz-adv-x="1303" 
d="M1315 1225l86 221h-139v317h350v-268l-137 -270h-160zM623 285q23 0 46.5 7t45.5 19t40 26t31 28v352q-21 19 -40 32t-38.5 21t-41.5 12t-48 4q-44 0 -75 -16.5t-50 -48t-27.5 -77t-8.5 -105.5q0 -55 7.5 -100t25.5 -80t51 -54.5t82 -19.5zM461 -16q-94 0 -169.5 33.5
t-129.5 102.5t-82.5 173.5t-28.5 243.5t29 248t83.5 183t131 112t170.5 38q56 0 102.5 -8.5t85.5 -26.5t72 -47t61 -69v549h406v-1250q0 -51 1.5 -90.5t5.5 -71.5t10.5 -57.5t15.5 -46.5h-414q-6 8 -10.5 26.5t-8 42.5t-5 49t-1.5 46q-26 -39 -57 -71t-70.5 -56.5t-89 -38.5
t-108.5 -14z" />
    <glyph glyph-name="Dcroat" unicode="&#x110;" horiz-adv-x="1542" 
d="M639 0h-498v614h-121v299h121v603h498q179 0 328 -38t263 -125.5t178.5 -235t64.5 -359.5q0 -210 -65.5 -357.5t-180 -235.5t-263.5 -126.5t-325 -38.5zM547 614v-284h115q116 0 193 24.5t122.5 76.5t65.5 133t20 200q0 109 -20 185t-66.5 126.5t-125 75.5t-194.5 25
h-110v-263h301v-299h-301z" />
    <glyph glyph-name="dcroat" unicode="&#x111;" horiz-adv-x="1303" 
d="M623 285q23 0 46.5 7t45.5 19t40 26t31 28v352q-21 19 -40 32t-38.5 21t-41.5 12t-48 4q-44 0 -75 -16.5t-50 -48t-27.5 -77t-8.5 -105.5q0 -55 7.5 -100t25.5 -80t51 -54.5t82 -19.5zM786 164q-26 -39 -57 -71t-70.5 -56.5t-89 -38.5t-108.5 -14q-94 0 -169.5 33.5
t-129.5 102.5t-82.5 173.5t-28.5 243.5t29 248t83.5 183t131 112t170.5 38q56 0 102.5 -8.5t85.5 -26.5t72 -47t61 -69v182h-155v250h155v117h406v-117h111v-250h-111v-883q0 -51 1.5 -90.5t5.5 -71.5t10.5 -57.5t15.5 -46.5h-414q-6 8 -10.5 26.5t-8 42.5t-5 49t-1.5 46z
" />
    <glyph glyph-name="Emacron" unicode="&#x112;" horiz-adv-x="1321" 
d="M1257 0h-1116v1516h1082v-340h-672v-246h479v-320h-479v-280h706v-330zM340 1587v279h720v-279h-720z" />
    <glyph glyph-name="emacron" unicode="&#x113;" horiz-adv-x="1206" 
d="M643 -23q-121 0 -225.5 28t-187.5 93.5t-131 177t-48 271.5q0 156 55.5 267.5t143.5 178t187.5 96t191.5 29.5q96 0 185 -23.5t167 -89t127 -191.5t49 -320v-62h-702q7 -52 25.5 -87t46 -55t64 -28t83.5 -8q41 0 85 9t86 24t78.5 32.5t65.5 34.5l146 -245
q-52 -34 -109.5 -59t-120 -41t-128 -24t-134.5 -8zM459 664h340q-6 48 -20 81.5t-35.5 53.5t-50.5 28.5t-66 8.5q-31 0 -57.5 -9.5t-48 -30.5t-37.5 -54t-25 -78zM242 1198v279h720v-279h-720z" />
    <glyph glyph-name="Ebreve" unicode="&#x114;" horiz-adv-x="1321" 
d="M1257 0h-1116v1516h1082v-340h-672v-246h479v-320h-479v-280h706v-330zM680 1575q-92 0 -163.5 31t-119 85.5t-73 126t-29.5 154.5h211q6 -51 24.5 -82t43.5 -46.5t51 -20t55 -4.5t55 4.5t51 20t43.5 46.5t24.5 82h211q-4 -83 -29.5 -154.5t-73 -126t-119 -85.5
t-163.5 -31z" />
    <glyph glyph-name="ebreve" unicode="&#x115;" horiz-adv-x="1206" 
d="M643 -23q-121 0 -225.5 28t-187.5 93.5t-131 177t-48 271.5q0 156 55.5 267.5t143.5 178t187.5 96t191.5 29.5q96 0 185 -23.5t167 -89t127 -191.5t49 -320v-62h-702q7 -52 25.5 -87t46 -55t64 -28t83.5 -8q41 0 85 9t86 24t78.5 32.5t65.5 34.5l146 -245
q-52 -34 -109.5 -59t-120 -41t-128 -24t-134.5 -8zM459 664h340q-6 48 -20 81.5t-35.5 53.5t-50.5 28.5t-66 8.5q-31 0 -57.5 -9.5t-48 -30.5t-37.5 -54t-25 -78zM623 1186q-92 0 -163.5 31t-119 85.5t-73 126t-29.5 154.5h211q6 -51 24.5 -82t43.5 -46.5t51 -20t55 -4.5
t55 4.5t51 20t43.5 46.5t24.5 82h211q-4 -83 -29.5 -154.5t-73 -126t-119 -85.5t-163.5 -31z" />
    <glyph glyph-name="Edotaccent" unicode="&#x116;" horiz-adv-x="1321" 
d="M1257 0h-1116v1516h1082v-340h-672v-246h479v-320h-479v-280h706v-330zM497 1634v311h406v-311h-406z" />
    <glyph glyph-name="edotaccent" unicode="&#x117;" horiz-adv-x="1206" 
d="M643 -23q-121 0 -225.5 28t-187.5 93.5t-131 177t-48 271.5q0 156 55.5 267.5t143.5 178t187.5 96t191.5 29.5q96 0 185 -23.5t167 -89t127 -191.5t49 -320v-62h-702q7 -52 25.5 -87t46 -55t64 -28t83.5 -8q41 0 85 9t86 24t78.5 32.5t65.5 34.5l146 -245
q-52 -34 -109.5 -59t-120 -41t-128 -24t-134.5 -8zM459 664h340q-6 48 -20 81.5t-35.5 53.5t-50.5 28.5t-66 8.5q-31 0 -57.5 -9.5t-48 -30.5t-37.5 -54t-25 -78zM399 1245v311h406v-311h-406z" />
    <glyph glyph-name="Eogonek" unicode="&#x118;" horiz-adv-x="1321" 
d="M1257 0h-1116v1516h1082v-340h-672v-246h479v-320h-479v-280h706v-330zM979 -383q-60 0 -106 10.5t-76.5 31t-46 50t-15.5 66.5q0 33 14 66.5t39.5 64.5t60.5 59t77 51h205q-39 -24 -65.5 -48t-41.5 -46t-21.5 -42t-6.5 -40q0 -14 3.5 -26t13 -22.5t27 -16.5t44.5 -6
q30 0 55 5t43.5 12.5t28 13.5t32.5 20l78 -119q-32 -20 -68.5 -35t-78.5 -26t-91 -17t-104 -6z" />
    <glyph glyph-name="eogonek" unicode="&#x119;" horiz-adv-x="1206" 
d="M643 -23q-121 0 -225.5 28t-187.5 93.5t-131 177t-48 271.5q0 156 55.5 267.5t143.5 178t187.5 96t191.5 29.5q96 0 185 -23.5t167 -89t127 -191.5t49 -320v-62h-702q7 -52 25.5 -87t46 -55t64 -28t83.5 -8q41 0 85 9t86 24t78.5 32.5t65.5 34.5l146 -245
q-52 -34 -109.5 -59t-120 -41t-128 -24t-134.5 -8zM459 664h340q-6 48 -20 81.5t-35.5 53.5t-50.5 28.5t-66 8.5q-31 0 -57.5 -9.5t-48 -30.5t-37.5 -54t-25 -78zM674 -383q-60 0 -106 10.5t-76.5 31t-46 50t-15.5 66.5q0 33 14 66.5t39.5 64.5t60.5 59t77 51h205
q-39 -24 -65.5 -48t-41.5 -46t-21.5 -42t-6.5 -40q0 -14 3.5 -26t13 -22.5t27 -16.5t44.5 -6q30 0 55 5t43.5 12.5t28 13.5t32.5 20l78 -119q-32 -20 -68.5 -35t-78.5 -26t-91 -17t-104 -6z" />
    <glyph glyph-name="Ecaron" unicode="&#x11a;" horiz-adv-x="1321" 
d="M1257 0h-1116v1516h1082v-340h-672v-246h479v-320h-479v-280h706v-330zM568 1612l-265 360h228l168 -131l172 131h227l-264 -360h-266z" />
    <glyph glyph-name="ecaron" unicode="&#x11b;" horiz-adv-x="1206" 
d="M643 -23q-121 0 -225.5 28t-187.5 93.5t-131 177t-48 271.5q0 156 55.5 267.5t143.5 178t187.5 96t191.5 29.5q96 0 185 -23.5t167 -89t127 -191.5t49 -320v-62h-702q7 -52 25.5 -87t46 -55t64 -28t83.5 -8q41 0 85 9t86 24t78.5 32.5t65.5 34.5l146 -245
q-52 -34 -109.5 -59t-120 -41t-128 -24t-134.5 -8zM459 664h340q-6 48 -20 81.5t-35.5 53.5t-50.5 28.5t-66 8.5q-31 0 -57.5 -9.5t-48 -30.5t-37.5 -54t-25 -78zM469 1223l-265 360h228l168 -131l172 131h227l-264 -360h-266z" />
    <glyph glyph-name="Gcircumflex" unicode="&#x11c;" horiz-adv-x="1589" 
d="M748 -29q-177 0 -306.5 58t-211.5 164.5t-121 250.5t-39 320q0 177 48 321.5t140 247t224.5 157t299.5 54.5q115 0 212 -22.5t179.5 -77.5t146 -152t101.5 -241l-374 -105q-22 72 -50 122t-61 80.5t-71.5 44t-84.5 13.5q-60 0 -112.5 -22t-95 -72t-67 -135t-24.5 -207
q0 -149 32 -245t81.5 -144.5t101.5 -65t103 -16.5q48 0 90 13t75.5 36.5t59 57t41.5 75.5h-221v299h610v-780h-321v201h-5q-8 -30 -37.5 -69.5t-78.5 -76t-116.5 -60.5t-147.5 -24zM385 1612l265 360h266l264 -360h-227l-172 131l-168 -131h-228z" />
    <glyph glyph-name="gcircumflex" unicode="&#x11d;" horiz-adv-x="1300" 
d="M592 551q35 0 62 12.5t45 34t27 51t9 62.5t-9 62t-27 51t-45 34t-62 12t-62 -12t-45 -34t-27 -51t-9 -62t9 -62.5t27 -51t45 -34t62 -12.5zM553 -410q-158 0 -268 16t-177 47t-97.5 74.5t-30.5 100.5q0 37 14.5 69t39 57.5t54 45.5t64.5 37q-16 12 -28 25.5t-20.5 29.5
t-13 34t-4.5 38q0 37 13.5 72t37 66.5t53.5 58.5t66 51q-46 26 -81 60.5t-58.5 75t-35 85.5t-11.5 94q0 82 32.5 153t98 124.5t162.5 83.5t223 30q65 0 122.5 -8.5t106.5 -24t89 -38t71 -50.5q28 26 65 47t77 37t79 24.5t74 10.5v-301q-17 0 -33 -0.5t-38.5 -2t-50.5 -5.5
t-58 -10q1 -8 1.5 -16t1 -16.5t1 -18t0.5 -19.5q0 -82 -31.5 -153t-95 -124.5t-160 -83.5t-221.5 -30q-22 0 -43.5 1t-42 3t-40 4.5t-38.5 5.5q-4 -6 -7 -11.5t-5 -10.5t-3 -9.5t-1 -9.5q0 -14 7.5 -22.5t21.5 -12.5t31 -5.5t46 -2.5l135 -4q160 -5 270.5 -25t179 -59
t100.5 -98t32 -143q0 -87 -50.5 -153t-142.5 -109t-215 -64t-268 -21zM623 -215q56 0 103 5t81 15t53 25.5t19 36.5q0 23 -8 36t-35 22.5t-85.5 15.5t-160.5 10l-156 6q-10 0 -19.5 0.5l-19 1t-19 1.5t-18.5 3q-3 -8 -5.5 -16t-4 -15t-2 -14t-0.5 -14q0 -33 15 -55.5
t48 -36.5t85.5 -20.5t128.5 -6.5zM186 1223l265 360h266l264 -360h-227l-172 131l-168 -131h-228z" />
    <glyph glyph-name="Gbreve" unicode="&#x11e;" horiz-adv-x="1589" 
d="M748 -29q-177 0 -306.5 58t-211.5 164.5t-121 250.5t-39 320q0 177 48 321.5t140 247t224.5 157t299.5 54.5q115 0 212 -22.5t179.5 -77.5t146 -152t101.5 -241l-374 -105q-22 72 -50 122t-61 80.5t-71.5 44t-84.5 13.5q-60 0 -112.5 -22t-95 -72t-67 -135t-24.5 -207
q0 -149 32 -245t81.5 -144.5t101.5 -65t103 -16.5q48 0 90 13t75.5 36.5t59 57t41.5 75.5h-221v299h610v-780h-321v201h-5q-8 -30 -37.5 -69.5t-78.5 -76t-116.5 -60.5t-147.5 -24zM795 1575q-92 0 -163.5 31t-119 85.5t-73 126t-29.5 154.5h211q6 -51 24.5 -82t43.5 -46.5
t51 -20t55 -4.5t55 4.5t51 20t43.5 46.5t24.5 82h211q-4 -83 -29.5 -154.5t-73 -126t-119 -85.5t-163.5 -31z" />
    <glyph glyph-name="gbreve" unicode="&#x11f;" horiz-adv-x="1300" 
d="M592 551q35 0 62 12.5t45 34t27 51t9 62.5t-9 62t-27 51t-45 34t-62 12t-62 -12t-45 -34t-27 -51t-9 -62t9 -62.5t27 -51t45 -34t62 -12.5zM553 -410q-158 0 -268 16t-177 47t-97.5 74.5t-30.5 100.5q0 37 14.5 69t39 57.5t54 45.5t64.5 37q-16 12 -28 25.5t-20.5 29.5
t-13 34t-4.5 38q0 37 13.5 72t37 66.5t53.5 58.5t66 51q-46 26 -81 60.5t-58.5 75t-35 85.5t-11.5 94q0 82 32.5 153t98 124.5t162.5 83.5t223 30q65 0 122.5 -8.5t106.5 -24t89 -38t71 -50.5q28 26 65 47t77 37t79 24.5t74 10.5v-301q-17 0 -33 -0.5t-38.5 -2t-50.5 -5.5
t-58 -10q1 -8 1.5 -16t1 -16.5t1 -18t0.5 -19.5q0 -82 -31.5 -153t-95 -124.5t-160 -83.5t-221.5 -30q-22 0 -43.5 1t-42 3t-40 4.5t-38.5 5.5q-4 -6 -7 -11.5t-5 -10.5t-3 -9.5t-1 -9.5q0 -14 7.5 -22.5t21.5 -12.5t31 -5.5t46 -2.5l135 -4q160 -5 270.5 -25t179 -59
t100.5 -98t32 -143q0 -87 -50.5 -153t-142.5 -109t-215 -64t-268 -21zM623 -215q56 0 103 5t81 15t53 25.5t19 36.5q0 23 -8 36t-35 22.5t-85.5 15.5t-160.5 10l-156 6q-10 0 -19.5 0.5l-19 1t-19 1.5t-18.5 3q-3 -8 -5.5 -16t-4 -15t-2 -14t-0.5 -14q0 -33 15 -55.5
t48 -36.5t85.5 -20.5t128.5 -6.5zM596 1186q-92 0 -163.5 31t-119 85.5t-73 126t-29.5 154.5h211q6 -51 24.5 -82t43.5 -46.5t51 -20t55 -4.5t55 4.5t51 20t43.5 46.5t24.5 82h211q-4 -83 -29.5 -154.5t-73 -126t-119 -85.5t-163.5 -31z" />
    <glyph glyph-name="Gdotaccent" unicode="&#x120;" horiz-adv-x="1589" 
d="M748 -29q-177 0 -306.5 58t-211.5 164.5t-121 250.5t-39 320q0 177 48 321.5t140 247t224.5 157t299.5 54.5q115 0 212 -22.5t179.5 -77.5t146 -152t101.5 -241l-374 -105q-22 72 -50 122t-61 80.5t-71.5 44t-84.5 13.5q-60 0 -112.5 -22t-95 -72t-67 -135t-24.5 -207
q0 -149 32 -245t81.5 -144.5t101.5 -65t103 -16.5q48 0 90 13t75.5 36.5t59 57t41.5 75.5h-221v299h610v-780h-321v201h-5q-8 -30 -37.5 -69.5t-78.5 -76t-116.5 -60.5t-147.5 -24zM579 1634v311h406v-311h-406z" />
    <glyph glyph-name="gdotaccent" unicode="&#x121;" horiz-adv-x="1300" 
d="M592 551q35 0 62 12.5t45 34t27 51t9 62.5t-9 62t-27 51t-45 34t-62 12t-62 -12t-45 -34t-27 -51t-9 -62t9 -62.5t27 -51t45 -34t62 -12.5zM553 -410q-158 0 -268 16t-177 47t-97.5 74.5t-30.5 100.5q0 37 14.5 69t39 57.5t54 45.5t64.5 37q-16 12 -28 25.5t-20.5 29.5
t-13 34t-4.5 38q0 37 13.5 72t37 66.5t53.5 58.5t66 51q-46 26 -81 60.5t-58.5 75t-35 85.5t-11.5 94q0 82 32.5 153t98 124.5t162.5 83.5t223 30q65 0 122.5 -8.5t106.5 -24t89 -38t71 -50.5q28 26 65 47t77 37t79 24.5t74 10.5v-301q-17 0 -33 -0.5t-38.5 -2t-50.5 -5.5
t-58 -10q1 -8 1.5 -16t1 -16.5t1 -18t0.5 -19.5q0 -82 -31.5 -153t-95 -124.5t-160 -83.5t-221.5 -30q-22 0 -43.5 1t-42 3t-40 4.5t-38.5 5.5q-4 -6 -7 -11.5t-5 -10.5t-3 -9.5t-1 -9.5q0 -14 7.5 -22.5t21.5 -12.5t31 -5.5t46 -2.5l135 -4q160 -5 270.5 -25t179 -59
t100.5 -98t32 -143q0 -87 -50.5 -153t-142.5 -109t-215 -64t-268 -21zM623 -215q56 0 103 5t81 15t53 25.5t19 36.5q0 23 -8 36t-35 22.5t-85.5 15.5t-160.5 10l-156 6q-10 0 -19.5 0.5l-19 1t-19 1.5t-18.5 3q-3 -8 -5.5 -16t-4 -15t-2 -14t-0.5 -14q0 -33 15 -55.5
t48 -36.5t85.5 -20.5t128.5 -6.5zM381 1245v311h406v-311h-406z" />
    <glyph glyph-name="Gcommaaccent" unicode="&#x122;" horiz-adv-x="1589" 
d="M748 -29q-177 0 -306.5 58t-211.5 164.5t-121 250.5t-39 320q0 177 48 321.5t140 247t224.5 157t299.5 54.5q115 0 212 -22.5t179.5 -77.5t146 -152t101.5 -241l-374 -105q-22 72 -50 122t-61 80.5t-71.5 44t-84.5 13.5q-60 0 -112.5 -22t-95 -72t-67 -135t-24.5 -207
q0 -149 32 -245t81.5 -144.5t101.5 -65t103 -16.5q48 0 90 13t75.5 36.5t59 57t41.5 75.5h-221v299h610v-780h-321v201h-5q-8 -30 -37.5 -69.5t-78.5 -76t-116.5 -60.5t-147.5 -24zM668 -649l90 233h-145v334h366v-283l-143 -284h-168z" />
    <glyph glyph-name="gcommaaccent" unicode="&#x123;" horiz-adv-x="1300" 
d="M592 551q35 0 62 12.5t45 34t27 51t9 62.5t-9 62t-27 51t-45 34t-62 12t-62 -12t-45 -34t-27 -51t-9 -62t9 -62.5t27 -51t45 -34t62 -12.5zM553 -410q-158 0 -268 16t-177 47t-97.5 74.5t-30.5 100.5q0 37 14.5 69t39 57.5t54 45.5t64.5 37q-16 12 -28 25.5t-20.5 29.5
t-13 34t-4.5 38q0 37 13.5 72t37 66.5t53.5 58.5t66 51q-46 26 -81 60.5t-58.5 75t-35 85.5t-11.5 94q0 82 32.5 153t98 124.5t162.5 83.5t223 30q65 0 122.5 -8.5t106.5 -24t89 -38t71 -50.5q28 26 65 47t77 37t79 24.5t74 10.5v-301q-17 0 -33 -0.5t-38.5 -2t-50.5 -5.5
t-58 -10q1 -8 1.5 -16t1 -16.5t1 -18t0.5 -19.5q0 -82 -31.5 -153t-95 -124.5t-160 -83.5t-221.5 -30q-22 0 -43.5 1t-42 3t-40 4.5t-38.5 5.5q-4 -6 -7 -11.5t-5 -10.5t-3 -9.5t-1 -9.5q0 -14 7.5 -22.5t21.5 -12.5t31 -5.5t46 -2.5l135 -4q160 -5 270.5 -25t179 -59
t100.5 -98t32 -143q0 -87 -50.5 -153t-142.5 -109t-215 -64t-268 -21zM623 -215q56 0 103 5t81 15t53 25.5t19 36.5q0 23 -8 36t-35 22.5t-85.5 15.5t-160.5 10l-156 6q-10 0 -19.5 0.5l-19 1t-19 1.5t-18.5 3q-3 -8 -5.5 -16t-4 -15t-2 -14t-0.5 -14q0 -33 15 -55.5
t48 -36.5t85.5 -20.5t128.5 -6.5zM414 1200v283l143 284h168l-90 -233h145v-334h-366z" />
    <glyph glyph-name="Hcircumflex" unicode="&#x124;" horiz-adv-x="1606" 
d="M141 0v1516h410v-564h504v564h409v-1516h-409v612h-504v-612h-410zM405 1612l265 360h266l264 -360h-227l-172 131l-168 -131h-228z" />
    <glyph glyph-name="hcircumflex" unicode="&#x125;" horiz-adv-x="1296" 
d="M516 0h-405v1516h405v-588q20 32 51 64.5t76.5 61t105.5 46.5t132 18q67 0 124 -17t100 -54.5t67 -99t24 -146.5v-801h-405v668q0 29 -5 50.5t-16 36.5t-29 23t-43 8t-49 -6t-47 -16t-44 -24t-42 -31v-709zM-88 1612l265 360h266l264 -360h-227l-172 131l-168 -131h-228z
" />
    <glyph glyph-name="Hbar" unicode="&#x126;" horiz-adv-x="1606" 
d="M551 911h504v140h-504v-140zM551 571v-571h-410v1051h-121v299h121v166h410v-166h504v166h409v-166h119v-299h-119v-1051h-409v571h-504z" />
    <glyph glyph-name="hbar" unicode="&#x127;" horiz-adv-x="1296" 
d="M516 709v-709h-405v1149h-111v250h111v117h405v-117h156v-250h-156v-221q20 32 51 64.5t76.5 61t105.5 46.5t132 18q67 0 124 -17t100 -54.5t67 -99t24 -146.5v-801h-405v668q0 29 -5 50.5t-16 36.5t-29 23t-43 8t-49 -6t-47 -16t-44 -24t-42 -31z" />
    <glyph glyph-name="Itilde" unicode="&#x128;" horiz-adv-x="717" 
d="M563 0h-409v1516h409v-1516zM518 1577q-55 0 -94.5 15.5t-84 46.5t-64 42t-49.5 11q-20 0 -35.5 -6t-26.5 -19.5t-16.5 -34.5t-5.5 -51h-213q0 96 19 166t54.5 114.5t85 65.5t111.5 21q55 0 95 -15.5t85 -46.5t64 -42t49 -11q20 0 35 6t26 19.5t17 34.5t6 50h213
q0 -96 -19 -166t-55 -114t-85.5 -65t-111.5 -21z" />
    <glyph glyph-name="itilde" unicode="&#x129;" horiz-adv-x="647" 
d="M526 0h-405v1098h405v-1098zM483 1188q-55 0 -94.5 15.5t-84 46.5t-64 42t-49.5 11q-20 0 -35.5 -6t-26.5 -19.5t-16.5 -34.5t-5.5 -51h-213q0 96 19 166t54.5 114.5t85 65.5t111.5 21q55 0 95 -15.5t85 -46.5t64 -42t49 -11q20 0 35 6t26 19.5t17 34.5t6 50h213
q0 -96 -19 -166t-55 -114t-85.5 -65t-111.5 -21z" />
    <glyph glyph-name="Imacron" unicode="&#x12a;" horiz-adv-x="717" 
d="M563 0h-409v1516h409v-1516zM-2 1587v279h720v-279h-720z" />
    <glyph glyph-name="imacron" unicode="&#x12b;" horiz-adv-x="647" 
d="M526 0h-405v1098h405v-1098zM-36 1198v279h720v-279h-720z" />
    <glyph glyph-name="Ibreve" unicode="&#x12c;" horiz-adv-x="717" 
d="M563 0h-409v1516h409v-1516zM358 1575q-92 0 -163.5 31t-119 85.5t-73 126t-29.5 154.5h211q6 -51 24.5 -82t43.5 -46.5t51 -20t55 -4.5t55 4.5t51 20t43.5 46.5t24.5 82h211q-4 -83 -29.5 -154.5t-73 -126t-119 -85.5t-163.5 -31z" />
    <glyph glyph-name="ibreve" unicode="&#x12d;" horiz-adv-x="647" 
d="M526 0h-405v1098h405v-1098zM324 1186q-92 0 -163.5 31t-119 85.5t-73 126t-29.5 154.5h211q6 -51 24.5 -82t43.5 -46.5t51 -20t55 -4.5t55 4.5t51 20t43.5 46.5t24.5 82h211q-4 -83 -29.5 -154.5t-73 -126t-119 -85.5t-163.5 -31z" />
    <glyph glyph-name="Iogonek" unicode="&#x12e;" horiz-adv-x="717" 
d="M563 0h-409v1516h409v-1516zM227 -383q-60 0 -106 10.5t-76.5 31t-46 50t-15.5 66.5q0 33 14 66.5t39.5 64.5t60.5 59t77 51h205q-39 -24 -65.5 -48t-41.5 -46t-21.5 -42t-6.5 -40q0 -14 3.5 -26t13 -22.5t27 -16.5t44.5 -6q30 0 55 5t43.5 12.5t28 13.5t32.5 20l78 -119
q-32 -20 -68.5 -35t-78.5 -26t-91 -17t-104 -6z" />
    <glyph glyph-name="iogonek" unicode="&#x12f;" horiz-adv-x="647" 
d="M526 1204h-405v312h405v-312zM526 0h-405v1098h405v-1098zM194 -383q-60 0 -106 10.5t-76.5 31t-46 50t-15.5 66.5q0 33 14 66.5t39.5 64.5t60.5 59t77 51h205q-39 -24 -65.5 -48t-41.5 -46t-21.5 -42t-6.5 -40q0 -14 3.5 -26t13 -22.5t27 -16.5t44.5 -6q30 0 55 5
t43.5 12.5t28 13.5t32.5 20l78 -119q-32 -20 -68.5 -35t-78.5 -26t-91 -17t-104 -6z" />
    <glyph glyph-name="Idotaccent" unicode="&#x130;" horiz-adv-x="717" 
d="M563 0h-409v1516h409v-1516zM155 1634v311h406v-311h-406z" />
    <glyph glyph-name="dotlessi" unicode="&#x131;" horiz-adv-x="647" 
d="M526 0h-405v1098h405v-1098z" />
    <glyph glyph-name="IJ" unicode="&#x132;" horiz-adv-x="1761" 
d="M563 0h-409v1516h409v-1516zM1110 -17q-83 0 -151 11t-121.5 30.5t-97.5 45t-89 59.5l207 276q24 -20 49 -36.5t53.5 -30.5t60.5 -22.5t65 -8.5q40 0 70 13.5t49.5 42.5t29.5 74t10 107v984h410v-1055q0 -109 -29 -198t-93 -154.5t-169.5 -101.5t-253.5 -36z" />
    <glyph glyph-name="ij" unicode="&#x133;" horiz-adv-x="1294" 
d="M526 1204h-405v312h405v-312zM526 0h-405v1098h405v-1098zM1173 1216h-405v312h405v-312zM766 -406q-29 0 -68 2t-78 5t-67 6t-35 6v266q7 -2 19.5 -4.5t27.5 -4t31 -2.5t28 -1q38 0 65.5 9t44.5 28t25.5 49.5t8.5 74.5v1082h405v-1172q0 -70 -13 -127t-54 -106.5
t-124 -80t-216 -30.5z" />
    <glyph glyph-name="Jcircumflex" unicode="&#x134;" horiz-adv-x="1126" 
d="M475 -29q-83 0 -151 11t-121.5 30.5t-97.5 45t-89 59.5l207 276q24 -20 49 -36.5t53.5 -30.5t60.5 -22.5t65 -8.5q40 0 70 13.5t49.5 42.5t29.5 74t10 107v984h410v-1055q0 -109 -29 -198t-93 -154.5t-169.5 -101.5t-253.5 -36zM417 1612l265 360h266l264 -360h-227
l-172 131l-168 -131h-228z" />
    <glyph glyph-name="jcircumflex" unicode="&#x135;" horiz-adv-x="647" 
d="M-74 1223l264 360h267l264 -360h-227l-172 131l-168 -131h-228zM119 -418q-29 0 -68 2t-78 5t-67 6t-35 6v266q7 -2 19.5 -4.5t27.5 -4t31 -2.5t28 -1q38 0 65.5 9t44.5 28t25.5 49.5t8.5 74.5v1082h405v-1172q0 -70 -13 -127t-54 -106.5t-124 -80t-216 -30.5z" />
    <glyph glyph-name="Kcommaaccent" unicode="&#x136;" horiz-adv-x="1511" 
d="M551 0h-410v1516h410v-549l418 549h475l-510 -598l555 -918h-463l-358 606l-117 -135v-471zM629 -649l90 233h-145v334h366v-283l-143 -284h-168z" />
    <glyph glyph-name="kcommaaccent" unicode="&#x137;" horiz-adv-x="1245" 
d="M516 0h-405v1516h405v-760l268 342h430l-356 -418l369 -680h-416l-203 385l-92 -109v-276zM496 -649l90 233h-145v334h366v-283l-143 -284h-168z" />
    <glyph glyph-name="kgreenlandic" unicode="&#x138;" horiz-adv-x="1245" 
d="M111 0v1098h405v-342l268 342h430l-356 -418l369 -680h-416l-203 385l-92 -109v-276h-405z" />
    <glyph glyph-name="Lacute" unicode="&#x139;" horiz-adv-x="1219" 
d="M1188 0h-1047v1516h410v-1186h637v-330zM215 1601l190 371h389l-311 -371h-268z" />
    <glyph glyph-name="lacute" unicode="&#x13a;" horiz-adv-x="647" 
d="M526 0h-405v1516h405v-1516zM179 1601l190 371h389l-311 -371h-268z" />
    <glyph glyph-name="Lcommaaccent" unicode="&#x13b;" horiz-adv-x="1219" 
d="M1188 0h-1047v1516h410v-1186h637v-330zM481 -649l90 233h-145v334h366v-283l-143 -284h-168z" />
    <glyph glyph-name="lcommaaccent" unicode="&#x13c;" horiz-adv-x="647" 
d="M526 0h-405v1516h405v-1516zM197 -649l90 233h-145v334h366v-283l-143 -284h-168z" />
    <glyph glyph-name="Lcaron" unicode="&#x13d;" horiz-adv-x="1219" 
d="M1188 0h-1047v1516h410v-1186h637v-330zM729 948l90 233h-145v334h366v-283l-143 -284h-168z" />
    <glyph glyph-name="lcaron" unicode="&#x13e;" horiz-adv-x="647" 
d="M641 1225l86 221h-139v317h350v-268l-137 -270h-160zM526 0h-405v1516h405v-1516z" />
    <glyph glyph-name="Ldot" unicode="&#x13f;" horiz-adv-x="1321" 
d="M1188 0h-1047v1516h410v-1186h637v-330zM817 702v312h365v-312h-365z" />
    <glyph glyph-name="ldot" unicode="&#x140;" horiz-adv-x="989" 
d="M526 0h-405v1516h405v-1516zM637 551v311h364v-311h-364z" />
    <glyph glyph-name="Lslash" unicode="&#x141;" horiz-adv-x="1219" 
d="M1188 0h-1047v637l-161 -43v299l161 43v580h410v-472l276 74v-299l-276 -74v-415h637v-330z" />
    <glyph glyph-name="lslash" unicode="&#x142;" horiz-adv-x="727" 
d="M164 0v758l-117 -33v291l117 33v467h405v-357l111 31v-291l-111 -31v-868h-405z" />
    <glyph glyph-name="Nacute" unicode="&#x143;" horiz-adv-x="1620" 
d="M516 0h-375v1516h404l555 -850h4v850h375v-1516h-379l-580 848h-4v-848zM623 1601l190 371h389l-311 -371h-268z" />
    <glyph glyph-name="nacute" unicode="&#x144;" horiz-adv-x="1296" 
d="M113 0v1098h405v-170q20 32 51 64.5t76.5 61t105.5 46.5t132 18q67 0 124 -17t100 -54.5t67 -99t24 -146.5v-801h-405v668q0 29 -5 50.5t-16 36.5t-29 23t-43 8t-49 -6t-47 -16t-44 -24t-42 -31v-709h-405zM404 1212l190 371h389l-311 -371h-268z" />
    <glyph glyph-name="Ncommaaccent" unicode="&#x145;" horiz-adv-x="1620" 
d="M516 0h-375v1516h404l555 -850h4v850h375v-1516h-379l-580 848h-4v-848zM682 -649l90 233h-145v334h366v-283l-143 -284h-168z" />
    <glyph glyph-name="ncommaaccent" unicode="&#x146;" horiz-adv-x="1296" 
d="M113 0v1098h405v-170q20 32 51 64.5t76.5 61t105.5 46.5t132 18q67 0 124 -17t100 -54.5t67 -99t24 -146.5v-801h-405v668q0 29 -5 50.5t-16 36.5t-29 23t-43 8t-49 -6t-47 -16t-44 -24t-42 -31v-709h-405zM526 -649l90 233h-145v334h366v-283l-143 -284h-168z" />
    <glyph glyph-name="Ncaron" unicode="&#x147;" horiz-adv-x="1620" 
d="M516 0h-375v1516h404l555 -850h4v850h375v-1516h-379l-580 848h-4v-848zM676 1612l-265 360h228l168 -131l172 131h227l-264 -360h-266z" />
    <glyph glyph-name="ncaron" unicode="&#x148;" horiz-adv-x="1296" 
d="M113 0v1098h405v-170q20 32 51 64.5t76.5 61t105.5 46.5t132 18q67 0 124 -17t100 -54.5t67 -99t24 -146.5v-801h-405v668q0 29 -5 50.5t-16 36.5t-29 23t-43 8t-49 -6t-47 -16t-44 -24t-42 -31v-709h-405zM523 1223l-265 360h228l168 -131l172 131h227l-264 -360h-266z
" />
    <glyph glyph-name="Eng" unicode="&#x14a;" horiz-adv-x="1620" 
d="M141 0v1516h404l555 -850h4v850h375v-1516q0 -94 -29 -170t-90.5 -132t-159.5 -86t-233 -30q-84 0 -152 11t-121.5 30.5t-97 45t-88.5 59.5l207 276q24 -19 48.5 -36t53 -31t60.5 -22.5t65 -8.5q27 0 49.5 6.5t40 19.5t31 33t22.5 47l2 6l-567 830h-4v-848h-375z" />
    <glyph glyph-name="eng" unicode="&#x14b;" horiz-adv-x="1296" 
d="M113 0v1098h405v-170q20 32 51 64.5t76.5 61t105.5 46.5t132 18q67 0 124 -17t100 -54.5t67 -99t24 -146.5v-875q0 -69 -13 -126.5t-54.5 -107t-124.5 -80t-215 -30.5q-29 0 -68 2t-78 5t-67 6t-35 6v266q7 -2 19 -4.5t27.5 -4t31 -2.5t28.5 -1q36 0 62.5 8t45 25.5
t27.5 45t9 66.5v668q0 29 -5 50.5t-16 36.5t-29 23t-43 8t-49 -6t-47 -16t-44 -24t-42 -31v-709h-405z" />
    <glyph glyph-name="Omacron" unicode="&#x14c;" horiz-adv-x="1628" 
d="M815 -29q-142 0 -275 46.5t-239 143t-168.5 247t-62.5 350.5t62 350.5t168.5 247t239.5 142.5t275 46t274.5 -46t239 -142.5t168.5 -247t62 -350.5t-62 -350.5t-168.5 -247t-239 -143t-274.5 -46.5zM815 299q79 0 141.5 32t105.5 92.5t65 145.5t22 189t-22 187t-65 141.5
t-105.5 89t-141.5 30.5q-80 0 -142.5 -30.5t-106 -89t-65.5 -141.5t-22 -187t22 -189t65.5 -145.5t106 -92.5t142.5 -32zM453 1587v279h720v-279h-720z" />
    <glyph glyph-name="omacron" unicode="&#x14d;" horiz-adv-x="1274" 
d="M637 -23q-108 0 -210 27.5t-187.5 92.5t-137 177t-51.5 273q0 163 51.5 275.5t136.5 177t187 91.5t211 27t210.5 -27t187 -91.5t137 -177t51.5 -275.5q0 -161 -51.5 -273t-137 -177t-187.5 -92.5t-210 -27.5zM637 258q49 0 83.5 20t56 57.5t31 90t9.5 119.5q0 63 -9 114
t-29.5 88.5t-55.5 58.5t-86 21q-49 0 -83.5 -19.5t-56 -56t-31 -88.5t-9.5 -118q0 -64 9 -115t29 -90t55.5 -60.5t86.5 -21.5zM277 1198v279h720v-279h-720z" />
    <glyph glyph-name="Obreve" unicode="&#x14e;" horiz-adv-x="1628" 
d="M815 -29q-142 0 -275 46.5t-239 143t-168.5 247t-62.5 350.5t62 350.5t168.5 247t239.5 142.5t275 46t274.5 -46t239 -142.5t168.5 -247t62 -350.5t-62 -350.5t-168.5 -247t-239 -143t-274.5 -46.5zM815 299q79 0 141.5 32t105.5 92.5t65 145.5t22 189t-22 187t-65 141.5
t-105.5 89t-141.5 30.5q-80 0 -142.5 -30.5t-106 -89t-65.5 -141.5t-22 -187t22 -189t65.5 -145.5t106 -92.5t142.5 -32zM813 1575q-92 0 -163.5 31t-119 85.5t-73 126t-29.5 154.5h211q6 -51 24.5 -82t43.5 -46.5t51 -20t55 -4.5t55 4.5t51 20t43.5 46.5t24.5 82h211
q-4 -83 -29.5 -154.5t-73 -126t-119 -85.5t-163.5 -31z" />
    <glyph glyph-name="obreve" unicode="&#x14f;" horiz-adv-x="1274" 
d="M637 -23q-108 0 -210 27.5t-187.5 92.5t-137 177t-51.5 273q0 163 51.5 275.5t136.5 177t187 91.5t211 27t210.5 -27t187 -91.5t137 -177t51.5 -275.5q0 -161 -51.5 -273t-137 -177t-187.5 -92.5t-210 -27.5zM637 258q49 0 83.5 20t56 57.5t31 90t9.5 119.5q0 63 -9 114
t-29.5 88.5t-55.5 58.5t-86 21q-49 0 -83.5 -19.5t-56 -56t-31 -88.5t-9.5 -118q0 -64 9 -115t29 -90t55.5 -60.5t86.5 -21.5zM637 1186q-92 0 -163.5 31t-119 85.5t-73 126t-29.5 154.5h211q6 -51 24.5 -82t43.5 -46.5t51 -20t55 -4.5t55 4.5t51 20t43.5 46.5t24.5 82h211
q-4 -83 -29.5 -154.5t-73 -126t-119 -85.5t-163.5 -31z" />
    <glyph glyph-name="Ohungarumlaut" unicode="&#x150;" horiz-adv-x="1628" 
d="M815 -29q-142 0 -275 46.5t-239 143t-168.5 247t-62.5 350.5t62 350.5t168.5 247t239.5 142.5t275 46t274.5 -46t239 -142.5t168.5 -247t62 -350.5t-62 -350.5t-168.5 -247t-239 -143t-274.5 -46.5zM815 299q79 0 141.5 32t105.5 92.5t65 145.5t22 189t-22 187t-65 141.5
t-105.5 89t-141.5 30.5q-80 0 -142.5 -30.5t-106 -89t-65.5 -141.5t-22 -187t22 -189t65.5 -145.5t106 -92.5t142.5 -32zM817 1601l242 371h389l-362 -371h-269zM400 1601l221 371h389l-342 -371h-268z" />
    <glyph glyph-name="ohungarumlaut" unicode="&#x151;" horiz-adv-x="1274" 
d="M637 -23q-108 0 -210 27.5t-187.5 92.5t-137 177t-51.5 273q0 163 51.5 275.5t136.5 177t187 91.5t211 27t210.5 -27t187 -91.5t137 -177t51.5 -275.5q0 -161 -51.5 -273t-137 -177t-187.5 -92.5t-210 -27.5zM637 258q49 0 83.5 20t56 57.5t31 90t9.5 119.5q0 63 -9 114
t-29.5 88.5t-55.5 58.5t-86 21q-49 0 -83.5 -19.5t-56 -56t-31 -88.5t-9.5 -118q0 -64 9 -115t29 -90t55.5 -60.5t86.5 -21.5zM661 1212l242 371h389l-362 -371h-269zM244 1212l221 371h389l-342 -371h-268z" />
    <glyph glyph-name="OE" unicode="&#x152;" horiz-adv-x="2324" 
d="M811 299q79 0 141.5 32t105.5 92.5t65 145.5t22 189t-22 187t-65 141.5t-105.5 89t-141.5 30.5q-80 0 -142.5 -30.5t-106 -89t-65.5 -141.5t-22 -187t22 -189t65.5 -145.5t106 -92.5t142.5 -32zM811 -29q-143 0 -275.5 46.5t-239 143t-168.5 247t-62 350.5t62 350.5
t168.5 247t239 142.5t275.5 46q49 0 98 -5.5t96.5 -16.5t94 -28.5t88.5 -41.5v64h1038v-340h-672v-246h480v-320h-480v-280h707v-330h-1073v63q-43 -23 -89 -40.5t-94 -29t-96.5 -17t-97.5 -5.5z" />
    <glyph glyph-name="oe" unicode="&#x153;" horiz-adv-x="1958" 
d="M637 -23q-108 0 -210 27.5t-187.5 92.5t-137 177t-51.5 273q0 163 51.5 275.5t136.5 177t187 91.5t211 27q53 0 102.5 -8.5t97 -28t92 -52t81.5 -79.5q40 47 86 79.5t94 52t95.5 28t94.5 8.5q101 0 190.5 -23.5t166.5 -89t124.5 -191.5t47.5 -320v-62h-703
q8 -52 26 -86.5t46 -53.5t64 -26.5t83 -7.5q41 0 85.5 8.5t86.5 22.5t78.5 31t65.5 34l145 -245q-52 -34 -109.5 -59t-119.5 -41t-127.5 -24t-134.5 -8q-58 0 -111 8t-102.5 26t-94.5 48t-83 72q-36 -43 -79 -73t-90.5 -48t-96.5 -25.5t-101 -7.5zM1210 664h340
q-6 48 -20 80.5t-35 51.5t-50 27t-67 8q-31 0 -57.5 -9t-48 -28.5t-37.5 -52t-25 -77.5zM637 268q49 0 83.5 18.5t56 54t31 86.5t9.5 118q0 63 -9 112t-29.5 85t-55.5 55.5t-86 19.5q-49 0 -83.5 -18t-56 -53t-31 -85t-9.5 -116q0 -63 8.5 -113t29 -87t56 -57t86.5 -20z" />
    <glyph glyph-name="Racute" unicode="&#x154;" horiz-adv-x="1473" 
d="M543 1184v-346h176q64 0 109.5 9.5t75 30t43.5 53.5t14 81t-14 80.5t-43.5 53t-75 29.5t-109.5 9h-176zM543 0h-402v1516h592q150 0 265 -26.5t196 -85t123.5 -153.5t42.5 -229q0 -89 -18.5 -160t-56 -125t-93.5 -93t-131 -64l321 -580h-434l-293 526h-112v-526z
M549 1601l190 371h389l-311 -371h-268z" />
    <glyph glyph-name="racute" unicode="&#x155;" horiz-adv-x="891" 
d="M516 0h-405v1098h405v-170h2q21 35 48.5 66.5t68.5 59.5t97.5 46t127.5 18h4v-358q-7 1 -20 2.5t-28 2.5t-29.5 2t-24.5 1q-41 0 -77 -9t-66.5 -23.5t-54 -31t-48.5 -36.5v-668zM258 1212l190 371h389l-311 -371h-268z" />
    <glyph glyph-name="Rcommaaccent" unicode="&#x156;" horiz-adv-x="1473" 
d="M543 1184v-346h176q64 0 109.5 9.5t75 30t43.5 53.5t14 81t-14 80.5t-43.5 53t-75 29.5t-109.5 9h-176zM543 0h-402v1516h592q150 0 265 -26.5t196 -85t123.5 -153.5t42.5 -229q0 -89 -18.5 -160t-56 -125t-93.5 -93t-131 -64l321 -580h-434l-293 526h-112v-526z
M608 -649l90 233h-145v334h366v-283l-143 -284h-168z" />
    <glyph glyph-name="rcommaaccent" unicode="&#x157;" horiz-adv-x="891" 
d="M516 0h-405v1098h405v-170h2q21 35 48.5 66.5t68.5 59.5t97.5 46t127.5 18h4v-358q-7 1 -20 2.5t-28 2.5t-29.5 2t-24.5 1q-41 0 -77 -9t-66.5 -23.5t-54 -31t-48.5 -36.5v-668zM184 -649l90 233h-145v334h366v-283l-143 -284h-168z" />
    <glyph glyph-name="Rcaron" unicode="&#x158;" horiz-adv-x="1473" 
d="M543 1184v-346h176q64 0 109.5 9.5t75 30t43.5 53.5t14 81t-14 80.5t-43.5 53t-75 29.5t-109.5 9h-176zM543 0h-402v1516h592q150 0 265 -26.5t196 -85t123.5 -153.5t42.5 -229q0 -89 -18.5 -160t-56 -125t-93.5 -93t-131 -64l321 -580h-434l-293 526h-112v-526z
M603 1612l-265 360h228l168 -131l172 131h227l-264 -360h-266z" />
    <glyph glyph-name="rcaron" unicode="&#x159;" horiz-adv-x="891" 
d="M516 0h-405v1098h405v-170h2q21 35 48.5 66.5t68.5 59.5t97.5 46t127.5 18h4v-358q-7 1 -20 2.5t-28 2.5t-29.5 2t-24.5 1q-41 0 -77 -9t-66.5 -23.5t-54 -31t-48.5 -36.5v-668zM312 1223l-265 360h228l168 -131l172 131h227l-264 -360h-266z" />
    <glyph glyph-name="Sacute" unicode="&#x15a;" horiz-adv-x="1452" 
d="M737 -29q-126 0 -231 27t-188.5 75.5t-147.5 114t-115 146.5l303 188q34 -54 78 -96.5t95.5 -72t108.5 -45t116 -15.5q48 0 88 7.5t69.5 23t45.5 41t16 59.5q0 35 -20.5 61t-56.5 45t-81.5 33.5t-111.5 30.5q-152 39 -230 63t-161 73t-135 131t-52 204q0 114 41 203.5
t118 151t183.5 93t235.5 31.5q115 0 212.5 -24.5t175 -66t137.5 -93.5t109 -113l-274 -225q-32 38 -74 72.5t-90.5 61t-99.5 41.5t-99 15q-43 0 -76 -7t-55.5 -21t-33.5 -34.5t-11 -47.5q0 -36 20 -63t55.5 -46.5t81 -33.5t112.5 -31q134 -32 220.5 -59.5t170.5 -78
t136 -134t52 -203.5q0 -95 -35 -181t-111.5 -154t-199.5 -107.5t-291 -39.5zM539 1601l190 371h389l-311 -371h-268z" />
    <glyph glyph-name="sacute" unicode="&#x15b;" horiz-adv-x="1116" 
d="M573 -23q-93 0 -173 12t-146.5 33t-121.5 49.5t-103 63.5l149 227q38 -30 86.5 -54.5t101.5 -42t105.5 -27t99.5 -9.5q27 0 50.5 4t41.5 13t28.5 22.5t10.5 32.5q0 21 -10 36t-30 25t-51.5 17.5t-78.5 13.5q-95 14 -165 31t-136 53.5t-107.5 103t-41.5 167.5
q0 89 34.5 159t96 117t142.5 70.5t175 23.5q88 0 161 -10t133.5 -29t113 -46.5t104.5 -65.5l-149 -224q-45 26 -88.5 46.5t-85 35t-79.5 22t-71 7.5q-26 0 -46.5 -4t-35 -12.5t-22.5 -22t-8 -31.5q0 -19 10.5 -32.5t31 -23t51.5 -16t75 -12.5q94 -12 165 -28t137.5 -50.5
t108 -96.5t41.5 -156q0 -105 -41 -181t-112.5 -122.5t-161 -67.5t-189.5 -21zM371 1212l190 371h389l-311 -371h-268z" />
    <glyph glyph-name="Scircumflex" unicode="&#x15c;" horiz-adv-x="1452" 
d="M737 -29q-126 0 -231 27t-188.5 75.5t-147.5 114t-115 146.5l303 188q34 -54 78 -96.5t95.5 -72t108.5 -45t116 -15.5q48 0 88 7.5t69.5 23t45.5 41t16 59.5q0 35 -20.5 61t-56.5 45t-81.5 33.5t-111.5 30.5q-152 39 -230 63t-161 73t-135 131t-52 204q0 114 41 203.5
t118 151t183.5 93t235.5 31.5q115 0 212.5 -24.5t175 -66t137.5 -93.5t109 -113l-274 -225q-32 38 -74 72.5t-90.5 61t-99.5 41.5t-99 15q-43 0 -76 -7t-55.5 -21t-33.5 -34.5t-11 -47.5q0 -36 20 -63t55.5 -46.5t81 -33.5t112.5 -31q134 -32 220.5 -59.5t170.5 -78
t136 -134t52 -203.5q0 -95 -35 -181t-111.5 -154t-199.5 -107.5t-291 -39.5zM307 1612l265 360h266l264 -360h-227l-172 131l-168 -131h-228z" />
    <glyph glyph-name="scircumflex" unicode="&#x15d;" horiz-adv-x="1116" 
d="M573 -23q-93 0 -173 12t-146.5 33t-121.5 49.5t-103 63.5l149 227q38 -30 86.5 -54.5t101.5 -42t105.5 -27t99.5 -9.5q27 0 50.5 4t41.5 13t28.5 22.5t10.5 32.5q0 21 -10 36t-30 25t-51.5 17.5t-78.5 13.5q-95 14 -165 31t-136 53.5t-107.5 103t-41.5 167.5
q0 89 34.5 159t96 117t142.5 70.5t175 23.5q88 0 161 -10t133.5 -29t113 -46.5t104.5 -65.5l-149 -224q-45 26 -88.5 46.5t-85 35t-79.5 22t-71 7.5q-26 0 -46.5 -4t-35 -12.5t-22.5 -22t-8 -31.5q0 -19 10.5 -32.5t31 -23t51.5 -16t75 -12.5q94 -12 165 -28t137.5 -50.5
t108 -96.5t41.5 -156q0 -105 -41 -181t-112.5 -122.5t-161 -67.5t-189.5 -21zM161 1223l265 360h266l264 -360h-227l-172 131l-168 -131h-228z" />
    <glyph glyph-name="Scedilla" unicode="&#x15e;" horiz-adv-x="1452" 
d="M737 -29q-126 0 -231 27t-188.5 75.5t-147.5 114t-115 146.5l303 188q34 -54 78 -96.5t95.5 -72t108.5 -45t116 -15.5q48 0 88 7.5t69.5 23t45.5 41t16 59.5q0 35 -20.5 61t-56.5 45t-81.5 33.5t-111.5 30.5q-152 39 -230 63t-161 73t-135 131t-52 204q0 114 41 203.5
t118 151t183.5 93t235.5 31.5q115 0 212.5 -24.5t175 -66t137.5 -93.5t109 -113l-274 -225q-32 38 -74 72.5t-90.5 61t-99.5 41.5t-99 15q-43 0 -76 -7t-55.5 -21t-33.5 -34.5t-11 -47.5q0 -36 20 -63t55.5 -46.5t81 -33.5t112.5 -31q134 -32 220.5 -59.5t170.5 -78
t136 -134t52 -203.5q0 -95 -35 -181t-111.5 -154t-199.5 -107.5t-291 -39.5zM762 -420q-50 0 -97 5.5t-88.5 16t-76.5 24.5t-62 32l68 113q22 -15 50 -26.5t57.5 -19.5t59 -12t56.5 -4q18 0 33 3.5t26 11t17 18.5t6 25q0 13 -5 22.5t-13 15.5t-18 8.5t-21 2.5t-20.5 -2
t-18.5 -5.5t-18.5 -9t-20.5 -14.5l-92 45l53 170h156l-21 -86q11 7 25.5 12.5t32 9.5t38.5 6.5t45 2.5q30 0 57 -9.5t48 -28.5t33 -46t12 -62q0 -48 -23 -88.5t-64.5 -70t-96 -45t-117.5 -15.5z" />
    <glyph glyph-name="scedilla" unicode="&#x15f;" horiz-adv-x="1116" 
d="M573 -23q-93 0 -173 12t-146.5 33t-121.5 49.5t-103 63.5l149 227q38 -30 86.5 -54.5t101.5 -42t105.5 -27t99.5 -9.5q27 0 50.5 4t41.5 13t28.5 22.5t10.5 32.5q0 21 -10 36t-30 25t-51.5 17.5t-78.5 13.5q-95 14 -165 31t-136 53.5t-107.5 103t-41.5 167.5
q0 89 34.5 159t96 117t142.5 70.5t175 23.5q88 0 161 -10t133.5 -29t113 -46.5t104.5 -65.5l-149 -224q-45 26 -88.5 46.5t-85 35t-79.5 22t-71 7.5q-26 0 -46.5 -4t-35 -12.5t-22.5 -22t-8 -31.5q0 -19 10.5 -32.5t31 -23t51.5 -16t75 -12.5q94 -12 165 -28t137.5 -50.5
t108 -96.5t41.5 -156q0 -105 -41 -181t-112.5 -122.5t-161 -67.5t-189.5 -21zM594 -420q-50 0 -97 5.5t-88.5 16t-76.5 24.5t-62 32l68 113q22 -15 50 -26.5t57.5 -19.5t59 -12t56.5 -4q18 0 33 3.5t26 11t17 18.5t6 25q0 13 -5 22.5t-13 15.5t-18 8.5t-21 2.5t-20.5 -2
t-18.5 -5.5t-18.5 -9t-20.5 -14.5l-92 45l53 170h156l-21 -86q11 7 25.5 12.5t32 9.5t38.5 6.5t45 2.5q30 0 57 -9.5t48 -28.5t33 -46t12 -62q0 -48 -23 -88.5t-64.5 -70t-96 -45t-117.5 -15.5z" />
    <glyph glyph-name="Scaron" unicode="&#x160;" horiz-adv-x="1452" 
d="M737 -29q-126 0 -231 27t-188.5 75.5t-147.5 114t-115 146.5l303 188q34 -54 78 -96.5t95.5 -72t108.5 -45t116 -15.5q48 0 88 7.5t69.5 23t45.5 41t16 59.5q0 35 -20.5 61t-56.5 45t-81.5 33.5t-111.5 30.5q-152 39 -230 63t-161 73t-135 131t-52 204q0 114 41 203.5
t118 151t183.5 93t235.5 31.5q115 0 212.5 -24.5t175 -66t137.5 -93.5t109 -113l-274 -225q-32 38 -74 72.5t-90.5 61t-99.5 41.5t-99 15q-43 0 -76 -7t-55.5 -21t-33.5 -34.5t-11 -47.5q0 -36 20 -63t55.5 -46.5t81 -33.5t112.5 -31q134 -32 220.5 -59.5t170.5 -78
t136 -134t52 -203.5q0 -95 -35 -181t-111.5 -154t-199.5 -107.5t-291 -39.5zM592 1612l-265 360h228l168 -131l172 131h227l-264 -360h-266z" />
    <glyph glyph-name="scaron" unicode="&#x161;" horiz-adv-x="1116" 
d="M573 -23q-93 0 -173 12t-146.5 33t-121.5 49.5t-103 63.5l149 227q38 -30 86.5 -54.5t101.5 -42t105.5 -27t99.5 -9.5q27 0 50.5 4t41.5 13t28.5 22.5t10.5 32.5q0 21 -10 36t-30 25t-51.5 17.5t-78.5 13.5q-95 14 -165 31t-136 53.5t-107.5 103t-41.5 167.5
q0 89 34.5 159t96 117t142.5 70.5t175 23.5q88 0 161 -10t133.5 -29t113 -46.5t104.5 -65.5l-149 -224q-45 26 -88.5 46.5t-85 35t-79.5 22t-71 7.5q-26 0 -46.5 -4t-35 -12.5t-22.5 -22t-8 -31.5q0 -19 10.5 -32.5t31 -23t51.5 -16t75 -12.5q94 -12 165 -28t137.5 -50.5
t108 -96.5t41.5 -156q0 -105 -41 -181t-112.5 -122.5t-161 -67.5t-189.5 -21zM424 1223l-265 360h228l168 -131l172 131h227l-264 -360h-266z" />
    <glyph glyph-name="Tcaron" unicode="&#x164;" horiz-adv-x="1352" 
d="M881 0h-410v1176h-436v340h1282v-340h-436v-1176zM543 1612l-265 360h228l168 -131l172 131h227l-264 -360h-266z" />
    <glyph glyph-name="tcaron" unicode="&#x165;" horiz-adv-x="926" 
d="M741 1225l86 221h-139v317h350v-268l-137 -270h-160zM610 -14q-136 0 -218 23t-122.5 66.5t-53.5 103.5t-13 151v477h-178v291h178v368h405v-368h281v-291h-281v-387q0 -45 6.5 -73t22.5 -44t43 -22.5t72 -6.5q12 0 27.5 1t31 3t28 4.5t19.5 4.5v-283q-7 -2 -35.5 -5
t-67 -6t-77.5 -5t-68 -2z" />
    <glyph glyph-name="Tbar" unicode="&#x166;" horiz-adv-x="1352" 
d="M1317 518h-436v-518h-410v518h-436v299h436v359h-436v340h1282v-340h-436v-359h436v-299z" />
    <glyph glyph-name="tbar" unicode="&#x167;" horiz-adv-x="926" 
d="M858 4q-7 -2 -35.5 -5t-67 -6t-77.5 -5t-68 -2q-136 0 -218 23t-122.5 66.5t-53.5 103.5t-13 151v102h-178v250h178v125h-178v291h178v368h405v-368h281v-291h-281v-125h281v-250h-281v-12q0 -45 6.5 -73t22.5 -44t43 -22.5t72 -6.5q12 0 27.5 1t31 3t28 4.5t19.5 4.5
v-283z" />
    <glyph glyph-name="Utilde" unicode="&#x168;" horiz-adv-x="1493" 
d="M748 -23q-164 0 -285 41.5t-199 122.5t-115.5 198t-37.5 269v908h409v-906q0 -79 13.5 -136t41.5 -94t71.5 -55t105.5 -18q61 0 104.5 18t71 55t40.5 94t13 136v906h401v-908q0 -152 -37.5 -269t-115 -198t-197.5 -122.5t-284 -41.5zM909 1577q-55 0 -94.5 15.5t-84 46.5
t-64 42t-49.5 11q-20 0 -35.5 -6t-26.5 -19.5t-16.5 -34.5t-5.5 -51h-213q0 96 19 166t54.5 114.5t85 65.5t111.5 21q55 0 95 -15.5t85 -46.5t64 -42t49 -11q20 0 35 6t26 19.5t17 34.5t6 50h213q0 -96 -19 -166t-55 -114t-85.5 -65t-111.5 -21z" />
    <glyph glyph-name="utilde" unicode="&#x169;" horiz-adv-x="1296" 
d="M416 -23q-67 0 -124 17t-100 54.5t-67.5 99t-24.5 147.5v803h406v-680q0 -29 5 -51t16 -37t28.5 -23t42.5 -8t49.5 6t47 16.5t43.5 24.5t42 31v721h406v-1098h-406v168q-20 -32 -51 -64.5t-76 -61.5t-105 -47t-132 -18zM806 1188q-55 0 -94.5 15.5t-84 46.5t-64 42
t-49.5 11q-20 0 -35.5 -6t-26.5 -19.5t-16.5 -34.5t-5.5 -51h-213q0 96 19 166t54.5 114.5t85 65.5t111.5 21q55 0 95 -15.5t85 -46.5t64 -42t49 -11q20 0 35 6t26 19.5t17 34.5t6 50h213q0 -96 -19 -166t-55 -114t-85.5 -65t-111.5 -21z" />
    <glyph glyph-name="Umacron" unicode="&#x16a;" horiz-adv-x="1493" 
d="M748 -23q-164 0 -285 41.5t-199 122.5t-115.5 198t-37.5 269v908h409v-906q0 -79 13.5 -136t41.5 -94t71.5 -55t105.5 -18q61 0 104.5 18t71 55t40.5 94t13 136v906h401v-908q0 -152 -37.5 -269t-115 -198t-197.5 -122.5t-284 -41.5zM385 1587v279h720v-279h-720z" />
    <glyph glyph-name="umacron" unicode="&#x16b;" horiz-adv-x="1296" 
d="M416 -23q-67 0 -124 17t-100 54.5t-67.5 99t-24.5 147.5v803h406v-680q0 -29 5 -51t16 -37t28.5 -23t42.5 -8t49.5 6t47 16.5t43.5 24.5t42 31v721h406v-1098h-406v168q-20 -32 -51 -64.5t-76 -61.5t-105 -47t-132 -18zM287 1198v279h720v-279h-720z" />
    <glyph glyph-name="Ubreve" unicode="&#x16c;" horiz-adv-x="1493" 
d="M748 -23q-164 0 -285 41.5t-199 122.5t-115.5 198t-37.5 269v908h409v-906q0 -79 13.5 -136t41.5 -94t71.5 -55t105.5 -18q61 0 104.5 18t71 55t40.5 94t13 136v906h401v-908q0 -152 -37.5 -269t-115 -198t-197.5 -122.5t-284 -41.5zM750 1575q-92 0 -163.5 31t-119 85.5
t-73 126t-29.5 154.5h211q6 -51 24.5 -82t43.5 -46.5t51 -20t55 -4.5t55 4.5t51 20t43.5 46.5t24.5 82h211q-4 -83 -29.5 -154.5t-73 -126t-119 -85.5t-163.5 -31z" />
    <glyph glyph-name="ubreve" unicode="&#x16d;" horiz-adv-x="1296" 
d="M416 -23q-67 0 -124 17t-100 54.5t-67.5 99t-24.5 147.5v803h406v-680q0 -29 5 -51t16 -37t28.5 -23t42.5 -8t49.5 6t47 16.5t43.5 24.5t42 31v721h406v-1098h-406v168q-20 -32 -51 -64.5t-76 -61.5t-105 -47t-132 -18zM647 1186q-92 0 -163.5 31t-119 85.5t-73 126
t-29.5 154.5h211q6 -51 24.5 -82t43.5 -46.5t51 -20t55 -4.5t55 4.5t51 20t43.5 46.5t24.5 82h211q-4 -83 -29.5 -154.5t-73 -126t-119 -85.5t-163.5 -31z" />
    <glyph glyph-name="Uring" unicode="&#x16e;" horiz-adv-x="1493" 
d="M748 -23q-164 0 -285 41.5t-199 122.5t-115.5 198t-37.5 269v908h409v-906q0 -79 13.5 -136t41.5 -94t71.5 -55t105.5 -18q61 0 104.5 18t71 55t40.5 94t13 136v906h401v-908q0 -152 -37.5 -269t-115 -198t-197.5 -122.5t-284 -41.5zM746 1583q-51 0 -95 18t-76.5 50.5
t-50.5 76.5t-18 95q0 50 18 93.5t50.5 75.5t76.5 50t95 18t95 -18t76.5 -50t50.5 -75.5t18 -93.5q0 -51 -18 -95t-50.5 -76.5t-76.5 -50.5t-95 -18zM746 1730q19 0 35 6.5t28 19t18.5 29.5t6.5 38q0 19 -6.5 35.5t-18.5 28.5t-28 19t-35 7t-35 -7t-28 -19t-18.5 -28.5
t-6.5 -35.5q0 -21 6.5 -38t18.5 -29.5t28 -19t35 -6.5z" />
    <glyph glyph-name="uring" unicode="&#x16f;" horiz-adv-x="1296" 
d="M416 -23q-67 0 -124 17t-100 54.5t-67.5 99t-24.5 147.5v803h406v-680q0 -29 5 -51t16 -37t28.5 -23t42.5 -8t49.5 6t47 16.5t43.5 24.5t42 31v721h406v-1098h-406v168q-20 -32 -51 -64.5t-76 -61.5t-105 -47t-132 -18zM647 1194q-51 0 -95 18t-76.5 50.5t-50.5 76.5
t-18 95q0 50 18 93.5t50.5 75.5t76.5 50t95 18t95 -18t76.5 -50t50.5 -75.5t18 -93.5q0 -51 -18 -95t-50.5 -76.5t-76.5 -50.5t-95 -18zM647 1341q19 0 35 6.5t28 19t18.5 29.5t6.5 38q0 19 -6.5 35.5t-18.5 28.5t-28 19t-35 7t-35 -7t-28 -19t-18.5 -28.5t-6.5 -35.5
q0 -21 6.5 -38t18.5 -29.5t28 -19t35 -6.5z" />
    <glyph glyph-name="Uhungarumlaut" unicode="&#x170;" horiz-adv-x="1493" 
d="M748 -23q-164 0 -285 41.5t-199 122.5t-115.5 198t-37.5 269v908h409v-906q0 -79 13.5 -136t41.5 -94t71.5 -55t105.5 -18q61 0 104.5 18t71 55t40.5 94t13 136v906h401v-908q0 -152 -37.5 -269t-115 -198t-197.5 -122.5t-284 -41.5zM770 1601l242 371h389l-362 -371
h-269zM353 1601l221 371h389l-342 -371h-268z" />
    <glyph glyph-name="uhungarumlaut" unicode="&#x171;" horiz-adv-x="1296" 
d="M416 -23q-67 0 -124 17t-100 54.5t-67.5 99t-24.5 147.5v803h406v-680q0 -29 5 -51t16 -37t28.5 -23t42.5 -8t49.5 6t47 16.5t43.5 24.5t42 31v721h406v-1098h-406v168q-20 -32 -51 -64.5t-76 -61.5t-105 -47t-132 -18zM696 1212l242 371h389l-362 -371h-269zM279 1212
l221 371h389l-342 -371h-268z" />
    <glyph glyph-name="Uogonek" unicode="&#x172;" horiz-adv-x="1493" 
d="M748 -23q-164 0 -285 41.5t-199 122.5t-115.5 198t-37.5 269v908h409v-906q0 -79 13.5 -136t41.5 -94t71.5 -55t105.5 -18q61 0 104.5 18t71 55t40.5 94t13 136v906h401v-908q0 -152 -37.5 -269t-115 -198t-197.5 -122.5t-284 -41.5zM796 -383q-60 0 -106 10.5t-76.5 31
t-46 50t-15.5 66.5q0 33 14 66.5t39.5 64.5t60.5 59t77 51h205q-39 -24 -65.5 -48t-41.5 -46t-21.5 -42t-6.5 -40q0 -14 3.5 -26t13 -22.5t27 -16.5t44.5 -6q30 0 55 5t43.5 12.5t28 13.5t32.5 20l78 -119q-32 -20 -68.5 -35t-78.5 -26t-91 -17t-104 -6z" />
    <glyph glyph-name="uogonek" unicode="&#x173;" horiz-adv-x="1296" 
d="M416 -23q-67 0 -124 17t-100 54.5t-67.5 99t-24.5 147.5v803h406v-680q0 -29 5 -51t16 -37t28.5 -23t42.5 -8t49.5 6t47 16.5t43.5 24.5t42 31v721h406v-1098h-406v168q-20 -32 -51 -64.5t-76 -61.5t-105 -47t-132 -18zM852 -383q-60 0 -106 10.5t-76.5 31t-46 50
t-15.5 66.5q0 33 14 66.5t39.5 64.5t60.5 59t77 51h205q-39 -24 -65.5 -48t-41.5 -46t-21.5 -42t-6.5 -40q0 -14 3.5 -26t13 -22.5t27 -16.5t44.5 -6q30 0 55 5t43.5 12.5t28 13.5t32.5 20l78 -119q-32 -20 -68.5 -35t-78.5 -26t-91 -17t-104 -6z" />
    <glyph glyph-name="Wcircumflex" unicode="&#x174;" horiz-adv-x="1985" 
d="M780 0h-348l-403 1516h411l129 -596q14 -56 20.5 -83t14.5 -62.5t15.5 -77t15.5 -91.5h4q6 48 13.5 89t14.5 75t18.5 84t14.5 64l125 598h371l135 -601q2 -7 16 -61.5t21.5 -85.5t15 -70.5t15.5 -91.5h4q6 51 12.5 89t12 64.5t15.5 72.5t17 79l121 605h375l-393 -1516
h-342l-207 948h-4zM594 1612l265 360h266l264 -360h-227l-172 131l-168 -131h-228z" />
    <glyph glyph-name="wcircumflex" unicode="&#x175;" horiz-adv-x="1610" 
d="M672 0h-375l-313 1098h405l72 -334q10 -43 17.5 -77.5t14 -70.5t13.5 -78t14 -94h4q8 51 16 94t16 80.5t16.5 74t19.5 81.5l74 324h307l80 -328q11 -41 19.5 -77t16.5 -73.5t16 -80t17 -95.5h4l16.5 93.5t15.5 79.5t16.5 72.5t19.5 76.5l78 332h354l-313 -1098h-375
l-133 575h-4zM407 1223l265 360h266l264 -360h-227l-172 131l-168 -131h-228z" />
    <glyph glyph-name="Ycircumflex" unicode="&#x176;" horiz-adv-x="1477" 
d="M942 0h-410v633l-528 883h422l313 -537l316 537h418l-531 -883v-633zM340 1612l265 360h266l264 -360h-227l-172 131l-168 -131h-228z" />
    <glyph glyph-name="ycircumflex" unicode="&#x177;" horiz-adv-x="1176" 
d="M336 -420q-69 0 -126.5 4t-101 11t-75 14t-62.5 16l84 312q16 -5 37.5 -10t52 -10.5t67 -9t75.5 -3.5q20 0 36 3t29 10t22.5 19.5t16.5 30.5l10 27l-417 1104h415l203 -627h4l203 627h391l-459 -1209q-28 -74 -63 -130t-83 -96t-112.5 -61.5t-146.5 -21.5zM206 1223
l265 360h266l264 -360h-227l-172 131l-168 -131h-228z" />
    <glyph glyph-name="Ydieresis" unicode="&#x178;" horiz-adv-x="1477" 
d="M942 0h-410v633l-528 883h422l313 -537l316 537h418l-531 -883v-633zM806 1587v358h328v-358h-328zM342 1587v358h327v-358h-327z" />
    <glyph glyph-name="Zacute" unicode="&#x179;" horiz-adv-x="1382" 
d="M1313 0h-1262v281l742 895h-693v340h1213v-291l-721 -895h721v-330zM463 1601l190 371h389l-311 -371h-268z" />
    <glyph glyph-name="zacute" unicode="&#x17a;" horiz-adv-x="1106" 
d="M1071 0h-1022v203l475 604h-442v291h944v-211l-477 -604h522v-283zM367 1212l190 371h389l-311 -371h-268z" />
    <glyph glyph-name="Zdotaccent" unicode="&#x17b;" horiz-adv-x="1382" 
d="M1313 0h-1262v281l742 895h-693v340h1213v-291l-721 -895h721v-330zM487 1634v311h406v-311h-406z" />
    <glyph glyph-name="zdotaccent" unicode="&#x17c;" horiz-adv-x="1106" 
d="M1071 0h-1022v203l475 604h-442v291h944v-211l-477 -604h522v-283zM350 1245v311h406v-311h-406z" />
    <glyph glyph-name="Zcaron" unicode="&#x17d;" horiz-adv-x="1382" 
d="M1313 0h-1262v281l742 895h-693v340h1213v-291l-721 -895h721v-330zM578 1612l-265 360h228l168 -131l172 131h227l-264 -360h-266z" />
    <glyph glyph-name="zcaron" unicode="&#x17e;" horiz-adv-x="1106" 
d="M1071 0h-1022v203l475 604h-442v291h944v-211l-477 -604h522v-283zM431 1223l-265 360h228l168 -131l172 131h227l-264 -360h-266z" />
    <glyph glyph-name="florin" unicode="&#x192;" horiz-adv-x="934" 
d="M-180 -399l33 266q7 -2 19 -4.5t27 -4t30 -2.5t28 -1q38 0 66 9t48 28t32 49.5t18 74.5l92 746h-188l32 274h189l12 103q8 80 29 146t70 121t137 87.5t221 32.5q28 0 67 -2t77 -5t66 -6.5t36 -5.5l-35 -276q-7 2 -19.5 4.5t-27.5 4t-30 2.5t-28 1q-34 0 -58 -3t-46 -14.5
t-36.5 -36.5t-18.5 -67l-11 -86h238l-33 -274h-238l-102 -836q-8 -69 -28.5 -126.5t-68 -107t-134.5 -80t-219 -30.5q-29 0 -68 2t-77 5t-66 6t-35 6z" />
    <glyph glyph-name="Scommaaccent" unicode="&#x218;" horiz-adv-x="1452" 
d="M737 -29q-126 0 -231 27t-188.5 75.5t-147.5 114t-115 146.5l303 188q34 -54 78 -96.5t95.5 -72t108.5 -45t116 -15.5q48 0 88 7.5t69.5 23t45.5 41t16 59.5q0 35 -20.5 61t-56.5 45t-81.5 33.5t-111.5 30.5q-152 39 -230 63t-161 73t-135 131t-52 204q0 114 41 203.5
t118 151t183.5 93t235.5 31.5q115 0 212.5 -24.5t175 -66t137.5 -93.5t109 -113l-274 -225q-32 38 -74 72.5t-90.5 61t-99.5 41.5t-99 15q-43 0 -76 -7t-55.5 -21t-33.5 -34.5t-11 -47.5q0 -36 20 -63t55.5 -46.5t81 -33.5t112.5 -31q134 -32 220.5 -59.5t170.5 -78
t136 -134t52 -203.5q0 -95 -35 -181t-111.5 -154t-199.5 -107.5t-291 -39.5zM598 -649l90 233h-145v334h366v-283l-143 -284h-168z" />
    <glyph glyph-name="scommaaccent" unicode="&#x219;" horiz-adv-x="1116" 
d="M573 -23q-93 0 -173 12t-146.5 33t-121.5 49.5t-103 63.5l149 227q38 -30 86.5 -54.5t101.5 -42t105.5 -27t99.5 -9.5q27 0 50.5 4t41.5 13t28.5 22.5t10.5 32.5q0 21 -10 36t-30 25t-51.5 17.5t-78.5 13.5q-95 14 -165 31t-136 53.5t-107.5 103t-41.5 167.5
q0 89 34.5 159t96 117t142.5 70.5t175 23.5q88 0 161 -10t133.5 -29t113 -46.5t104.5 -65.5l-149 -224q-45 26 -88.5 46.5t-85 35t-79.5 22t-71 7.5q-26 0 -46.5 -4t-35 -12.5t-22.5 -22t-8 -31.5q0 -19 10.5 -32.5t31 -23t51.5 -16t75 -12.5q94 -12 165 -28t137.5 -50.5
t108 -96.5t41.5 -156q0 -105 -41 -181t-112.5 -122.5t-161 -67.5t-189.5 -21zM430 -649l90 233h-145v334h366v-283l-143 -284h-168z" />
    <glyph glyph-name="Tcommaaccent" unicode="&#x21a;" horiz-adv-x="1352" 
d="M881 0h-410v1176h-436v340h1282v-340h-436v-1176zM549 -649l90 233h-145v334h366v-283l-143 -284h-168z" />
    <glyph glyph-name="tcommaaccent" unicode="&#x21b;" horiz-adv-x="926" 
d="M610 -14q-136 0 -218 23t-122.5 66.5t-53.5 103.5t-13 151v477h-178v291h178v368h405v-368h281v-291h-281v-387q0 -45 6.5 -73t22.5 -44t43 -22.5t72 -6.5q12 0 27.5 1t31 3t28 4.5t19.5 4.5v-283q-7 -2 -35.5 -5t-67 -6t-77.5 -5t-68 -2zM309 -649l90 233h-145v334h366
v-283l-143 -284h-168z" />
    <glyph glyph-name="schwa" unicode="&#x259;" horiz-adv-x="1208" 
d="M565 1118q121 0 225.5 -28t187.5 -93t131 -176.5t48 -271.5q0 -156 -55 -268t-143.5 -178.5t-187.5 -96t-191 -29.5q-96 0 -185 23.5t-167.5 89.5t-127.5 192t-49 320v62h703q-8 52 -26 87t-46 55t-64 28t-83 8q-41 0 -85 -9t-86 -24t-78.5 -32.5t-66.5 -35.5l-145 246
q52 33 109.5 58t119.5 41t127.5 24t134.5 8zM750 432h-340q6 -48 20 -81.5t35.5 -53.5t50 -28.5t66.5 -8.5q31 0 57 9.5t48 30t38 53.5t25 79z" />
    <glyph glyph-name="circumflex" unicode="&#x2c6;" horiz-adv-x="1167" 
d="M186 1223l265 360h266l264 -360h-227l-172 131l-168 -131h-228z" />
    <glyph glyph-name="caron" unicode="&#x2c7;" horiz-adv-x="1167" 
d="M451 1223l-265 360h228l168 -131l172 131h227l-264 -360h-266z" />
    <glyph glyph-name="uni02C9" unicode="&#x2c9;" horiz-adv-x="1024" 
d="M152 1198v279h720v-279h-720z" />
    <glyph glyph-name="breve" unicode="&#x2d8;" horiz-adv-x="1024" 
d="M512 1186q-92 0 -163.5 31t-119 85.5t-73 126t-29.5 154.5h211q6 -51 24.5 -82t43.5 -46.5t51 -20t55 -4.5t55 4.5t51 20t43.5 46.5t24.5 82h211q-4 -83 -29.5 -154.5t-73 -126t-119 -85.5t-163.5 -31z" />
    <glyph glyph-name="dotaccent" unicode="&#x2d9;" horiz-adv-x="1024" 
d="M309 1245v311h406v-311h-406z" />
    <glyph glyph-name="ring" unicode="&#x2da;" horiz-adv-x="1106" 
d="M553 1194q-51 0 -95 18t-76.5 50.5t-50.5 76.5t-18 95q0 50 18 93.5t50.5 75.5t76.5 50t95 18t95 -18t76.5 -50t50.5 -75.5t18 -93.5q0 -51 -18 -95t-50.5 -76.5t-76.5 -50.5t-95 -18zM553 1341q19 0 35 6.5t28 19t18.5 29.5t6.5 38q0 19 -6.5 35.5t-18.5 28.5t-28 19
t-35 7t-35 -7t-28 -19t-18.5 -28.5t-6.5 -35.5q0 -21 6.5 -38t18.5 -29.5t28 -19t35 -6.5z" />
    <glyph glyph-name="ogonek" unicode="&#x2db;" horiz-adv-x="1024" 
d="M563 -383q-60 0 -106 10.5t-76.5 31t-46 50t-15.5 66.5q0 33 14 66.5t39.5 64.5t60.5 59t77 51h205q-39 -24 -65.5 -48t-41.5 -46t-21.5 -42t-6.5 -40q0 -14 3.5 -26t13 -22.5t27 -16.5t44.5 -6q30 0 55 5t43.5 12.5t28 13.5t32.5 20l78 -119q-32 -20 -68.5 -35
t-78.5 -26t-91 -17t-104 -6z" />
    <glyph glyph-name="tilde" unicode="&#x2dc;" horiz-adv-x="1085" 
d="M702 1188q-55 0 -94.5 15.5t-84 46.5t-64 42t-49.5 11q-20 0 -35.5 -6t-26.5 -19.5t-16.5 -34.5t-5.5 -51h-213q0 96 19 166t54.5 114.5t85 65.5t111.5 21q55 0 95 -15.5t85 -46.5t64 -42t49 -11q20 0 35 6t26 19.5t17 34.5t6 50h213q0 -96 -19 -166t-55 -114t-85.5 -65
t-111.5 -21z" />
    <glyph glyph-name="hungarumlaut" unicode="&#x2dd;" horiz-adv-x="1096" 
d="M489 1212l242 371h389l-362 -371h-269zM72 1212l221 371h389l-342 -371h-268z" />
    <glyph glyph-name="Delta" unicode="&#x394;" horiz-adv-x="1495" 
d="M20 0l537 1522h381l537 -1522h-1455zM504 330h454l-221 663h-4z" />
    <glyph glyph-name="Omega" unicode="&#x3a9;" horiz-adv-x="1618" 
d="M809 1544q167 0 302 -60t227.5 -162.5t140 -230.5t47.5 -262q0 -67 -14 -134t-44 -132t-76 -124.5t-108 -108.5h229v-330h-567v330q51 64 84 120.5t51.5 113.5t26.5 120t8 143q0 74 -19.5 142t-59 121.5t-98 84.5t-134.5 31q-74 0 -131.5 -30.5t-95.5 -83t-57 -119
t-19 -139.5q0 -81 8 -145t27 -122t51.5 -115.5t83.5 -121.5v-330h-568v330h230q-62 49 -108 109.5t-75.5 126.5t-44 132.5t-14.5 130.5q0 134 47.5 262t140 230.5t227.5 162.5t302 60z" />
    <glyph glyph-name="mu" unicode="&#x3bc;" horiz-adv-x="1307" 
d="M791 168q-17 -27 -41.5 -54t-58.5 -53t-78 -46t-97 -29v-398h-405v1510h405v-680q0 -29 5 -51t16 -37t28.5 -23t42.5 -8t49.5 6t47 16.5t43.5 24.5t43 31v721h405v-1098h-405v168z" />
    <glyph glyph-name="pi" unicode="&#x3c0;" horiz-adv-x="1442" 
d="M12 807v291h1418v-291h-166v-807h-406v807h-274v-807h-406v807h-166z" />
    <glyph glyph-name="Wgrave" unicode="&#x1e80;" horiz-adv-x="1985" 
d="M780 0h-348l-403 1516h411l129 -596q14 -56 20.5 -83t14.5 -62.5t15.5 -77t15.5 -91.5h4q6 48 13.5 89t14.5 75t18.5 84t14.5 64l125 598h371l135 -601q2 -7 16 -61.5t21.5 -85.5t15 -70.5t15.5 -91.5h4q6 51 12.5 89t12 64.5t15.5 72.5t17 79l121 605h375l-393 -1516
h-342l-207 948h-4zM870 1601l-311 371h389l190 -371h-268z" />
    <glyph glyph-name="wgrave" unicode="&#x1e81;" horiz-adv-x="1610" 
d="M672 0h-375l-313 1098h405l72 -334q10 -43 17.5 -77.5t14 -70.5t13.5 -78t14 -94h4q8 51 16 94t16 80.5t16.5 74t19.5 81.5l74 324h307l80 -328q11 -41 19.5 -77t16.5 -73.5t16 -80t17 -95.5h4l16.5 93.5t15.5 79.5t16.5 72.5t19.5 76.5l78 332h354l-313 -1098h-375
l-133 575h-4zM682 1212l-311 371h389l190 -371h-268z" />
    <glyph glyph-name="Wacute" unicode="&#x1e82;" horiz-adv-x="1985" 
d="M780 0h-348l-403 1516h411l129 -596q14 -56 20.5 -83t14.5 -62.5t15.5 -77t15.5 -91.5h4q6 48 13.5 89t14.5 75t18.5 84t14.5 64l125 598h371l135 -601q2 -7 16 -61.5t21.5 -85.5t15 -70.5t15.5 -91.5h4q6 51 12.5 89t12 64.5t15.5 72.5t17 79l121 605h375l-393 -1516
h-342l-207 948h-4zM869 1601l190 371h389l-311 -371h-268z" />
    <glyph glyph-name="wacute" unicode="&#x1e83;" horiz-adv-x="1610" 
d="M672 0h-375l-313 1098h405l72 -334q10 -43 17.5 -77.5t14 -70.5t13.5 -78t14 -94h4q8 51 16 94t16 80.5t16.5 74t19.5 81.5l74 324h307l80 -328q11 -41 19.5 -77t16.5 -73.5t16 -80t17 -95.5h4l16.5 93.5t15.5 79.5t16.5 72.5t19.5 76.5l78 332h354l-313 -1098h-375
l-133 575h-4zM680 1212l190 371h389l-311 -371h-268z" />
    <glyph glyph-name="Wdieresis" unicode="&#x1e84;" horiz-adv-x="1985" 
d="M780 0h-348l-403 1516h411l129 -596q14 -56 20.5 -83t14.5 -62.5t15.5 -77t15.5 -91.5h4q6 48 13.5 89t14.5 75t18.5 84t14.5 64l125 598h371l135 -601q2 -7 16 -61.5t21.5 -85.5t15 -70.5t15.5 -91.5h4q6 51 12.5 89t12 64.5t15.5 72.5t17 79l121 605h375l-393 -1516
h-342l-207 948h-4zM1054 1587v358h328v-358h-328zM590 1587v358h327v-358h-327z" />
    <glyph glyph-name="wdieresis" unicode="&#x1e85;" horiz-adv-x="1610" 
d="M672 0h-375l-313 1098h405l72 -334q10 -43 17.5 -77.5t14 -70.5t13.5 -78t14 -94h4q8 51 16 94t16 80.5t16.5 74t19.5 81.5l74 324h307l80 -328q11 -41 19.5 -77t16.5 -73.5t16 -80t17 -95.5h4l16.5 93.5t15.5 79.5t16.5 72.5t19.5 76.5l78 332h354l-313 -1098h-375
l-133 575h-4zM868 1198v358h328v-358h-328zM404 1198v358h327v-358h-327z" />
    <glyph glyph-name="Ygrave" unicode="&#x1ef2;" horiz-adv-x="1477" 
d="M942 0h-410v633l-528 883h422l313 -537l316 537h418l-531 -883v-633zM696 1601l-311 371h389l190 -371h-268z" />
    <glyph glyph-name="ygrave" unicode="&#x1ef3;" horiz-adv-x="1176" 
d="M336 -420q-69 0 -126.5 4t-101 11t-75 14t-62.5 16l84 312q16 -5 37.5 -10t52 -10.5t67 -9t75.5 -3.5q20 0 36 3t29 10t22.5 19.5t16.5 30.5l10 27l-417 1104h415l203 -627h4l203 627h391l-459 -1209q-28 -74 -63 -130t-83 -96t-112.5 -61.5t-146.5 -21.5zM496 1212
l-311 371h389l190 -371h-268z" />
    <glyph glyph-name="space.en" unicode="&#x2002;" horiz-adv-x="1024" 
 />
    <glyph glyph-name="space.em" unicode="&#x2003;" horiz-adv-x="2048" 
 />
    <glyph glyph-name="space.tab_en" unicode="&#x2007;" 
 />
    <glyph glyph-name="space.thin" unicode="&#x2009;" horiz-adv-x="410" 
 />
    <glyph glyph-name="endash.tab" unicode="&#x2012;" 
d="M61 467v338h1209v-338h-1209z" />
    <glyph glyph-name="endash" unicode="&#x2013;" horiz-adv-x="1413" 
d="M1311 467h-1209v338h1209v-338z" />
    <glyph glyph-name="emdash" unicode="&#x2014;" horiz-adv-x="1946" 
d="M1843 465h-1741v340h1741v-340z" />
    <glyph glyph-name="emdash.salt_em" unicode="&#x2015;" horiz-adv-x="2048" 
d="M0 465v340h2048v-340h-2048z" />
    <glyph glyph-name="quoteleft" unicode="&#x2018;" horiz-adv-x="588" 
d="M496 887h-404v336l182 293h189l-103 -261h136v-368z" />
    <glyph glyph-name="quoteright" unicode="&#x2019;" horiz-adv-x="588" 
d="M313 887h-188l102 260h-135v369h404v-336z" />
    <glyph glyph-name="quotesinglbase" unicode="&#x201a;" horiz-adv-x="588" 
d="M313 -260h-188l102 260h-135v369h404v-336z" />
    <glyph glyph-name="quotedblleft" unicode="&#x201c;" horiz-adv-x="1122" 
d="M496 887h-404v336l182 293h189l-103 -261h136v-368zM1030 887h-403v336l182 293h188l-102 -261h135v-368z" />
    <glyph glyph-name="quotedblright" unicode="&#x201d;" horiz-adv-x="1122" 
d="M313 887h-188l102 260h-135v369h404v-336zM848 887h-189l103 260h-135v369h403v-336z" />
    <glyph glyph-name="quotedblbase" unicode="&#x201e;" horiz-adv-x="1122" 
d="M313 -260h-188l102 260h-135v369h404v-336zM848 -260h-189l103 260h-135v369h403v-336z" />
    <glyph glyph-name="dagger" unicode="&#x2020;" horiz-adv-x="1296" 
d="M858 -410h-420l62 1119l-453 -39v366l453 -41l-62 521h420l-61 -521l452 41v-366l-452 39z" />
    <glyph glyph-name="daggerdbl" unicode="&#x2021;" horiz-adv-x="1296" 
d="M858 -410h-420l62 392l-402 -41v346l402 -39l-54 303l54 305l-402 -39v346l402 -41l-62 394h420l-61 -394l401 41v-346l-401 39l53 -305l-53 -303l401 39v-346l-401 41z" />
    <glyph glyph-name="bullet" unicode="&#x2022;" horiz-adv-x="948" 
d="M473 424q-62 0 -116 22t-93.5 61.5t-61.5 93.5t-22 116q0 63 22 117t61.5 94t93.5 62t116 22q63 0 117 -22t94 -62t62 -94t22 -117q0 -62 -22 -116t-62 -93.5t-94 -61.5t-117 -22z" />
    <glyph glyph-name="ellipsis" unicode="&#x2026;" horiz-adv-x="1763" 
d="M1094 0h-424v369h424v-369zM506 0h-424v369h424v-369zM1681 0h-424v369h424v-369z" />
    <glyph glyph-name="perthousand" unicode="&#x2030;" horiz-adv-x="3332" 
d="M512 516q-101 0 -182.5 36t-138.5 104t-87 163t-30 211q0 115 30 209.5t87 162.5t138.5 104t182.5 36q100 0 181 -36t138 -104t87 -162.5t30 -209.5q0 -116 -30 -211t-87 -163t-138 -104t-181 -36zM911 0h-344l906 1516h344zM512 764q31 0 52 17t33.5 50.5t18 82.5
t5.5 116q0 66 -5.5 114t-18.5 80.5t-34 49t-51 16.5q-32 0 -53.5 -16.5t-35 -49t-19 -80.5t-5.5 -114t6 -115.5t19 -83t35 -50.5t53 -17zM2822 -20q-101 0 -182.5 36t-138.5 104t-87 163t-30 211q0 115 30 209.5t87 162.5t138.5 104t182.5 36q100 0 181 -36t138 -104
t87 -162.5t30 -209.5q0 -116 -30 -211t-87 -163t-138 -104t-181 -36zM1876 -20q-101 0 -182.5 36t-138.5 104t-87 163t-30 211q0 115 30 209.5t87 162.5t138.5 104t182.5 36q100 0 181 -36t138 -104t87 -162.5t30 -209.5q0 -116 -30 -211t-87 -163t-138 -104t-181 -36z
M2822 227q31 0 52 17.5t33.5 51t18 82.5t5.5 116q0 66 -5.5 114t-18.5 80.5t-34 49t-51 16.5q-32 0 -53.5 -16.5t-34.5 -49t-18.5 -80.5t-5.5 -114t6 -115.5t19 -83t34.5 -51t52.5 -17.5zM1876 227q31 0 52 17.5t33.5 51t18 82.5t5.5 116q0 66 -5.5 114t-18.5 80.5t-34 49
t-51 16.5q-32 0 -53.5 -16.5t-35 -49t-19 -80.5t-5.5 -114t6 -115.5t19 -83t35 -51t53 -17.5z" />
    <glyph glyph-name="minute" unicode="&#x2032;" horiz-adv-x="565" 
d="M98 948l37 402l29 166h336l-135 -568h-267z" />
    <glyph glyph-name="second" unicode="&#x2033;" horiz-adv-x="987" 
d="M520 948l37 402l29 166h336l-136 -568h-266zM98 948l37 402l29 166h336l-135 -568h-267z" />
    <glyph glyph-name="guilsinglleft" unicode="&#x2039;" horiz-adv-x="805" 
d="M768 0h-381l-356 549l356 549h381l-338 -549z" />
    <glyph glyph-name="guilsinglright" unicode="&#x203a;" horiz-adv-x="805" 
d="M418 0h-381l338 549l-338 549h381l356 -549z" />
    <glyph glyph-name="fraction" unicode="&#x2044;" horiz-adv-x="1180" 
d="M309 0h-344l905 1516h344z" />
    <glyph glyph-name="zero.sups" unicode="&#x2070;" horiz-adv-x="1139" 
d="M569 506q-111 0 -197.5 36t-145.5 104t-89.5 162.5t-30.5 211.5q0 116 30.5 211t89.5 162.5t146 104t197 36.5t197 -36.5t146 -104t89.5 -162.5t30.5 -211q0 -117 -30.5 -211.5t-89.5 -162.5t-145.5 -104t-197.5 -36zM569 754q41 0 68 17.5t42 51.5t21.5 82t6.5 115
q0 65 -6.5 112.5t-22 80.5t-42.5 50t-67 17q-41 0 -68.5 -17t-42.5 -50t-21.5 -80t-6.5 -113t7 -114.5t22.5 -82.5t42.5 -51.5t67 -17.5z" />
    <glyph glyph-name="four.sups" unicode="&#x2074;" horiz-adv-x="1065" 
d="M526 524v193h-442v198l434 601h326v-560h153v-239h-153v-193h-318zM371 936h176v254z" />
    <glyph glyph-name="five.sups" unicode="&#x2075;" horiz-adv-x="995" 
d="M469 506q-73 0 -131 7.5t-104.5 21.5t-86 33.5t-79.5 47.5l127 211q25 -17 57.5 -32t68.5 -26.5t72 -17.5t66 -6q36 0 62.5 7t44.5 22.5t27 39t9 56.5q0 29 -8.5 50.5t-25 36t-40 21.5t-53.5 7q-19 0 -37.5 -4.5t-36.5 -14t-36 -24.5t-37 -37l-207 62l43 549h674
l-17 -240h-424l-10 -135q13 12 31.5 21t42 16t52 10.5t62.5 3.5q78 0 140 -18.5t106 -58.5t68 -102.5t24 -148.5q0 -93 -32.5 -161.5t-92 -112t-140.5 -64t-179 -20.5z" />
    <glyph glyph-name="six.sups" unicode="&#x2076;" horiz-adv-x="1063" 
d="M563 506q-116 0 -202 32t-142.5 95t-84.5 156t-28 215q0 156 39.5 261t107 163.5t153.5 82t188 23.5q59 0 111 -7t94.5 -19t75.5 -27t57 -31l-123 -223q-22 14 -47.5 24.5t-53 17.5t-56.5 10t-58 3q-47 0 -77 -7.5t-49 -27.5t-29.5 -55.5t-14.5 -93.5q30 20 54 32.5
t51 21t60.5 13t78.5 4.5q64 0 120.5 -16.5t101.5 -53t71 -98t26 -147.5q0 -80 -27 -144.5t-80.5 -110t-133 -69.5t-183.5 -24zM565 735q32 0 55 8t37.5 22t21.5 32t7 39q0 30 -7 51t-21 34.5t-36.5 20t-54.5 6.5q-27 0 -47.5 -2.5t-36.5 -8t-30 -13t-31 -19.5
q2 -38 10.5 -69t26 -53.5t44 -35t62.5 -12.5z" />
    <glyph glyph-name="seven.sups" unicode="&#x2077;" horiz-adv-x="881" 
d="M147 524l345 738h-435v254h768v-236l-346 -756h-332z" />
    <glyph glyph-name="eight.sups" unicode="&#x2078;" horiz-adv-x="1034" 
d="M516 506q-107 0 -189 18t-137 53.5t-82.5 88t-27.5 120.5q0 43 16.5 82t44.5 71.5t64 57t76 41.5q-39 22 -67 44t-48 49.5t-30.5 63.5t-10.5 83q0 49 23 95t71.5 82t123 57.5t173.5 21.5q103 0 178 -21t122 -57.5t69 -82t22 -95.5q0 -37 -10.5 -72t-30 -66t-47.5 -55.5
t-63 -40.5q46 -21 80.5 -42.5t60.5 -50.5t40.5 -70t14.5 -95q0 -68 -27.5 -120.5t-82.5 -88t-137 -53.5t-189 -18zM549 1124q16 10 29 22.5t22 27t13.5 31.5t4.5 36q0 16 -5 31.5t-16 27.5t-29.5 19.5t-43.5 7.5t-44 -6.5t-31.5 -17.5t-18.5 -26t-6 -32q0 -23 7 -40.5
t21.5 -31t38 -25.5t58.5 -24zM512 702q36 0 61.5 6.5t40.5 19.5t22 31t7 42q0 23 -9 43t-28 37.5t-49 34t-72 32.5q-22 -11 -41 -27.5t-33 -36t-22 -41t-8 -42.5q0 -24 7 -42t22 -31t40.5 -19.5t61.5 -6.5z" />
    <glyph glyph-name="nine.sups" unicode="&#x2079;" horiz-adv-x="1063" 
d="M494 1083q27 0 47.5 2.5t36.5 8t30 13t31 19.5q-2 38 -10.5 69t-26 53.5t-44 35t-62.5 12.5q-32 0 -55 -8t-37.5 -21.5t-21.5 -31.5t-7 -39q0 -30 7 -51.5t21 -35t36.5 -20t54.5 -6.5zM467 506q-59 0 -111.5 7t-95 19t-75.5 27t-56 31l123 215q22 -14 47.5 -24.5
t53 -17.5t56.5 -10t58 -3q47 0 77 7.5t49 27t29.5 55.5t14.5 94q-30 -20 -54 -32.5t-51 -21.5t-61 -13.5t-78 -4.5q-64 0 -120.5 17.5t-101.5 56t-71 101t-26 149.5q0 80 27 144.5t80.5 110t133 69.5t183.5 24q116 0 202 -32t142.5 -95t84 -156t27.5 -215q0 -155 -43 -260
t-114 -163.5t-155 -82.5t-175 -24z" />
    <glyph glyph-name="zero.sinf" unicode="&#x2080;" horiz-adv-x="1139" 
d="M569 -428q-111 0 -197.5 36t-145.5 104t-89.5 162.5t-30.5 211.5q0 116 30.5 211t89.5 162.5t146 104t197 36.5t197 -36.5t146 -104t89.5 -162.5t30.5 -211q0 -117 -30.5 -211.5t-89.5 -162.5t-145.5 -104t-197.5 -36zM569 -180q41 0 68 17.5t42 51.5t21.5 82t6.5 115
q0 65 -6.5 112.5t-22 80.5t-42.5 50t-67 17q-41 0 -68.5 -17t-42.5 -50t-21.5 -80t-6.5 -113t7 -114.5t22.5 -82.5t42.5 -51.5t67 -17.5z" />
    <glyph glyph-name="one.sinf" unicode="&#x2081;" horiz-adv-x="793" 
d="M103 -412v248h176v508q-19 -9 -40.5 -17.5t-44 -14.5t-45.5 -9.5t-44 -3.5v219q29 1 54.5 5t47.5 12t41 20t35 27h317v-746h152v-248h-649z" />
    <glyph glyph-name="two.sinf" unicode="&#x2082;" horiz-adv-x="1006" 
d="M104 -406v60q0 66 7.5 117.5t34 107t84 112.5t151.5 113q138 82 158 98t28 34t8 47q0 14 -4.5 24.5t-12.5 17t-20 10t-28 3.5q-19 0 -44 -8t-52.5 -25t-54.5 -43.5t-50 -62.5l-211 157q42 62 86 107.5t94.5 76t110 46.5t129.5 16q92 0 161 -21.5t114.5 -62t67.5 -98
t22 -129.5q0 -43 -10 -83t-37 -82t-76 -83.5t-123 -79.5q-41 -21 -69 -38.5t-45 -31.5t-26.5 -25.5t-17.5 -23.5h410v-250h-785z" />
    <glyph glyph-name="three.sinf" unicode="&#x2083;" horiz-adv-x="1006" 
d="M494 -422q-66 0 -127.5 13.5t-115.5 39t-99.5 63.5t-79.5 87l186 168q27 -33 54.5 -56t54 -36.5t51 -19t45.5 -5.5q35 0 59 6t37.5 17.5t19 26t5.5 32.5q0 24 -9.5 40.5t-28.5 26.5t-48.5 14.5t-71.5 4.5h-90v217h92q41 0 68 5.5t42 15t21 22t6 29.5q0 13 -5 22.5
t-15 16.5t-24 10.5t-32 3.5q-22 0 -45.5 -3t-52 -12.5t-60.5 -28t-65 -46.5l-162 198q45 40 95.5 69t104 47.5t107 27t107.5 8.5q86 0 153.5 -17.5t113.5 -52t70 -86t24 -118.5q0 -32 -7.5 -62t-24 -57t-43.5 -49t-65 -35q46 -14 79.5 -37t54.5 -52t30.5 -62.5t9.5 -69.5
q0 -82 -29.5 -144t-85 -102.5t-132.5 -60t-172 -19.5z" />
    <glyph glyph-name="four.sinf" unicode="&#x2084;" horiz-adv-x="1065" 
d="M526 -410v193h-442v198l434 601h326v-560h153v-239h-153v-193h-318zM371 2h176v254z" />
    <glyph glyph-name="five.sinf" unicode="&#x2085;" horiz-adv-x="995" 
d="M469 -428q-73 0 -131 7.5t-104.5 21.5t-86 33.5t-79.5 47.5l127 211q25 -17 57.5 -32t68.5 -26.5t72 -17.5t66 -6q36 0 62.5 7t44.5 22.5t27 39t9 56.5q0 29 -8.5 50.5t-25 36t-40 21.5t-53.5 7q-19 0 -37.5 -4.5t-36.5 -14t-36 -24.5t-37 -37l-207 62l43 549h674
l-17 -240h-424l-10 -135q13 12 31.5 21t42 16t52 10.5t62.5 3.5q78 0 140 -18.5t106 -58.5t68 -102.5t24 -148.5q0 -93 -32.5 -161.5t-92 -112t-140.5 -64t-179 -20.5z" />
    <glyph glyph-name="six.sinf" unicode="&#x2086;" horiz-adv-x="1063" 
d="M563 -428q-116 0 -202 32t-142.5 95t-84.5 156t-28 215q0 156 39.5 261t107 163.5t153.5 82t188 23.5q59 0 111 -7t94.5 -19t75.5 -27t57 -31l-123 -223q-22 14 -47.5 24.5t-53 17.5t-56.5 10t-58 3q-47 0 -77 -7.5t-49 -27.5t-29.5 -55.5t-14.5 -93.5q30 20 54 32.5
t51 21t60.5 13t78.5 4.5q64 0 120.5 -16.5t101.5 -53t71 -98t26 -147.5q0 -80 -27 -144.5t-80.5 -110t-133 -69.5t-183.5 -24zM565 -199q32 0 55 8t37.5 22t21.5 32t7 39q0 30 -7 51t-21 34.5t-36.5 20t-54.5 6.5q-27 0 -47.5 -2.5t-36.5 -8t-30 -13t-31 -19.5
q2 -38 10.5 -69t26 -53.5t44 -35t62.5 -12.5z" />
    <glyph glyph-name="seven.sinf" unicode="&#x2087;" horiz-adv-x="881" 
d="M147 -410l345 738h-435v254h768v-236l-346 -756h-332z" />
    <glyph glyph-name="eight.sinf" unicode="&#x2088;" horiz-adv-x="1034" 
d="M516 -428q-107 0 -189 18t-137 53.5t-82.5 88t-27.5 120.5q0 43 16.5 82t44.5 71.5t64 57t76 41.5q-39 22 -67 44t-48 49.5t-30.5 63.5t-10.5 83q0 49 23 95t71.5 82t123 57.5t173.5 21.5q103 0 178 -21t122 -57.5t69 -82t22 -95.5q0 -37 -10.5 -72t-30 -66t-47.5 -55.5
t-63 -40.5q46 -21 80.5 -42.5t60.5 -50.5t40.5 -70t14.5 -95q0 -68 -27.5 -120.5t-82.5 -88t-137 -53.5t-189 -18zM549 190q16 10 29 22.5t22 27t13.5 31.5t4.5 36q0 16 -5 31.5t-16 27.5t-29.5 19.5t-43.5 7.5t-44 -6.5t-31.5 -17.5t-18.5 -26t-6 -32q0 -23 7 -40.5
t21.5 -31t38 -25.5t58.5 -24zM512 -232q36 0 61.5 6.5t40.5 19.5t22 31t7 42q0 23 -9 43t-28 37.5t-49 34t-72 32.5q-22 -11 -41 -27.5t-33 -36t-22 -41t-8 -42.5q0 -24 7 -42t22 -31t40.5 -19.5t61.5 -6.5z" />
    <glyph glyph-name="nine.sinf" unicode="&#x2089;" horiz-adv-x="1063" 
d="M494 149q27 0 47.5 2.5t36.5 8t30 13t31 19.5q-2 38 -10.5 69t-26 53.5t-44 35t-62.5 12.5q-32 0 -55 -8t-37.5 -21.5t-21.5 -31.5t-7 -39q0 -30 7 -51.5t21 -35t36.5 -20t54.5 -6.5zM467 -428q-59 0 -111.5 7t-95 19t-75.5 27t-56 31l123 215q22 -14 47.5 -24.5
t53 -17.5t56.5 -10t58 -3q47 0 77 7.5t49 27t29.5 55.5t14.5 94q-30 -20 -54 -32.5t-51 -21.5t-61 -13.5t-78 -4.5q-64 0 -120.5 17.5t-101.5 56t-71 101t-26 149.5q0 80 27 144.5t80.5 110t133 69.5t183.5 24q116 0 202 -32t142.5 -95t84 -156t27.5 -215q0 -155 -43 -260
t-114 -163.5t-155 -82.5t-175 -24z" />
    <glyph glyph-name="Euro" unicode="&#x20ac;" horiz-adv-x="1526" 
d="M242 758v37h-199v204h219q26 137 83 240.5t138.5 171t182.5 100.5t217 33q123 0 217.5 -28t162.5 -80t115 -125t80 -168l-342 -129q-19 55 -38.5 94t-45 66t-60 41t-81.5 14q-48 0 -86.5 -15.5t-67 -45t-48 -72t-32.5 -97.5h271v-204h-291v-113h291v-207h-266
q12 -47 30.5 -83.5t46.5 -61.5t66.5 -38t89.5 -13q38 0 70 13.5t59.5 42t50.5 74t43 109.5l350 -110q-35 -107 -88 -188t-124.5 -136.5t-162.5 -84t-200 -28.5q-114 0 -213.5 30t-181 91.5t-140 157.5t-88.5 225h-227v207h201q-1 9 -1.5 18t-0.5 18.5v18v21.5z" />
    <glyph glyph-name="uni2117" unicode="&#x2117;" horiz-adv-x="1778" 
d="M885 -29q-165 0 -308.5 58.5t-250.5 165.5t-165.5 250.5t-58.5 308.5t60 309.5t168 252.5t253 168t310 60t308.5 -58.5t250 -165t165 -250t58.5 -308.5t-60 -310t-168 -253t-252.5 -168t-309.5 -60zM893 139q129 0 239.5 45t191 128t124 196t43.5 246q0 132 -44.5 246.5
t-126.5 199t-193.5 130.5t-241.5 46q-129 0 -239.5 -45t-191 -127.5t-124 -195.5t-43.5 -246t44.5 -247.5t126.5 -199t193.5 -130.5t241.5 -46zM834 342h-244v850h346q79 0 141.5 -16t107.5 -50.5t69 -89.5t24 -131t-25.5 -132t-72.5 -91.5t-112.5 -52.5t-147.5 -17h-86
v-270zM834 987v-186h94q28 0 49 6.5t34.5 18t20 28.5t6.5 39t-6.5 39.5t-20.5 29.5t-35 18.5t-50 6.5h-92z" />
    <glyph glyph-name="trademark" unicode="&#x2122;" horiz-adv-x="1935" 
d="M551 649h-270v647h-226v220h719v-220h-223v-647zM1120 649h-237v867h370l117 -515l119 515h364v-867h-260v518l-125 -518h-223l-125 512v-512z" />
    <glyph glyph-name="uni2126" unicode="&#x2126;" horiz-adv-x="1618" 
d="M809 1544q167 0 302 -60t227.5 -162.5t140 -230.5t47.5 -262q0 -67 -14 -134t-44 -132t-76 -124.5t-108 -108.5h229v-330h-567v330q51 64 84 120.5t51.5 113.5t26.5 120t8 143q0 74 -19.5 142t-59 121.5t-98 84.5t-134.5 31q-74 0 -131.5 -30.5t-95.5 -83t-57 -119
t-19 -139.5q0 -81 8 -145t27 -122t51.5 -115.5t83.5 -121.5v-330h-568v330h230q-62 49 -108 109.5t-75.5 126.5t-44 132.5t-14.5 130.5q0 134 47.5 262t140 230.5t227.5 162.5t302 60z" />
    <glyph glyph-name="estimated" unicode="&#x212e;" horiz-adv-x="1427" 
d="M1360 651h-1004v-450q36 -36 76.5 -63.5t85 -46t93.5 -27.5t102 -9q89 0 161 21.5t129 60.5t103.5 92t91.5 123l76 -47q-50 -78 -104 -137t-121 -102.5t-150.5 -67t-185.5 -23.5q-141 0 -259 53t-202 147t-129 217t-45 261q0 141 44 264.5t127.5 216.5t203.5 145t266 52
t265 -52.5t202 -146.5t127.5 -217.5t46.5 -263.5zM1075 733v373q-34 32 -75 58.5t-87 46t-96 30t-100 10.5q-52 0 -101.5 -9t-95 -27.5t-87 -45.5t-77.5 -63v-373h719z" />
    <glyph glyph-name="partialdiff" unicode="&#x2202;" horiz-adv-x="1249" 
d="M834 1593q92 -77 162 -175.5t115.5 -212t68 -235.5t22.5 -247q0 -195 -47 -337.5t-133.5 -233t-204.5 -133t-262 -42.5q-125 0 -224 32t-167 91t-103.5 140.5t-35.5 179.5q0 147 48 255t126.5 174t168.5 96t177 30q41 0 83 -8.5t82 -25t74.5 -40.5t59.5 -55
q2 66 -20.5 145t-60 156t-79.5 139t-78 96zM571 258q40 0 76 14t65 46.5t46.5 87.5t17.5 133q0 40 -9.5 71.5t-28 53t-44.5 32.5t-59 11q-38 0 -74 -16t-66 -50t-47.5 -89.5t-17.5 -131.5q0 -40 9.5 -70.5t28 -51t44.5 -30.5t59 -10z" />
    <glyph glyph-name="uni2206" unicode="&#x2206;" horiz-adv-x="1495" 
d="M20 0l537 1522h381l537 -1522h-1455zM504 330h454l-221 663h-4z" />
    <glyph glyph-name="product" unicode="&#x220f;" horiz-adv-x="1565" 
d="M141 -410v1926h1282v-1926h-409v1586h-463v-1586h-410z" />
    <glyph glyph-name="summation" unicode="&#x2211;" horiz-adv-x="1274" 
d="M879 598l-351 -678h682v-330h-1132v281l375 711l-357 600v334h1080v-340h-631z" />
    <glyph glyph-name="minus" unicode="&#x2212;" 
d="M1192 578h-1053v315h1053v-315z" />
    <glyph glyph-name="uni2215" unicode="&#x2215;" horiz-adv-x="1180" 
d="M309 0h-344l905 1516h344z" />
    <glyph glyph-name="uni2219" unicode="&#x2219;" horiz-adv-x="608" 
d="M526 520h-444v369h444v-369z" />
    <glyph glyph-name="radical" unicode="&#x221a;" horiz-adv-x="1233" 
d="M872 0h-409l-295 836h-156v262h480l192 -654h4l322 1072h376z" />
    <glyph glyph-name="infinity" unicode="&#x221e;" horiz-adv-x="1665" 
d="M457 303q-101 0 -178.5 28t-130.5 82.5t-80 135.5t-27 186q0 104 27 185t80 136.5t131 84t178 28.5q57 0 108.5 -13t98 -37.5t88 -60.5t79.5 -83q39 47 80.5 83t88.5 60.5t99 37.5t109 13q100 0 178 -28.5t131 -84t80 -136.5t27 -185q0 -105 -27 -186t-80 -135.5
t-130.5 -82.5t-178.5 -28q-57 0 -109 13.5t-99 39t-88.5 62t-80.5 84.5q-38 -48 -79.5 -84.5t-88 -62t-98 -39t-108.5 -13.5zM1184 578q35 0 62.5 10t46.5 30t28.5 49.5t9.5 67.5q0 39 -9.5 69.5t-28.5 51t-46.5 31t-62.5 10.5q-36 0 -65.5 -13t-53.5 -35t-43.5 -49
t-42.5 -65q22 -36 42 -63t44 -48.5t53.5 -33.5t65.5 -12zM481 578q36 0 65.5 12t53.5 33.5t44 48.5t42 63q-23 38 -42.5 65t-43.5 49t-53.5 35t-65.5 13q-35 0 -62.5 -10.5t-46.5 -31t-28.5 -51t-9.5 -69.5q0 -38 9.5 -67.5t28.5 -49.5t46.5 -30t62.5 -10z" />
    <glyph glyph-name="integral" unicode="&#x222b;" horiz-adv-x="891" 
d="M215 1139q0 82 13 146.5t54.5 119.5t124.5 88t216 33q28 0 67 -2t77.5 -5t67 -6.5t35.5 -5.5v-276q-7 2 -19 4.5t-27.5 4t-31 2.5t-28.5 1q-34 0 -57 -3t-43 -14.5t-31.5 -36.5t-11.5 -67v-1196q0 -69 -13 -126.5t-54.5 -107t-124.5 -80t-216 -30.5q-29 0 -68 2t-77.5 5
t-66.5 6t-36 6v266q7 -2 19.5 -4.5t28 -4t31 -2.5t28.5 -1q38 0 65 9t44 28t25.5 49.5t8.5 74.5v1123z" />
    <glyph glyph-name="approxequal" unicode="&#x2248;" horiz-adv-x="1444" 
d="M999 664q-68 0 -139 22.5t-171 68.5t-136.5 61t-71.5 15q-16 0 -28.5 -4t-22 -13.5t-16.5 -27.5t-11 -45l-231 41q12 94 38 162t63.5 110.5t85.5 62.5t106 20q73 0 145.5 -23t175.5 -72t133.5 -62t65.5 -13q16 0 29 4t23 14.5t17 28.5t11 45l229 -31q-12 -95 -38 -164.5
t-64 -113.5t-86.5 -65t-106.5 -21zM975 147q-69 0 -140 22.5t-172.5 69t-137 61.5t-70.5 15q-16 0 -28.5 -4t-22.5 -13.5t-16.5 -27.5t-10.5 -45l-230 41q12 94 38 162t63.5 110.5t85 62.5t104.5 20q73 0 145.5 -23t175.5 -72t133.5 -62t65.5 -13q16 0 29 4t23 14.5t17 28.5
t11 45l234 -31q-13 -95 -39.5 -164.5t-65 -114t-86.5 -65.5t-106 -21z" />
    <glyph glyph-name="notequal" unicode="&#x2260;" 
d="M272 -4l97 305h-222v279h312l59 188h-371v279h461l117 362h332l-117 -362h242v-279h-332l-59 -188h391v-279h-482l-96 -305h-332z" />
    <glyph glyph-name="lessequal" unicode="&#x2264;" 
d="M1214 303l-1083 359v208l1083 379v-325l-614 -158l614 -137v-326zM131 0v291h1083v-291h-1083z" />
    <glyph glyph-name="greaterequal" unicode="&#x2265;" 
d="M131 303v326l614 137l-614 158v325l1083 -379v-208zM131 0v291h1083v-291h-1083z" />
    <glyph glyph-name="lozenge" unicode="&#x25ca;" 
d="M514 1516h285l481 -758l-463 -758h-303l-463 758zM666 381l229 377l-229 377l-230 -377z" />
    <glyph glyph-name="uni2713" unicode="&#x2713;" horiz-adv-x="1130" 
d="M770 0h-410l-387 1098h416l193 -654h4l321 1072h377z" />
    <glyph glyph-name="commaaccent" unicode="&#xf6c3;" horiz-adv-x="588" 
d="M166 -649l90 233h-145v334h366v-283l-143 -284h-168z" />
    <glyph glyph-name="apple" unicode="&#xf8ff;" horiz-adv-x="1556" 
d="M506 1028l-12 -125h135v137zM926 1040v-137h135l-12 125zM506 485l123 -12v133h-135zM926 606v-133l123 12l12 121h-135zM987 0h-420l62 268l-103 -10l6 -53h-284l2 24l-23 -2v285l52 -4l10 98l-269 -61v420l269 -62l-10 103l-52 -5v285l23 -2l-2 21h284l-4 -50l101 -10
l-62 271h420l-61 -271l100 10l-4 50h285l-2 -21l22 2v-285l-51 5l-10 -103l270 62v-420l-270 61l10 -98l51 4v-285l-22 2l2 -24h-285l6 53l-102 10z" />
    <glyph glyph-name="A.sc" horiz-adv-x="1327" 
d="M541 434h213l-35 103l-66 200h-6l-69 -200zM25 0l456 1217h363l459 -1217h-402l-63 188h-385l-68 -188h-360z" />
    <glyph glyph-name="AE.sc" horiz-adv-x="2001" 
d="M963 936l-215 -375h217v375h-2zM592 299l-170 -299h-399l718 1212h1168v-305h-559v-151h397v-293h-397v-168h585v-295h-970v299h-373z" />
    <glyph glyph-name="Aacute.sc" horiz-adv-x="1327" 
d="M541 434h213l-35 103l-66 200h-6l-69 -200zM25 0l456 1217h363l459 -1217h-402l-63 188h-385l-68 -188h-360zM516 1312l190 371h389l-311 -371h-268z" />
    <glyph glyph-name="Abreve.sc" horiz-adv-x="1327" 
d="M541 434h213l-35 103l-66 200h-6l-69 -200zM25 0l456 1217h363l459 -1217h-402l-63 188h-385l-68 -188h-360zM664 1286q-92 0 -163.5 31t-119 85.5t-73 126t-29.5 154.5h211q6 -51 24.5 -82t43.5 -46.5t51 -20t55 -4.5t55 4.5t51 20t43.5 46.5t24.5 82h211
q-4 -83 -29.5 -154.5t-73 -126t-119 -85.5t-163.5 -31z" />
    <glyph glyph-name="Acircumflex.sc" horiz-adv-x="1327" 
d="M541 434h213l-35 103l-66 200h-6l-69 -200zM25 0l456 1217h363l459 -1217h-402l-63 188h-385l-68 -188h-360zM266 1323l265 360h266l264 -360h-227l-172 131l-168 -131h-228z" />
    <glyph glyph-name="Adieresis.sc" horiz-adv-x="1327" 
d="M541 434h213l-35 103l-66 200h-6l-69 -200zM25 0l456 1217h363l459 -1217h-402l-63 188h-385l-68 -188h-360zM727 1298v358h328v-358h-328zM263 1298v358h327v-358h-327z" />
    <glyph glyph-name="Agrave.sc" horiz-adv-x="1327" 
d="M541 434h213l-35 103l-66 200h-6l-69 -200zM25 0l456 1217h363l459 -1217h-402l-63 188h-385l-68 -188h-360zM537 1312l-311 371h389l190 -371h-268z" />
    <glyph glyph-name="Amacron.sc" horiz-adv-x="1327" 
d="M541 434h213l-35 103l-66 200h-6l-69 -200zM25 0l456 1217h363l459 -1217h-402l-63 188h-385l-68 -188h-360zM304 1298v279h720v-279h-720z" />
    <glyph glyph-name="Aogonek.sc" horiz-adv-x="1327" 
d="M541 434h213l-35 103l-66 200h-6l-69 -200zM25 0l456 1217h363l459 -1217h-402l-63 188h-385l-68 -188h-360zM964 -383q-60 0 -106 10.5t-76.5 31t-46 50t-15.5 66.5q0 33 14 66.5t39.5 64.5t60.5 59t77 51h205q-39 -24 -65.5 -48t-41.5 -46t-21.5 -42t-6.5 -40
q0 -14 3.5 -26t13 -22.5t27 -16.5t44.5 -6q30 0 55 5t43.5 12.5t28 13.5t32.5 20l78 -119q-32 -20 -68.5 -35t-78.5 -26t-91 -17t-104 -6z" />
    <glyph glyph-name="Aring.sc" horiz-adv-x="1327" 
d="M541 434h213l-35 103l-66 200h-6l-69 -200zM25 0l456 1217h363l459 -1217h-402l-63 188h-385l-68 -188h-360zM664 1071q-51 0 -95 18t-76.5 50.5t-50.5 76.5t-18 95q0 50 18 93.5t50.5 75.5t76.5 50t95 18t95 -18t76.5 -50t50.5 -75.5t18 -93.5q0 -51 -18 -95
t-50.5 -76.5t-76.5 -50.5t-95 -18zM664 1218q19 0 35 6.5t28 19t18.5 29.5t6.5 38q0 19 -6.5 35.5t-18.5 28.5t-28 19t-35 7t-35 -7t-28 -19t-18.5 -28.5t-6.5 -35.5q0 -21 6.5 -38t18.5 -29.5t28 -19t35 -6.5z" />
    <glyph glyph-name="Atilde.sc" horiz-adv-x="1327" 
d="M541 434h213l-35 103l-66 200h-6l-69 -200zM25 0l456 1217h363l459 -1217h-402l-63 188h-385l-68 -188h-360zM823 1288q-55 0 -94.5 15.5t-84 46.5t-64 42t-49.5 11q-20 0 -35.5 -6t-26.5 -19.5t-16.5 -34.5t-5.5 -51h-213q0 96 19 166t54.5 114.5t85 65.5t111.5 21
q55 0 95 -15.5t85 -46.5t64 -42t49 -11q20 0 35 6t26 19.5t17 34.5t6 50h213q0 -96 -19 -166t-55 -114t-85.5 -65t-111.5 -21z" />
    <glyph glyph-name="B.sc" horiz-adv-x="1282" 
d="M125 0v1212h573q89 0 164.5 -8.5t144.5 -38t112.5 -90.5t43.5 -160q0 -62 -19 -110.5t-52.5 -82t-77 -54t-94.5 -29.5v-2q61 -11 108.5 -30.5t84 -53.5t57 -87t20.5 -128q0 -98 -44.5 -165t-115.5 -105t-151.5 -53t-161.5 -15h-592zM502 942v-215h157q37 0 62.5 9.5
t40 25.5t20.5 34.5t6 39.5q0 19 -7 38t-21.5 34.5t-38.5 24.5t-57 9h-162zM502 504v-240h155q38 0 66.5 9.5t46.5 27t26.5 39.5t8.5 47q0 24 -7.5 45t-24.5 37.5t-45 25.5t-66 9h-160z" />
    <glyph glyph-name="C.sc" horiz-adv-x="1317" 
d="M684 -23q-130 0 -241 34.5t-196 109.5t-133 195.5t-48 287.5q0 168 49 290t135 197t196.5 109.5t237.5 34.5q132 0 230.5 -30t164 -83t105 -122.5t59.5 -155.5l-364 -103q-11 41 -26 74t-38 59.5t-56 42t-77 15.5q-58 0 -99.5 -22t-68 -64.5t-39 -103t-12.5 -138.5
q0 -75 13 -136t40 -105.5t69.5 -68.5t100.5 -24q45 0 79 14t58 41.5t40.5 67t29.5 94.5l369 -77q-25 -98 -67.5 -175.5t-110.5 -135.5t-167.5 -90t-232.5 -32z" />
    <glyph glyph-name="Cacute.sc" horiz-adv-x="1317" 
d="M684 -23q-130 0 -241 34.5t-196 109.5t-133 195.5t-48 287.5q0 168 49 290t135 197t196.5 109.5t237.5 34.5q132 0 230.5 -30t164 -83t105 -122.5t59.5 -155.5l-364 -103q-11 41 -26 74t-38 59.5t-56 42t-77 15.5q-58 0 -99.5 -22t-68 -64.5t-39 -103t-12.5 -138.5
q0 -75 13 -136t40 -105.5t69.5 -68.5t100.5 -24q45 0 79 14t58 41.5t40.5 67t29.5 94.5l369 -77q-25 -98 -67.5 -175.5t-110.5 -135.5t-167.5 -90t-232.5 -32zM492 1312l190 371h389l-311 -371h-268z" />
    <glyph glyph-name="Ccaron.sc" horiz-adv-x="1317" 
d="M684 -23q-130 0 -241 34.5t-196 109.5t-133 195.5t-48 287.5q0 168 49 290t135 197t196.5 109.5t237.5 34.5q132 0 230.5 -30t164 -83t105 -122.5t59.5 -155.5l-364 -103q-11 41 -26 74t-38 59.5t-56 42t-77 15.5q-58 0 -99.5 -22t-68 -64.5t-39 -103t-12.5 -138.5
q0 -75 13 -136t40 -105.5t69.5 -68.5t100.5 -24q45 0 79 14t58 41.5t40.5 67t29.5 94.5l369 -77q-25 -98 -67.5 -175.5t-110.5 -135.5t-167.5 -90t-232.5 -32zM525 1323l-265 360h228l168 -131l172 131h227l-264 -360h-266z" />
    <glyph glyph-name="Ccedilla.sc" horiz-adv-x="1317" 
d="M684 -23q-130 0 -241 34.5t-196 109.5t-133 195.5t-48 287.5q0 168 49 290t135 197t196.5 109.5t237.5 34.5q132 0 230.5 -30t164 -83t105 -122.5t59.5 -155.5l-364 -103q-11 41 -26 74t-38 59.5t-56 42t-77 15.5q-58 0 -99.5 -22t-68 -64.5t-39 -103t-12.5 -138.5
q0 -75 13 -136t40 -105.5t69.5 -68.5t100.5 -24q45 0 79 14t58 41.5t40.5 67t29.5 94.5l369 -77q-25 -98 -67.5 -175.5t-110.5 -135.5t-167.5 -90t-232.5 -32zM694 -420q-50 0 -97 5.5t-88.5 16t-76.5 24.5t-62 32l68 113q22 -15 50 -26.5t57.5 -19.5t59 -12t56.5 -4
q18 0 33 3.5t26 11t17 18.5t6 25q0 13 -5 22.5t-13 15.5t-18 8.5t-21 2.5t-20.5 -2t-18.5 -5.5t-18.5 -9t-20.5 -14.5l-92 45l53 170h156l-21 -86q11 7 25.5 12.5t32 9.5t38.5 6.5t45 2.5q30 0 57 -9.5t48 -28.5t33 -46t12 -62q0 -48 -23 -88.5t-64.5 -70t-96 -45
t-117.5 -15.5z" />
    <glyph glyph-name="Ccircumflex.sc" horiz-adv-x="1317" 
d="M684 -23q-130 0 -241 34.5t-196 109.5t-133 195.5t-48 287.5q0 168 49 290t135 197t196.5 109.5t237.5 34.5q132 0 230.5 -30t164 -83t105 -122.5t59.5 -155.5l-364 -103q-11 41 -26 74t-38 59.5t-56 42t-77 15.5q-58 0 -99.5 -22t-68 -64.5t-39 -103t-12.5 -138.5
q0 -75 13 -136t40 -105.5t69.5 -68.5t100.5 -24q45 0 79 14t58 41.5t40.5 67t29.5 94.5l369 -77q-25 -98 -67.5 -175.5t-110.5 -135.5t-167.5 -90t-232.5 -32zM260 1323l265 360h266l264 -360h-227l-172 131l-168 -131h-228z" />
    <glyph glyph-name="Cdotaccent.sc" horiz-adv-x="1317" 
d="M684 -23q-130 0 -241 34.5t-196 109.5t-133 195.5t-48 287.5q0 168 49 290t135 197t196.5 109.5t237.5 34.5q132 0 230.5 -30t164 -83t105 -122.5t59.5 -155.5l-364 -103q-11 41 -26 74t-38 59.5t-56 42t-77 15.5q-58 0 -99.5 -22t-68 -64.5t-39 -103t-12.5 -138.5
q0 -75 13 -136t40 -105.5t69.5 -68.5t100.5 -24q45 0 79 14t58 41.5t40.5 67t29.5 94.5l369 -77q-25 -98 -67.5 -175.5t-110.5 -135.5t-167.5 -90t-232.5 -32zM465 1345v311h406v-311h-406z" />
    <glyph glyph-name="D.sc" horiz-adv-x="1356" 
d="M125 0v1212h459q147 0 271.5 -28.5t223 -96t155 -184.5t56.5 -287q0 -177 -57.5 -298t-156 -190.5t-223 -98.5t-269.5 -29h-459zM520 913v-624h80q90 0 147.5 19.5t89.5 58.5t45 98t13 145q0 78 -13 133t-45.5 93t-91 57.5t-147.5 19.5h-78z" />
    <glyph glyph-name="Dcaron.sc" horiz-adv-x="1356" 
d="M125 0v1212h459q147 0 271.5 -28.5t223 -96t155 -184.5t56.5 -287q0 -177 -57.5 -298t-156 -190.5t-223 -98.5t-269.5 -29h-459zM520 913v-624h80q90 0 147.5 19.5t89.5 58.5t45 98t13 145q0 78 -13 133t-45.5 93t-91 57.5t-147.5 19.5h-78zM545 1323l-265 360h228
l168 -131l172 131h227l-264 -360h-266z" />
    <glyph glyph-name="Dcroat.sc" horiz-adv-x="1356" 
d="M125 0v492h-105v221h105v499h459q147 0 271.5 -28.5t223 -96t155 -184.5t56.5 -287q0 -177 -57.5 -298t-156 -190.5t-223 -98.5t-269.5 -29h-459zM520 492v-203h80q90 0 147.5 19.5t89.5 58.5t45 98t13 145q0 78 -13 133t-45.5 93t-91 57.5t-147.5 19.5h-78v-200h166
v-221h-166z" />
    <glyph glyph-name="E.sc" horiz-adv-x="1174" 
d="M1108 0h-983v1212h956v-305h-559v-151h398v-293h-398v-168h586v-295z" />
    <glyph glyph-name="Eacute.sc" horiz-adv-x="1174" 
d="M1108 0h-983v1212h956v-305h-559v-151h398v-293h-398v-168h586v-295zM400 1312l190 371h389l-311 -371h-268z" />
    <glyph glyph-name="Ebreve.sc" horiz-adv-x="1174" 
d="M1108 0h-983v1212h956v-305h-559v-151h398v-293h-398v-168h586v-295zM586 1286q-92 0 -163.5 31t-119 85.5t-73 126t-29.5 154.5h211q6 -51 24.5 -82t43.5 -46.5t51 -20t55 -4.5t55 4.5t51 20t43.5 46.5t24.5 82h211q-4 -83 -29.5 -154.5t-73 -126t-119 -85.5t-163.5 -31
z" />
    <glyph glyph-name="Ecaron.sc" horiz-adv-x="1174" 
d="M1108 0h-983v1212h956v-305h-559v-151h398v-293h-398v-168h586v-295zM474 1323l-265 360h228l168 -131l172 131h227l-264 -360h-266z" />
    <glyph glyph-name="Ecircumflex.sc" horiz-adv-x="1174" 
d="M1108 0h-983v1212h956v-305h-559v-151h398v-293h-398v-168h586v-295zM209 1323l265 360h266l264 -360h-227l-172 131l-168 -131h-228z" />
    <glyph glyph-name="Edieresis.sc" horiz-adv-x="1174" 
d="M1108 0h-983v1212h956v-305h-559v-151h398v-293h-398v-168h586v-295zM669 1298v358h328v-358h-328zM205 1298v358h327v-358h-327z" />
    <glyph glyph-name="Edotaccent.sc" horiz-adv-x="1174" 
d="M1108 0h-983v1212h956v-305h-559v-151h398v-293h-398v-168h586v-295zM403 1345v311h406v-311h-406z" />
    <glyph glyph-name="Egrave.sc" horiz-adv-x="1174" 
d="M1108 0h-983v1212h956v-305h-559v-151h398v-293h-398v-168h586v-295zM524 1312l-311 371h389l190 -371h-268z" />
    <glyph glyph-name="Emacron.sc" horiz-adv-x="1174" 
d="M1108 0h-983v1212h956v-305h-559v-151h398v-293h-398v-168h586v-295zM246 1298v279h720v-279h-720z" />
    <glyph glyph-name="Eng.sc" horiz-adv-x="1399" 
d="M125 0v1212h389l170 -251l258 -371h2v622h354v-1228q0 -89 -22.5 -161.5t-73.5 -126.5t-136 -84t-206 -30q-69 0 -128.5 9.5t-108 26.5t-88.5 38t-76 47l162 252q17 -13 41.5 -27t53 -26t57 -19.5t52.5 -7.5q27 0 47.5 5t35 16.5t23 30.5t11.5 48v9l-154 219l-305 415h-2
v-618h-356z" />
    <glyph glyph-name="Eogonek.sc" horiz-adv-x="1174" 
d="M1108 0h-983v1212h956v-305h-559v-151h398v-293h-398v-168h586v-295zM842 -383q-60 0 -106 10.5t-76.5 31t-46 50t-15.5 66.5q0 33 14 66.5t39.5 64.5t60.5 59t77 51h205q-39 -24 -65.5 -48t-41.5 -46t-21.5 -42t-6.5 -40q0 -14 3.5 -26t13 -22.5t27 -16.5t44.5 -6
q30 0 55 5t43.5 12.5t28 13.5t32.5 20l78 -119q-32 -20 -68.5 -35t-78.5 -26t-91 -17t-104 -6z" />
    <glyph glyph-name="Eth.sc" horiz-adv-x="1356" 
d="M125 0v492h-105v221h105v499h459q147 0 271.5 -28.5t223 -96t155 -184.5t56.5 -287q0 -177 -57.5 -298t-156 -190.5t-223 -98.5t-269.5 -29h-459zM520 492v-203h80q90 0 147.5 19.5t89.5 58.5t45 98t13 145q0 78 -13 133t-45.5 93t-91 57.5t-147.5 19.5h-78v-200h166
v-221h-166z" />
    <glyph glyph-name="Euro.sc" horiz-adv-x="1352" 
d="M778 -20q-100 0 -184.5 21.5t-153 69.5t-118 127t-76.5 191h-185v162h166q-1 7 -1.5 14t-0.5 14v13v16v27h-164v162h181q17 109 64.5 192t118.5 138t160 82.5t189 27.5q107 0 189 -25t140.5 -70.5t98 -107t66.5 -139.5l-283 -102q-16 42 -35 73t-43.5 51t-56 30.5
t-70.5 10.5q-36 0 -66.5 -10t-53.5 -29.5t-38 -50t-20 -71.5h199v-162h-215v-27v-18.5v-13.5t0.5 -13t1.5 -12h213v-162h-195q12 -37 28 -63.5t37.5 -42.5t49 -23.5t61.5 -7.5q28 0 56.5 8t56.5 28.5t52 57t40 90.5l289 -88q-33 -95 -81 -164.5t-110.5 -114.5t-139 -67
t-167.5 -22z" />
    <glyph glyph-name="Euro.tab" 
d="M776 -29q-110 0 -202.5 28t-166.5 88t-126.5 157t-77.5 231h-174v207h149q-1 9 -1.5 19t-0.5 22v27.5v44.5h-147v204h166q21 139 71.5 242.5t125 170.5t169 99.5t205.5 32.5q117 0 206 -30t152.5 -85.5t106 -132t69.5 -174.5l-350 -108q-15 56 -30.5 94.5t-36 65.5
t-50 41t-69.5 14q-45 0 -77.5 -17t-53 -47.5t-32.5 -71.5t-19 -94h227v-204h-246v-113h246v-207h-223q6 -50 17 -85.5t31 -60t53 -37.5t81 -13q39 0 69 15t51.5 44.5t38 73.5t29.5 106l347 -90q-34 -109 -81.5 -193t-112 -143t-147.5 -90t-186 -31z" />
    <glyph glyph-name="F.sc" horiz-adv-x="1083" 
d="M522 0h-397v1212h924v-301h-527v-209h367v-288h-367v-414z" />
    <glyph glyph-name="G.sc" horiz-adv-x="1403" 
d="M629 -18q-145 0 -252.5 46t-176 130t-101.5 198.5t-33 253.5q0 142 41.5 258t122 198t195.5 125.5t259 43.5q99 0 182.5 -16.5t156.5 -60t130 -123t90 -201.5l-352 -93q-16 52 -38.5 89.5t-49 60t-55 33t-58.5 10.5q-50 0 -90 -12.5t-71 -46.5t-48.5 -97.5t-17.5 -161.5
q0 -97 17 -166t48.5 -110.5t74.5 -60.5t97 -19q42 0 77 11t63 29.5t48 40t36 44.5h-176v254h528v-639h-297v154h-2q-17 -34 -48 -65t-75.5 -55t-101 -38t-123.5 -14z" />
    <glyph glyph-name="Gbreve.sc" horiz-adv-x="1403" 
d="M629 -18q-145 0 -252.5 46t-176 130t-101.5 198.5t-33 253.5q0 142 41.5 258t122 198t195.5 125.5t259 43.5q99 0 182.5 -16.5t156.5 -60t130 -123t90 -201.5l-352 -93q-16 52 -38.5 89.5t-49 60t-55 33t-58.5 10.5q-50 0 -90 -12.5t-71 -46.5t-48.5 -97.5t-17.5 -161.5
q0 -97 17 -166t48.5 -110.5t74.5 -60.5t97 -19q42 0 77 11t63 29.5t48 40t36 44.5h-176v254h528v-639h-297v154h-2q-17 -34 -48 -65t-75.5 -55t-101 -38t-123.5 -14zM700 1286q-92 0 -163.5 31t-119 85.5t-73 126t-29.5 154.5h211q6 -51 24.5 -82t43.5 -46.5t51 -20t55 -4.5
t55 4.5t51 20t43.5 46.5t24.5 82h211q-4 -83 -29.5 -154.5t-73 -126t-119 -85.5t-163.5 -31z" />
    <glyph glyph-name="Gcircumflex.sc" horiz-adv-x="1403" 
d="M629 -18q-145 0 -252.5 46t-176 130t-101.5 198.5t-33 253.5q0 142 41.5 258t122 198t195.5 125.5t259 43.5q99 0 182.5 -16.5t156.5 -60t130 -123t90 -201.5l-352 -93q-16 52 -38.5 89.5t-49 60t-55 33t-58.5 10.5q-50 0 -90 -12.5t-71 -46.5t-48.5 -97.5t-17.5 -161.5
q0 -97 17 -166t48.5 -110.5t74.5 -60.5t97 -19q42 0 77 11t63 29.5t48 40t36 44.5h-176v254h528v-639h-297v154h-2q-17 -34 -48 -65t-75.5 -55t-101 -38t-123.5 -14zM282 1323l265 360h266l264 -360h-227l-172 131l-168 -131h-228z" />
    <glyph glyph-name="Gcommaaccent.sc" horiz-adv-x="1403" 
d="M629 -18q-145 0 -252.5 46t-176 130t-101.5 198.5t-33 253.5q0 142 41.5 258t122 198t195.5 125.5t259 43.5q99 0 182.5 -16.5t156.5 -60t130 -123t90 -201.5l-352 -93q-16 52 -38.5 89.5t-49 60t-55 33t-58.5 10.5q-50 0 -90 -12.5t-71 -46.5t-48.5 -97.5t-17.5 -161.5
q0 -97 17 -166t48.5 -110.5t74.5 -60.5t97 -19q42 0 77 11t63 29.5t48 40t36 44.5h-176v254h528v-639h-297v154h-2q-17 -34 -48 -65t-75.5 -55t-101 -38t-123.5 -14zM576 -649l90 233h-145v334h366v-283l-143 -284h-168z" />
    <glyph glyph-name="Gdotaccent.sc" horiz-adv-x="1403" 
d="M629 -18q-145 0 -252.5 46t-176 130t-101.5 198.5t-33 253.5q0 142 41.5 258t122 198t195.5 125.5t259 43.5q99 0 182.5 -16.5t156.5 -60t130 -123t90 -201.5l-352 -93q-16 52 -38.5 89.5t-49 60t-55 33t-58.5 10.5q-50 0 -90 -12.5t-71 -46.5t-48.5 -97.5t-17.5 -161.5
q0 -97 17 -166t48.5 -110.5t74.5 -60.5t97 -19q42 0 77 11t63 29.5t48 40t36 44.5h-176v254h528v-639h-297v154h-2q-17 -34 -48 -65t-75.5 -55t-101 -38t-123.5 -14zM493 1345v311h406v-311h-406z" />
    <glyph glyph-name="H.sc" horiz-adv-x="1413" 
d="M520 0h-395v1212h395v-434h371v434h397v-1212h-397v467h-371v-467z" />
    <glyph glyph-name="Hbar.sc" horiz-adv-x="1413" 
d="M520 717h371v117h-371v-117zM520 406v-406h-395v834h-105v249h105v129h395v-129h371v129h397v-129h105v-249h-105v-834h-397v406h-371z" />
    <glyph glyph-name="Hcircumflex.sc" horiz-adv-x="1413" 
d="M520 0h-395v1212h395v-434h371v434h397v-1212h-397v467h-371v-467zM309 1323l265 360h266l264 -360h-227l-172 131l-168 -131h-228z" />
    <glyph glyph-name="I.sc" horiz-adv-x="664" 
d="M530 0h-397v1212h397v-1212z" />
    <glyph glyph-name="IJ.sc" horiz-adv-x="1599" 
d="M530 0h-397v1212h397v-1212zM625 110l161 252q17 -13 41.5 -27t53.5 -26t57.5 -19.5t52.5 -7.5q31 0 52.5 6t36.5 20.5t22.5 39.5t7.5 63v813h395v-833q0 -88 -24.5 -160.5t-80.5 -127t-149 -84.5t-225 -30q-69 0 -128.5 9.5t-108.5 26.5t-88.5 38t-75.5 47z" />
    <glyph glyph-name="Iacute.sc" horiz-adv-x="664" 
d="M530 0h-397v1212h397v-1212zM166 1312l190 371h389l-311 -371h-268z" />
    <glyph glyph-name="Ibreve.sc" horiz-adv-x="664" 
d="M530 0h-397v1212h397v-1212zM332 1286q-92 0 -163.5 31t-119 85.5t-73 126t-29.5 154.5h211q6 -51 24.5 -82t43.5 -46.5t51 -20t55 -4.5t55 4.5t51 20t43.5 46.5t24.5 82h211q-4 -83 -29.5 -154.5t-73 -126t-119 -85.5t-163.5 -31z" />
    <glyph glyph-name="Icircumflex.sc" horiz-adv-x="664" 
d="M530 0h-397v1212h397v-1212zM-66 1323l265 360h266l264 -360h-227l-172 131l-168 -131h-228z" />
    <glyph glyph-name="Idieresis.sc" horiz-adv-x="664" 
d="M530 0h-397v1212h397v-1212zM395 1298v358h328v-358h-328zM-69 1298v358h327v-358h-327z" />
    <glyph glyph-name="Idotaccent.sc" horiz-adv-x="664" 
d="M530 0h-397v1212h397v-1212zM129 1345v311h406v-311h-406z" />
    <glyph glyph-name="Igrave.sc" horiz-adv-x="664" 
d="M530 0h-397v1212h397v-1212zM229 1312l-311 371h389l190 -371h-268z" />
    <glyph glyph-name="Imacron.sc" horiz-adv-x="664" 
d="M530 0h-397v1212h397v-1212zM-28 1298v279h720v-279h-720z" />
    <glyph glyph-name="Iogonek.sc" horiz-adv-x="664" 
d="M582 -299q-32 -20 -68.5 -35t-79 -26t-91 -17t-103.5 -6q-60 0 -106 10.5t-76.5 31t-46 50t-15.5 66.5q0 32 9.5 63.5t27.5 61t43.5 57t56.5 50.5v1205h397v-1212h-197q-22 -22 -37 -43.5t-23.5 -41.5t-12.5 -38.5t-4 -36.5q0 -14 3.5 -26t13 -22.5t27 -16.5t44.5 -6
q30 0 55 5t43.5 12.5t26 12t35.5 21.5z" />
    <glyph glyph-name="Itilde.sc" horiz-adv-x="664" 
d="M530 0h-397v1212h397v-1212zM491 1297q-55 0 -94.5 15.5t-84 46.5t-64 42t-49.5 11q-20 0 -35.5 -6t-26.5 -19.5t-16.5 -34.5t-5.5 -51h-213q0 96 19 166t54.5 114.5t85 65.5t111.5 21q55 0 95 -15.5t85 -46.5t64 -42t49 -11q20 0 35 6t26 19.5t17 34.5t6 50h213
q0 -96 -19 -166t-55 -114t-85.5 -65t-111.5 -21z" />
    <glyph glyph-name="J.sc" horiz-adv-x="997" 
d="M23 98l161 252q17 -13 41.5 -27t53.5 -26t57.5 -19.5t52.5 -7.5q31 0 52.5 6t36.5 20.5t22.5 39.5t7.5 63v813h395v-833q0 -88 -24.5 -160.5t-80.5 -127t-149 -84.5t-225 -30q-69 0 -128.5 9.5t-108.5 26.5t-88.5 38t-75.5 47z" />
    <glyph glyph-name="Jcircumflex.sc" horiz-adv-x="997" 
d="M23 98l161 252q17 -13 41.5 -27t53.5 -26t57.5 -19.5t52.5 -7.5q31 0 52.5 6t36.5 20.5t22.5 39.5t7.5 63v813h395v-833q0 -88 -24.5 -160.5t-80.5 -127t-149 -84.5t-225 -30q-69 0 -128.5 9.5t-108.5 26.5t-88.5 38t-75.5 47zM305 1323l265 360h266l264 -360h-227
l-172 131l-168 -131h-228z" />
    <glyph glyph-name="K.sc" horiz-adv-x="1343" 
d="M516 0h-391v1212h391v-417l166 206l168 211h410l-422 -483l450 -729h-430l-268 444l-74 -79v-365z" />
    <glyph glyph-name="Kcommaaccent.sc" horiz-adv-x="1343" 
d="M516 0h-391v1212h391v-417l166 206l168 211h410l-422 -483l450 -729h-430l-268 444l-74 -79v-365zM545 -649l90 233h-145v334h366v-283l-143 -284h-168z" />
    <glyph glyph-name="L.sc" horiz-adv-x="1083" 
d="M1049 0h-924v1212h397v-917h527v-295z" />
    <glyph glyph-name="Lacute.sc" horiz-adv-x="1083" 
d="M1049 0h-924v1212h397v-917h527v-295zM183 1312l190 371h389l-311 -371h-268z" />
    <glyph glyph-name="Lcaron.sc" horiz-adv-x="1083" 
d="M1049 0h-924v1212h397v-917h527v-295zM651 674l86 221h-139v317h350v-268l-137 -270h-160z" />
    <glyph glyph-name="Lcommaaccent.sc" horiz-adv-x="1083" 
d="M1049 0h-924v1212h397v-917h527v-295zM414 -649l90 233h-145v334h366v-283l-143 -284h-168z" />
    <glyph glyph-name="Ldot.sc" horiz-adv-x="1165" 
d="M1049 0h-924v1212h397v-917h527v-295zM727 532v312h365v-312h-365z" />
    <glyph glyph-name="Lslash.sc" horiz-adv-x="1083" 
d="M1049 295v-295h-924v479l-105 -28v221l105 28v512h397v-401l164 45v-221l-164 -45v-295h527z" />
    <glyph glyph-name="M.sc" horiz-adv-x="1638" 
d="M461 0h-336v1212h520l178 -778h4l150 778h536v-1212h-366v803h-2q-6 -39 -11.5 -74t-11.5 -67.5t-12.5 -63t-13.5 -61.5l-121 -537h-344l-115 543q-29 133 -35 162t-10.5 54.5t-7.5 49.5h-2v-809z" />
    <glyph glyph-name="N.sc" horiz-adv-x="1399" 
d="M481 0h-356v1212h389l170 -251l258 -371h2v622h354v-1212h-366l-144 203l-305 415h-2v-618z" />
    <glyph glyph-name="Nacute.sc" horiz-adv-x="1399" 
d="M481 0h-356v1212h389l170 -251l258 -371h2v622h354v-1212h-366l-144 203l-305 415h-2v-618zM512 1312l190 371h389l-311 -371h-268z" />
    <glyph glyph-name="Ncaron.sc" horiz-adv-x="1399" 
d="M481 0h-356v1212h389l170 -251l258 -371h2v622h354v-1212h-366l-144 203l-305 415h-2v-618zM566 1323l-265 360h228l168 -131l172 131h227l-264 -360h-266z" />
    <glyph glyph-name="Ncommaaccent.sc" horiz-adv-x="1399" 
d="M481 0h-356v1212h389l170 -251l258 -371h2v622h354v-1212h-366l-144 203l-305 415h-2v-618zM572 -649l90 233h-145v334h366v-283l-143 -284h-168z" />
    <glyph glyph-name="Ntilde.sc" horiz-adv-x="1399" 
d="M481 0h-356v1212h389l170 -251l258 -371h2v622h354v-1212h-366l-144 203l-305 415h-2v-618zM858 1288q-55 0 -94.5 15.5t-84 46.5t-64 42t-49.5 11q-20 0 -35.5 -6t-26.5 -19.5t-16.5 -34.5t-5.5 -51h-213q0 96 19 166t54.5 114.5t85 65.5t111.5 21q55 0 95 -15.5
t85 -46.5t64 -42t49 -11q20 0 35 6t26 19.5t17 34.5t6 50h213q0 -96 -19 -166t-55 -114t-85.5 -65t-111.5 -21z" />
    <glyph glyph-name="O.sc" horiz-adv-x="1436" 
d="M719 -23q-120 0 -234.5 35.5t-209 111t-151 196.5t-56.5 286t56.5 286t151 196.5t209 111t234.5 35.5t234.5 -35t208.5 -111t150 -197t56 -286t-56 -286t-150 -197t-208.5 -111t-234.5 -35zM719 279q60 0 107.5 23t80 66.5t49.5 104t17 133.5q0 74 -17 133t-49.5 100
t-80 63t-107.5 22q-61 0 -108.5 -22t-80 -63t-49 -100t-16.5 -133t16.5 -134t49 -103.5t80 -66.5t108.5 -23z" />
    <glyph glyph-name="OE.sc" horiz-adv-x="1985" 
d="M719 279q60 0 107.5 23t80 66.5t49.5 104t17 133.5q0 74 -17 133t-49.5 100t-80 63t-107.5 22q-61 0 -108.5 -22t-80 -63t-49 -100t-16.5 -133t16.5 -134t49 -103.5t80 -66.5t108.5 -23zM698 -23q-115 0 -226 35.5t-203 111t-146.5 196.5t-54.5 286q0 164 57 285.5
t150.5 197t204 111t218.5 35.5q48 0 93 -6t86 -17.5t76.5 -28.5t64.5 -38v67h874v-305h-559v-151h398v-293h-398v-168h586v-295h-901v59q-29 -20 -64.5 -35t-76 -25.5t-85.5 -16t-94 -5.5z" />
    <glyph glyph-name="Oacute.sc" horiz-adv-x="1436" 
d="M719 -23q-120 0 -234.5 35.5t-209 111t-151 196.5t-56.5 286t56.5 286t151 196.5t209 111t234.5 35.5t234.5 -35t208.5 -111t150 -197t56 -286t-56 -286t-150 -197t-208.5 -111t-234.5 -35zM719 279q60 0 107.5 23t80 66.5t49.5 104t17 133.5q0 74 -17 133t-49.5 100
t-80 63t-107.5 22q-61 0 -108.5 -22t-80 -63t-49 -100t-16.5 -133t16.5 -134t49 -103.5t80 -66.5t108.5 -23zM531 1312l190 371h389l-311 -371h-268z" />
    <glyph glyph-name="Obreve.sc" horiz-adv-x="1436" 
d="M719 -23q-120 0 -234.5 35.5t-209 111t-151 196.5t-56.5 286t56.5 286t151 196.5t209 111t234.5 35.5t234.5 -35t208.5 -111t150 -197t56 -286t-56 -286t-150 -197t-208.5 -111t-234.5 -35zM719 279q60 0 107.5 23t80 66.5t49.5 104t17 133.5q0 74 -17 133t-49.5 100
t-80 63t-107.5 22q-61 0 -108.5 -22t-80 -63t-49 -100t-16.5 -133t16.5 -134t49 -103.5t80 -66.5t108.5 -23zM717 1295q-92 0 -163.5 31t-119 85.5t-73 126t-29.5 154.5h211q6 -51 24.5 -82t43.5 -46.5t51 -20t55 -4.5t55 4.5t51 20t43.5 46.5t24.5 82h211
q-4 -83 -29.5 -154.5t-73 -126t-119 -85.5t-163.5 -31z" />
    <glyph glyph-name="Ocircumflex.sc" horiz-adv-x="1436" 
d="M719 -23q-120 0 -234.5 35.5t-209 111t-151 196.5t-56.5 286t56.5 286t151 196.5t209 111t234.5 35.5t234.5 -35t208.5 -111t150 -197t56 -286t-56 -286t-150 -197t-208.5 -111t-234.5 -35zM719 279q60 0 107.5 23t80 66.5t49.5 104t17 133.5q0 74 -17 133t-49.5 100
t-80 63t-107.5 22q-61 0 -108.5 -22t-80 -63t-49 -100t-16.5 -133t16.5 -134t49 -103.5t80 -66.5t108.5 -23zM319 1323l265 360h266l264 -360h-227l-172 131l-168 -131h-228z" />
    <glyph glyph-name="Odieresis.sc" horiz-adv-x="1436" 
d="M719 -23q-120 0 -234.5 35.5t-209 111t-151 196.5t-56.5 286t56.5 286t151 196.5t209 111t234.5 35.5t234.5 -35t208.5 -111t150 -197t56 -286t-56 -286t-150 -197t-208.5 -111t-234.5 -35zM719 279q60 0 107.5 23t80 66.5t49.5 104t17 133.5q0 74 -17 133t-49.5 100
t-80 63t-107.5 22q-61 0 -108.5 -22t-80 -63t-49 -100t-16.5 -133t16.5 -134t49 -103.5t80 -66.5t108.5 -23zM780 1298v358h328v-358h-328zM316 1298v358h327v-358h-327z" />
    <glyph glyph-name="Ograve.sc" horiz-adv-x="1436" 
d="M719 -23q-120 0 -234.5 35.5t-209 111t-151 196.5t-56.5 286t56.5 286t151 196.5t209 111t234.5 35.5t234.5 -35t208.5 -111t150 -197t56 -286t-56 -286t-150 -197t-208.5 -111t-234.5 -35zM719 279q60 0 107.5 23t80 66.5t49.5 104t17 133.5q0 74 -17 133t-49.5 100
t-80 63t-107.5 22q-61 0 -108.5 -22t-80 -63t-49 -100t-16.5 -133t16.5 -134t49 -103.5t80 -66.5t108.5 -23zM635 1312l-311 371h389l190 -371h-268z" />
    <glyph glyph-name="Ohungarumlaut.sc" horiz-adv-x="1436" 
d="M719 -23q-120 0 -234.5 35.5t-209 111t-151 196.5t-56.5 286t56.5 286t151 196.5t209 111t234.5 35.5t234.5 -35t208.5 -111t150 -197t56 -286t-56 -286t-150 -197t-208.5 -111t-234.5 -35zM719 279q60 0 107.5 23t80 66.5t49.5 104t17 133.5q0 74 -17 133t-49.5 100
t-80 63t-107.5 22q-61 0 -108.5 -22t-80 -63t-49 -100t-16.5 -133t16.5 -134t49 -103.5t80 -66.5t108.5 -23zM741 1312l242 371h389l-362 -371h-269zM324 1312l221 371h389l-342 -371h-268z" />
    <glyph glyph-name="Omacron.sc" horiz-adv-x="1436" 
d="M719 -23q-120 0 -234.5 35.5t-209 111t-151 196.5t-56.5 286t56.5 286t151 196.5t209 111t234.5 35.5t234.5 -35t208.5 -111t150 -197t56 -286t-56 -286t-150 -197t-208.5 -111t-234.5 -35zM719 279q60 0 107.5 23t80 66.5t49.5 104t17 133.5q0 74 -17 133t-49.5 100
t-80 63t-107.5 22q-61 0 -108.5 -22t-80 -63t-49 -100t-16.5 -133t16.5 -134t49 -103.5t80 -66.5t108.5 -23zM357 1298v279h720v-279h-720z" />
    <glyph glyph-name="Oslash.sc" horiz-adv-x="1436" 
d="M473 436l361 479q-12 6 -25.5 11t-28 8t-30 4.5t-31.5 1.5q-64 0 -115 -23t-86 -66.5t-53.5 -105.5t-18.5 -139q0 -24 1.5 -47t5 -44.5t8.5 -41.5t12 -37zM719 262q63 0 113.5 24.5t86 70t54 109t18.5 140.5q0 25 -2 48.5t-6.5 45.5t-10.5 41.5t-14 38.5l-364 -489
q13 -7 27.5 -12.5t30.5 -9t32.5 -5.5t34.5 -2zM303 -113l-164 123l105 140q-40 38 -72.5 85t-55.5 104t-35.5 124t-12.5 143q0 165 56.5 286t151 196.5t209 111t234.5 35.5q37 0 75 -3.5t75.5 -10.5t74.5 -18.5t72 -26.5l110 147l164 -123l-102 -135q41 -38 74 -85.5
t57 -104.5t36.5 -124.5t12.5 -144.5q0 -165 -56 -286t-150 -197t-208.5 -111t-234.5 -35q-38 0 -76.5 3.5t-77 11t-76 19t-73.5 26.5z" />
    <glyph glyph-name="Otilde.sc" horiz-adv-x="1436" 
d="M719 -23q-120 0 -234.5 35.5t-209 111t-151 196.5t-56.5 286t56.5 286t151 196.5t209 111t234.5 35.5t234.5 -35t208.5 -111t150 -197t56 -286t-56 -286t-150 -197t-208.5 -111t-234.5 -35zM719 279q60 0 107.5 23t80 66.5t49.5 104t17 133.5q0 74 -17 133t-49.5 100
t-80 63t-107.5 22q-61 0 -108.5 -22t-80 -63t-49 -100t-16.5 -133t16.5 -134t49 -103.5t80 -66.5t108.5 -23zM876 1288q-55 0 -94.5 15.5t-84 46.5t-64 42t-49.5 11q-20 0 -35.5 -6t-26.5 -19.5t-16.5 -34.5t-5.5 -51h-213q0 96 19 166t54.5 114.5t85 65.5t111.5 21
q55 0 95 -15.5t85 -46.5t64 -42t49 -11q20 0 35 6t26 19.5t17 34.5t6 50h213q0 -96 -19 -166t-55 -114t-85.5 -65t-111.5 -21z" />
    <glyph glyph-name="P.sc" horiz-adv-x="1253" 
d="M514 0h-389v1212h506q117 0 213.5 -15t177.5 -59.5t129.5 -132.5t48.5 -227q0 -135 -51.5 -222t-134.5 -131t-178 -59.5t-203 -15.5h-119v-350zM514 926v-316h131q52 0 87.5 13t55 34.5t27.5 49t8 59.5q0 35 -8 63.5t-27.5 50t-54.5 34t-88 12.5h-131z" />
    <glyph glyph-name="Q.sc" horiz-adv-x="1436" 
d="M1241 -78v-280h-248q-132 0 -226 29t-152 80.5t-85.5 118.5t-31.5 146q-87 29 -163 76t-136.5 118.5t-95.5 170.5t-35 225q0 165 56.5 286t151 196.5t209 111t234.5 35.5q118 0 232.5 -35.5t209 -111t151 -197t56.5 -285.5q0 -134 -40 -237.5t-108.5 -176t-154 -117.5
t-180.5 -69q6 -30 17 -46t36.5 -24.5t71.5 -11t133 -2.5h98zM719 268q59 0 106.5 23.5t80.5 68t50 107t17 139.5t-17 138t-50 103.5t-80 64.5t-107 22q-61 0 -109 -22t-80.5 -64.5t-49.5 -103.5t-17 -138t17 -140t50 -107t80.5 -67.5t108.5 -23.5z" />
    <glyph glyph-name="R.sc" horiz-adv-x="1303" 
d="M512 926v-281h129q45 0 77.5 9t52.5 27t29 43.5t9 59.5q0 36 -9.5 62.5t-29 44t-51.5 26.5t-76 9h-131zM512 0h-387v1212h528q130 0 229.5 -21.5t169.5 -69.5t107 -127t37 -193q0 -71 -14 -127.5t-43 -100.5t-73 -77.5t-105 -57.5l256 -438h-412l-225 391h-68v-391z" />
    <glyph glyph-name="Racute.sc" horiz-adv-x="1303" 
d="M512 926v-281h129q45 0 77.5 9t52.5 27t29 43.5t9 59.5q0 36 -9.5 62.5t-29 44t-51.5 26.5t-76 9h-131zM512 0h-387v1212h528q130 0 229.5 -21.5t169.5 -69.5t107 -127t37 -193q0 -71 -14 -127.5t-43 -100.5t-73 -77.5t-105 -57.5l256 -438h-412l-225 391h-68v-391z
M465 1312l190 371h389l-311 -371h-268z" />
    <glyph glyph-name="Rcaron.sc" horiz-adv-x="1303" 
d="M512 926v-281h129q45 0 77.5 9t52.5 27t29 43.5t9 59.5q0 36 -9.5 62.5t-29 44t-51.5 26.5t-76 9h-131zM512 0h-387v1212h528q130 0 229.5 -21.5t169.5 -69.5t107 -127t37 -193q0 -71 -14 -127.5t-43 -100.5t-73 -77.5t-105 -57.5l256 -438h-412l-225 391h-68v-391z
M519 1323l-265 360h228l168 -131l172 131h227l-264 -360h-266z" />
    <glyph glyph-name="Rcommaaccent.sc" horiz-adv-x="1303" 
d="M512 926v-281h129q45 0 77.5 9t52.5 27t29 43.5t9 59.5q0 36 -9.5 62.5t-29 44t-51.5 26.5t-76 9h-131zM512 0h-387v1212h528q130 0 229.5 -21.5t169.5 -69.5t107 -127t37 -193q0 -71 -14 -127.5t-43 -100.5t-73 -77.5t-105 -57.5l256 -438h-412l-225 391h-68v-391z
M524 -649l90 233h-145v334h366v-283l-143 -284h-168z" />
    <glyph glyph-name="S.sc" horiz-adv-x="1290" 
d="M674 -29q-87 0 -172.5 13.5t-167 43.5t-152.5 80t-123 121l289 207q24 -40 61.5 -72.5t82.5 -55t90.5 -34.5t85.5 -12q44 0 75 5t50 15.5t27.5 26t8.5 37.5q0 24 -10 39t-32.5 25.5t-60.5 19.5t-105 21q-124 22 -213 50t-155.5 73.5t-103 116t-36.5 171.5q0 81 35 150
t100 119t156 77t200 27q105 0 195 -17t162 -46.5t128 -68t97 -83.5l-252 -215q-23 25 -60 50t-81 45t-89 32t-83 12q-35 0 -59.5 -4.5t-39.5 -13.5t-21.5 -23t-6.5 -33q0 -29 15 -47.5t47 -30.5t71.5 -20.5t154.5 -30.5q89 -16 162 -39.5t135.5 -65.5t100 -109t37.5 -162
q0 -92 -40.5 -166t-114 -125t-173 -77t-215.5 -26z" />
    <glyph glyph-name="Sacute.sc" horiz-adv-x="1290" 
d="M674 -29q-87 0 -172.5 13.5t-167 43.5t-152.5 80t-123 121l289 207q24 -40 61.5 -72.5t82.5 -55t90.5 -34.5t85.5 -12q44 0 75 5t50 15.5t27.5 26t8.5 37.5q0 24 -10 39t-32.5 25.5t-60.5 19.5t-105 21q-124 22 -213 50t-155.5 73.5t-103 116t-36.5 171.5q0 81 35 150
t100 119t156 77t200 27q105 0 195 -17t162 -46.5t128 -68t97 -83.5l-252 -215q-23 25 -60 50t-81 45t-89 32t-83 12q-35 0 -59.5 -4.5t-39.5 -13.5t-21.5 -23t-6.5 -33q0 -29 15 -47.5t47 -30.5t71.5 -20.5t154.5 -30.5q89 -16 162 -39.5t135.5 -65.5t100 -109t37.5 -162
q0 -92 -40.5 -166t-114 -125t-173 -77t-215.5 -26zM459 1312l190 371h389l-311 -371h-268z" />
    <glyph glyph-name="Scaron.sc" horiz-adv-x="1290" 
d="M674 -29q-87 0 -172.5 13.5t-167 43.5t-152.5 80t-123 121l289 207q24 -40 61.5 -72.5t82.5 -55t90.5 -34.5t85.5 -12q44 0 75 5t50 15.5t27.5 26t8.5 37.5q0 24 -10 39t-32.5 25.5t-60.5 19.5t-105 21q-124 22 -213 50t-155.5 73.5t-103 116t-36.5 171.5q0 81 35 150
t100 119t156 77t200 27q105 0 195 -17t162 -46.5t128 -68t97 -83.5l-252 -215q-23 25 -60 50t-81 45t-89 32t-83 12q-35 0 -59.5 -4.5t-39.5 -13.5t-21.5 -23t-6.5 -33q0 -29 15 -47.5t47 -30.5t71.5 -20.5t154.5 -30.5q89 -16 162 -39.5t135.5 -65.5t100 -109t37.5 -162
q0 -92 -40.5 -166t-114 -125t-173 -77t-215.5 -26zM512 1323l-265 360h228l168 -131l172 131h227l-264 -360h-266z" />
    <glyph glyph-name="Scedilla.sc" horiz-adv-x="1290" 
d="M674 -29q-87 0 -172.5 13.5t-167 43.5t-152.5 80t-123 121l289 207q24 -40 61.5 -72.5t82.5 -55t90.5 -34.5t85.5 -12q44 0 75 5t50 15.5t27.5 26t8.5 37.5q0 24 -10 39t-32.5 25.5t-60.5 19.5t-105 21q-124 22 -213 50t-155.5 73.5t-103 116t-36.5 171.5q0 81 35 150
t100 119t156 77t200 27q105 0 195 -17t162 -46.5t128 -68t97 -83.5l-252 -215q-23 25 -60 50t-81 45t-89 32t-83 12q-35 0 -59.5 -4.5t-39.5 -13.5t-21.5 -23t-6.5 -33q0 -29 15 -47.5t47 -30.5t71.5 -20.5t154.5 -30.5q89 -16 162 -39.5t135.5 -65.5t100 -109t37.5 -162
q0 -92 -40.5 -166t-114 -125t-173 -77t-215.5 -26zM682 -420q-50 0 -97 5.5t-88.5 16t-76.5 24.5t-62 32l68 113q22 -15 50 -26.5t57.5 -19.5t59 -12t56.5 -4q18 0 33 3.5t26 11t17 18.5t6 25q0 13 -5 22.5t-13 15.5t-18 8.5t-21 2.5t-20.5 -2t-18.5 -5.5t-18.5 -9
t-20.5 -14.5l-92 45l53 170h156l-21 -86q11 7 25.5 12.5t32 9.5t38.5 6.5t45 2.5q30 0 57 -9.5t48 -28.5t33 -46t12 -62q0 -48 -23 -88.5t-64.5 -70t-96 -45t-117.5 -15.5z" />
    <glyph glyph-name="Scircumflex.sc" horiz-adv-x="1290" 
d="M674 -29q-87 0 -172.5 13.5t-167 43.5t-152.5 80t-123 121l289 207q24 -40 61.5 -72.5t82.5 -55t90.5 -34.5t85.5 -12q44 0 75 5t50 15.5t27.5 26t8.5 37.5q0 24 -10 39t-32.5 25.5t-60.5 19.5t-105 21q-124 22 -213 50t-155.5 73.5t-103 116t-36.5 171.5q0 81 35 150
t100 119t156 77t200 27q105 0 195 -17t162 -46.5t128 -68t97 -83.5l-252 -215q-23 25 -60 50t-81 45t-89 32t-83 12q-35 0 -59.5 -4.5t-39.5 -13.5t-21.5 -23t-6.5 -33q0 -29 15 -47.5t47 -30.5t71.5 -20.5t154.5 -30.5q89 -16 162 -39.5t135.5 -65.5t100 -109t37.5 -162
q0 -92 -40.5 -166t-114 -125t-173 -77t-215.5 -26zM243 1323l265 360h266l264 -360h-227l-172 131l-168 -131h-228z" />
    <glyph glyph-name="Scommaaccent.sc" horiz-adv-x="1290" 
d="M674 -29q-87 0 -172.5 13.5t-167 43.5t-152.5 80t-123 121l289 207q24 -40 61.5 -72.5t82.5 -55t90.5 -34.5t85.5 -12q44 0 75 5t50 15.5t27.5 26t8.5 37.5q0 24 -10 39t-32.5 25.5t-60.5 19.5t-105 21q-124 22 -213 50t-155.5 73.5t-103 116t-36.5 171.5q0 81 35 150
t100 119t156 77t200 27q105 0 195 -17t162 -46.5t128 -68t97 -83.5l-252 -215q-23 25 -60 50t-81 45t-89 32t-83 12q-35 0 -59.5 -4.5t-39.5 -13.5t-21.5 -23t-6.5 -33q0 -29 15 -47.5t47 -30.5t71.5 -20.5t154.5 -30.5q89 -16 162 -39.5t135.5 -65.5t100 -109t37.5 -162
q0 -92 -40.5 -166t-114 -125t-173 -77t-215.5 -26zM518 -649l90 233h-145v334h366v-283l-143 -284h-168z" />
    <glyph glyph-name="T.sc" horiz-adv-x="1200" 
d="M799 0h-398v907h-358v305h1116v-305h-360v-907z" />
    <glyph glyph-name="Tbar.sc" horiz-adv-x="1200" 
d="M1159 373h-360v-373h-398v373h-358v250h358v284h-358v305h1116v-305h-360v-284h360v-250z" />
    <glyph glyph-name="Tcaron.sc" horiz-adv-x="1200" 
d="M799 0h-398v907h-358v305h1116v-305h-360v-907zM467 1323l-265 360h228l168 -131l172 131h227l-264 -360h-266z" />
    <glyph glyph-name="Tcommaaccent.sc" horiz-adv-x="1200" 
d="M799 0h-398v907h-358v305h1116v-305h-360v-907zM473 -649l90 233h-145v334h366v-283l-143 -284h-168z" />
    <glyph glyph-name="Thorn.sc" horiz-adv-x="1253" 
d="M510 0h-385v1212h387v-157h119q117 0 213.5 -15t177.5 -59.5t129.5 -132.5t48.5 -227q0 -135 -51.5 -222t-134.5 -131t-178 -59.5t-203 -15.5h-123v-193zM510 768v-315h135q52 0 87.5 14t55 37t27.5 50t8 54q0 31 -8 58.5t-27.5 50.5t-55 37t-87.5 14h-135z" />
    <glyph glyph-name="U.sc" horiz-adv-x="1305" 
d="M653 -18q-143 0 -248 34t-173.5 100t-102 163.5t-33.5 226.5v706h396v-710q0 -61 8 -102.5t27 -68.5t51 -39.5t81 -12.5q48 0 79 13t48.5 39.5t25 68t7.5 102.5v710h389v-706q0 -129 -33 -227t-101 -164t-173 -99.5t-248 -33.5z" />
    <glyph glyph-name="Uacute.sc" horiz-adv-x="1305" 
d="M653 -18q-143 0 -248 34t-173.5 100t-102 163.5t-33.5 226.5v706h396v-710q0 -61 8 -102.5t27 -68.5t51 -39.5t81 -12.5q48 0 79 13t48.5 39.5t25 68t7.5 102.5v710h389v-706q0 -129 -33 -227t-101 -164t-173 -99.5t-248 -33.5zM465 1312l190 371h389l-311 -371h-268z
" />
    <glyph glyph-name="Ubreve.sc" horiz-adv-x="1305" 
d="M653 -18q-143 0 -248 34t-173.5 100t-102 163.5t-33.5 226.5v706h396v-710q0 -61 8 -102.5t27 -68.5t51 -39.5t81 -12.5q48 0 79 13t48.5 39.5t25 68t7.5 102.5v710h389v-706q0 -129 -33 -227t-101 -164t-173 -99.5t-248 -33.5zM651 1286q-92 0 -163.5 31t-119 85.5
t-73 126t-29.5 154.5h211q6 -51 24.5 -82t43.5 -46.5t51 -20t55 -4.5t55 4.5t51 20t43.5 46.5t24.5 82h211q-4 -83 -29.5 -154.5t-73 -126t-119 -85.5t-163.5 -31z" />
    <glyph glyph-name="Ucircumflex.sc" horiz-adv-x="1305" 
d="M653 -18q-143 0 -248 34t-173.5 100t-102 163.5t-33.5 226.5v706h396v-710q0 -61 8 -102.5t27 -68.5t51 -39.5t81 -12.5q48 0 79 13t48.5 39.5t25 68t7.5 102.5v710h389v-706q0 -129 -33 -227t-101 -164t-173 -99.5t-248 -33.5zM254 1323l265 360h266l264 -360h-227
l-172 131l-168 -131h-228z" />
    <glyph glyph-name="Udieresis.sc" horiz-adv-x="1305" 
d="M653 -18q-143 0 -248 34t-173.5 100t-102 163.5t-33.5 226.5v706h396v-710q0 -61 8 -102.5t27 -68.5t51 -39.5t81 -12.5q48 0 79 13t48.5 39.5t25 68t7.5 102.5v710h389v-706q0 -129 -33 -227t-101 -164t-173 -99.5t-248 -33.5zM714 1298v358h328v-358h-328zM250 1298
v358h327v-358h-327z" />
    <glyph glyph-name="Ugrave.sc" horiz-adv-x="1305" 
d="M653 -18q-143 0 -248 34t-173.5 100t-102 163.5t-33.5 226.5v706h396v-710q0 -61 8 -102.5t27 -68.5t51 -39.5t81 -12.5q48 0 79 13t48.5 39.5t25 68t7.5 102.5v710h389v-706q0 -129 -33 -227t-101 -164t-173 -99.5t-248 -33.5zM569 1312l-311 371h389l190 -371h-268z
" />
    <glyph glyph-name="Uhungarumlaut.sc" horiz-adv-x="1305" 
d="M653 -18q-143 0 -248 34t-173.5 100t-102 163.5t-33.5 226.5v706h396v-710q0 -61 8 -102.5t27 -68.5t51 -39.5t81 -12.5q48 0 79 13t48.5 39.5t25 68t7.5 102.5v710h389v-706q0 -129 -33 -227t-101 -164t-173 -99.5t-248 -33.5zM675 1312l242 371h389l-362 -371h-269z
M258 1312l221 371h389l-342 -371h-268z" />
    <glyph glyph-name="Umacron.sc" horiz-adv-x="1305" 
d="M653 -18q-143 0 -248 34t-173.5 100t-102 163.5t-33.5 226.5v706h396v-710q0 -61 8 -102.5t27 -68.5t51 -39.5t81 -12.5q48 0 79 13t48.5 39.5t25 68t7.5 102.5v710h389v-706q0 -129 -33 -227t-101 -164t-173 -99.5t-248 -33.5zM291 1298v279h720v-279h-720z" />
    <glyph glyph-name="Uogonek.sc" horiz-adv-x="1305" 
d="M653 -18q-143 0 -248 34t-173.5 100t-102 163.5t-33.5 226.5v706h396v-710q0 -61 8 -102.5t27 -68.5t51 -39.5t81 -12.5q48 0 79 13t48.5 39.5t25 68t7.5 102.5v710h389v-706q0 -129 -33 -227t-101 -164t-173 -99.5t-248 -33.5zM667 -383q-60 0 -106 10.5t-76.5 31
t-46 50t-15.5 66.5q0 33 14 66.5t39.5 64.5t60.5 59t77 51h205q-39 -24 -65.5 -48t-41.5 -46t-21.5 -42t-6.5 -40q0 -14 3.5 -26t13 -22.5t27 -16.5t44.5 -6q30 0 55 5t43.5 12.5t28 13.5t32.5 20l78 -119q-32 -20 -68.5 -35t-78.5 -26t-91 -17t-104 -6z" />
    <glyph glyph-name="Uring.sc" horiz-adv-x="1305" 
d="M653 -18q-143 0 -248 34t-173.5 100t-102 163.5t-33.5 226.5v706h396v-710q0 -61 8 -102.5t27 -68.5t51 -39.5t81 -12.5q48 0 79 13t48.5 39.5t25 68t7.5 102.5v710h389v-706q0 -129 -33 -227t-101 -164t-173 -99.5t-248 -33.5zM651 1294q-51 0 -95 18t-76.5 50.5
t-50.5 76.5t-18 95q0 50 18 93.5t50.5 75.5t76.5 50t95 18t95 -18t76.5 -50t50.5 -75.5t18 -93.5q0 -51 -18 -95t-50.5 -76.5t-76.5 -50.5t-95 -18zM651 1441q19 0 35 6.5t28 19t18.5 29.5t6.5 38q0 19 -6.5 35.5t-18.5 28.5t-28 19t-35 7t-35 -7t-28 -19t-18.5 -28.5
t-6.5 -35.5q0 -21 6.5 -38t18.5 -29.5t28 -19t35 -6.5z" />
    <glyph glyph-name="Utilde.sc" horiz-adv-x="1305" 
d="M653 -18q-143 0 -248 34t-173.5 100t-102 163.5t-33.5 226.5v706h396v-710q0 -61 8 -102.5t27 -68.5t51 -39.5t81 -12.5q48 0 79 13t48.5 39.5t25 68t7.5 102.5v710h389v-706q0 -129 -33 -227t-101 -164t-173 -99.5t-248 -33.5zM815 1288q-55 0 -94.5 15.5t-84 46.5
t-64 42t-49.5 11q-20 0 -35.5 -6t-26.5 -19.5t-16.5 -34.5t-5.5 -51h-213q0 96 19 166t54.5 114.5t85 65.5t111.5 21q55 0 95 -15.5t85 -46.5t64 -42t49 -11q20 0 35 6t26 19.5t17 34.5t6 50h213q0 -96 -19 -166t-55 -114t-85.5 -65t-111.5 -21z" />
    <glyph glyph-name="V.sc" horiz-adv-x="1296" 
d="M836 -4h-379l-432 1216h403l145 -471l80 -264h4l86 266l160 469h369z" />
    <glyph glyph-name="W.sc" horiz-adv-x="1724" 
d="M711 0h-332l-348 1212h399l94 -415q6 -26 11.5 -50t11 -50t11.5 -56.5t15 -79.5h5q4 22 12.5 66.5t13 69t9.5 49t10 49.5l79 417h357l92 -415q12 -51 15.5 -68t8.5 -40.5t11 -53.5t14 -74h4q6 42 11 71t9 51.5t-1 -3t22 112.5l86 419h363l-338 -1212h-326l-145 686h-4z
" />
    <glyph glyph-name="Wacute.sc" horiz-adv-x="1724" 
d="M711 0h-332l-348 1212h399l94 -415q6 -26 11.5 -50t11 -50t11.5 -56.5t15 -79.5h5q4 22 12.5 66.5t13 69t9.5 49t10 49.5l79 417h357l92 -415q12 -51 15.5 -68t8.5 -40.5t11 -53.5t14 -74h4q6 42 11 71t9 51.5t-1 -3t22 112.5l86 419h363l-338 -1212h-326l-145 686h-4z
M754 1312l190 371h389l-311 -371h-268z" />
    <glyph glyph-name="Wcircumflex.sc" horiz-adv-x="1724" 
d="M711 0h-332l-348 1212h399l94 -415q6 -26 11.5 -50t11 -50t11.5 -56.5t15 -79.5h5q4 22 12.5 66.5t13 69t9.5 49t10 49.5l79 417h357l92 -415q12 -51 15.5 -68t8.5 -40.5t11 -53.5t14 -74h4q6 42 11 71t9 51.5t-1 -3t22 112.5l86 419h363l-338 -1212h-326l-145 686h-4z
M465 1323l265 360h266l264 -360h-227l-172 131l-168 -131h-228z" />
    <glyph glyph-name="Wdieresis.sc" horiz-adv-x="1724" 
d="M711 0h-332l-348 1212h399l94 -415q6 -26 11.5 -50t11 -50t11.5 -56.5t15 -79.5h5q4 22 12.5 66.5t13 69t9.5 49t10 49.5l79 417h357l92 -415q12 -51 15.5 -68t8.5 -40.5t11 -53.5t14 -74h4q6 42 11 71t9 51.5t-1 -3t22 112.5l86 419h363l-338 -1212h-326l-145 686h-4z
M925 1298v358h328v-358h-328zM461 1298v358h327v-358h-327z" />
    <glyph glyph-name="Wgrave.sc" horiz-adv-x="1724" 
d="M711 0h-332l-348 1212h399l94 -415q6 -26 11.5 -50t11 -50t11.5 -56.5t15 -79.5h5q4 22 12.5 66.5t13 69t9.5 49t10 49.5l79 417h357l92 -415q12 -51 15.5 -68t8.5 -40.5t11 -53.5t14 -74h4q6 42 11 71t9 51.5t-1 -3t22 112.5l86 419h363l-338 -1212h-326l-145 686h-4z
M739 1312l-311 371h389l190 -371h-268z" />
    <glyph glyph-name="X.sc" horiz-adv-x="1298" 
d="M442 0h-407l389 633l-371 579h441l176 -303l157 303h396l-351 -579l392 -633h-430l-199 344z" />
    <glyph glyph-name="Y.sc" 
d="M465 0v500l-451 712h418l248 -409l246 409h391l-455 -712v-500h-397z" />
    <glyph glyph-name="Yacute.sc" 
d="M465 0v500l-451 712h418l248 -409l246 409h391l-455 -712v-500h-397zM480 1312l190 371h389l-311 -371h-268z" />
    <glyph glyph-name="Ycircumflex.sc" 
d="M465 0v500l-451 712h418l248 -409l246 409h391l-455 -712v-500h-397zM268 1323l265 360h266l264 -360h-227l-172 131l-168 -131h-228z" />
    <glyph glyph-name="Ydieresis.sc" 
d="M465 0v500l-451 712h418l248 -409l246 409h391l-455 -712v-500h-397zM729 1298v358h328v-358h-328zM265 1298v358h327v-358h-327z" />
    <glyph glyph-name="Ygrave.sc" 
d="M465 0v500l-451 712h418l248 -409l246 409h391l-455 -712v-500h-397zM563 1312l-311 371h389l190 -371h-268z" />
    <glyph glyph-name="Z.sc" horiz-adv-x="1231" 
d="M1161 0h-1106v250l598 657h-559v305h1067v-260l-581 -657h581v-295z" />
    <glyph glyph-name="Zacute.sc" horiz-adv-x="1231" 
d="M1161 0h-1106v250l598 657h-559v305h1067v-260l-581 -657h581v-295zM428 1312l190 371h389l-311 -371h-268z" />
    <glyph glyph-name="Zcaron.sc" horiz-adv-x="1231" 
d="M1161 0h-1106v250l598 657h-559v305h1067v-260l-581 -657h581v-295zM482 1323l-265 360h228l168 -131l172 131h227l-264 -360h-266z" />
    <glyph glyph-name="Zdotaccent.sc" horiz-adv-x="1231" 
d="M1161 0h-1106v250l598 657h-559v305h1067v-260l-581 -657h581v-295zM411 1345v311h406v-311h-406z" />
    <glyph glyph-name="ampersand.sc" horiz-adv-x="1323" 
d="M942 631h303q-8 -50 -19.5 -96t-26 -88.5t-32.5 -81t-39 -72.5q21 -7 41 -11.5t40 -8t40.5 -5t40.5 -0.5v-284q-52 -8 -104.5 -7.5t-104 10t-102 26.5t-100.5 40q-37 -19 -77.5 -33t-84.5 -23.5t-91 -14.5t-98 -5q-132 0 -230.5 25t-161.5 71t-93.5 108.5t-30.5 137.5
q0 72 22.5 129t62 99.5t90 74t114.5 58.5q-15 33 -26 65t-18.5 62.5t-11 59.5t-3.5 55q0 63 22.5 121.5t70.5 105.5t125.5 74.5t182.5 27.5q92 0 161 -23.5t113.5 -64.5t65.5 -94t21 -113q0 -71 -24 -127t-65.5 -97.5t-93 -72.5t-116.5 -59q10 -14 20.5 -27.5t22.5 -26.5
t24.5 -25.5t26.5 -24.5q8 -9 17 -18t18.5 -17t18.5 -15.5l21 -17.5q14 23 25 47.5t19.5 50t14.5 52t9 53.5zM569 918q0 -15 1.5 -30t5 -31t8.5 -32.5t12 -33.5q28 13 49.5 26.5t37 29.5t24 36t8.5 43q0 15 -3.5 29.5t-11 27t-21 20t-32.5 7.5q-15 0 -28.5 -4.5t-25 -15.5
t-18 -29t-6.5 -43zM530 238q10 0 20 0.5l20 1t20 2t20 2.5q-6 5 -11.5 10.5l-11 11t-11 11.5t-11.5 12q-21 21 -40.5 43.5t-38.5 45.5t-36.5 46t-33.5 47q-15 -11 -26.5 -22.5t-19.5 -24t-12 -26.5t-4 -29q0 -36 14.5 -61t40 -40.5t56.5 -22.5t65 -7z" />
    <glyph glyph-name="asterisk.tab" 
d="M526 578l-200 118l182 265l-322 -23v225l324 -22l-184 266l200 119l140 -293l139 293l203 -119l-185 -266l322 22v-225l-322 23l185 -265l-201 -118l-141 290z" />
    <glyph glyph-name="backslash.sc" horiz-adv-x="1192" 
d="M440 1212l705 -1212h-393l-705 1212h393z" />
    <glyph glyph-name="braceleft.uc" horiz-adv-x="954" 
d="M928 -267h-357q-69 0 -125 23.5t-95.5 66t-60 100t-20.5 124.5v262q0 75 -13.5 123t-41.5 74.5t-69.5 37.5t-102.5 11v282q61 0 102.5 11t69.5 37.5t41.5 74.5t13.5 123v262q0 67 20.5 124.5t60 100t95.5 66t125 23.5h357v-279h-90q-41 0 -71.5 -11t-50 -31.5t-29 -51
t-9.5 -70.5v-192q0 -74 -11.5 -129.5t-33.5 -94t-54 -63.5t-75 -39v-4q43 -14 75 -39t54 -63.5t33.5 -94t11.5 -129.5v-192q0 -40 9.5 -70.5t29 -51t50 -31.5t71.5 -11h90v-279z" />
    <glyph glyph-name="braceright.uc" horiz-adv-x="954" 
d="M424 -267h-397v279h90q41 0 71 11t49.5 31.5t29 51t9.5 70.5v233q0 74 11.5 123t33.5 79.5t53 49t77 33.5v4q-46 15 -77 33.5t-53 49t-33.5 79.5t-11.5 123v233q0 40 -9.5 70.5t-29 51t-49.5 31.5t-71 11h-90v279h397q70 0 119.5 -17.5t80.5 -52t45.5 -85t14.5 -118.5
v-303q0 -75 14 -123t41.5 -74.5t69 -37.5t102.5 -11v-282q-61 0 -102.5 -11t-69 -37.5t-41.5 -74.5t-14 -123v-303q0 -68 -14.5 -118.5t-45.5 -85t-80.5 -52t-119.5 -17.5z" />
    <glyph glyph-name="bracketleft.uc" horiz-adv-x="954" 
d="M911 -267h-784v1926h784v-279h-376v-1368h376v-279z" />
    <glyph glyph-name="bracketright.uc" horiz-adv-x="954" 
d="M827 -267h-784v279h377v1368h-377v279h784v-1926z" />
    <glyph glyph-name="cent.tab" 
d="M502 545q0 -25 1.5 -49t4.5 -48t9 -46.5t14 -42.5l143 477q-41 -6 -73 -26t-54 -56t-33.5 -88t-11.5 -121zM692 -23q-12 0 -23.5 0.5l-23 1t-22.5 2t-21 2.5l-76 -247h-196l90 296q-75 35 -130 89.5t-90.5 123t-52 145t-16.5 157.5q0 154 53 265.5t139 178.5t186 97
t198 30h11.5h10t11 -0.5t10.5 -0.5l57 190h197l-70 -224q48 -17 90 -43.5t79 -64.5t66 -89t50 -116l-310 -106q-6 21 -14 39.5t-18 34.5t-21.5 29t-24.5 24l-160 -540q3 0 6.5 -0.5t7 -0.5h6.5h7q27 0 58 9.5t62.5 30.5t57.5 57t42 87l305 -112q-26 -67 -68 -127.5
t-106 -109.5t-153.5 -78.5t-203.5 -29.5z" />
    <glyph glyph-name="colon.tab" horiz-adv-x="666" 
d="M119 729v369h424v-369h-424zM119 0v369h424v-369h-424z" />
    <glyph glyph-name="comma.tab" horiz-adv-x="666" 
d="M178 -260l103 260h-162v369h424v-314l-176 -315h-189z" />
    <glyph glyph-name="commaaccent.scrap" horiz-adv-x="588" 
d="M111 1200v283l143 284h168l-90 -233h145v-334h-366z" />
    <glyph glyph-name="divide.sc" 
d="M825 893h-319v270h319v-270zM1192 461h-1053v315h1053v-315zM825 70h-319v270h319v-270z" />
    <glyph glyph-name="divide.tab" 
d="M506 1010v270h319v-270h-319zM139 578v315h1053v-315h-1053zM506 186v271h319v-271h-319z" />
    <glyph glyph-name="dollar.sc" horiz-adv-x="1223" 
d="M506 784v197q-18 -3 -34 -11t-28.5 -21t-19 -30t-6.5 -36q0 -21 7 -37t19 -28t27.5 -20t34.5 -14zM715 436v-200q21 4 38.5 11.5t30.5 19.5t20 28.5t7 36.5q0 21 -7 37.5t-20 29.5t-30.5 22t-38.5 15zM721 -147h-223v135q-75 8 -140 31.5t-119.5 59.5t-99.5 83.5
t-82 105.5q27 16 55.5 33.5t72.5 44.5t72.5 44.5t55.5 33.5q21 -32 45.5 -61.5t50.5 -53t51 -40t46 -23.5v239q-86 20 -157 47.5t-127.5 71t-89 107.5t-32.5 151q0 81 28 146t81 111.5t126 74.5t163 37v117h223v-121q64 -9 119.5 -30t101.5 -51t83.5 -67.5t68.5 -81.5
l-242 -172q-17 25 -31 43.5t-30 35.5t-35 32t-41 27v-226q99 -21 173 -49.5t127.5 -71.5t82 -105.5t28.5 -148.5q0 -69 -22 -130.5t-69.5 -112.5t-126 -86t-187.5 -47v-133z" />
    <glyph glyph-name="dollar.tab" 
d="M602 950v303q-20 -4 -41 -13t-41.5 -26t-33.5 -44.5t-13 -65.5q0 -33 9.5 -58.5t27 -43.5t40.5 -30.5t52 -21.5zM782 254q30 6 54.5 18t43.5 30.5t29.5 45t10.5 60.5t-10.5 60t-29 44.5t-43 31.5t-55.5 23v-313zM590 -190v170q-87 8 -162 33.5t-139.5 67.5t-120.5 101.5
t-105 136.5l271 173q36 -51 64.5 -86.5t59.5 -64.5t66.5 -49.5t77.5 -31.5v350q-112 27 -196.5 58.5t-153 82.5t-108.5 129t-40 187q0 104 36.5 188t102.5 144.5t154.5 95.5t192.5 43v139h201v-147q72 -10 135.5 -32t119.5 -56t104 -80.5t89 -106.5l-266 -194
q-25 34 -47.5 60t-45.5 47t-47 36.5t-51 26.5v-318q105 -21 194 -55t159.5 -89t111.5 -135.5t41 -187.5q0 -98 -31.5 -178.5t-94.5 -140.5t-156.5 -97t-214.5 -48v-172h-201z" />
    <glyph glyph-name="eight.dnom" horiz-adv-x="952" 
d="M475 -16q-107 0 -189 18t-137 53.5t-82.5 88t-27.5 120.5q0 43 16.5 82t44.5 71.5t64 57t76 41.5q-39 22 -67 44t-48 49.5t-30.5 63.5t-10.5 83q0 49 23 95t71.5 82t123 57.5t173.5 21.5q103 0 178 -21t122 -57.5t69 -82t22 -95.5q0 -37 -10.5 -72t-30 -66t-47.5 -55.5
t-63 -40.5q46 -21 80.5 -42.5t60.5 -50.5t40.5 -70t14.5 -95q0 -68 -27.5 -120.5t-82.5 -88t-137 -53.5t-189 -18zM508 602q16 10 29 22.5t22 27t13.5 31.5t4.5 36q0 16 -5 31.5t-16 27.5t-29.5 19.5t-43.5 7.5t-44 -6.5t-31.5 -17.5t-18.5 -26t-6 -32q0 -23 7 -40.5
t21.5 -31t38 -25.5t58.5 -24zM471 180q36 0 61.5 6.5t40.5 19.5t22 31t7 42q0 23 -9 43t-28 37.5t-49 34t-72 32.5q-22 -11 -41 -27.5t-33 -36t-22 -41t-8 -42.5q0 -24 7 -42t22 -31t40.5 -19.5t61.5 -6.5z" />
    </font>
</defs>
</svg>
